<?xml version="1.0" standalone="no"?>
<!DOCTYPE svg PUBLIC "-//W3C//DTD SVG 1.1//EN" "http://www.w3.org/Graphics/SVG/1.1/DTD/svg11.dtd" >
<svg xmlns="http://www.w3.org/2000/svg" xmlns:xlink="http://www.w3.org/1999/xlink" version="1.1">
<metadata>
Created by FontForge 20170731 at Tue Apr 26 19:26:58 2011
 By Aleksey,,,
Copyright (C) 2011 Markanna Studios Inc.www.SweetFonts.com
</metadata>
<defs>
<font id="SweetSansPro-Heavy" horiz-adv-x="492" >
  <font-face 
    font-family="Sweet Sans Pro Heavy"
    font-weight="900"
    font-stretch="normal"
    units-per-em="1000"
    panose-1="2 0 0 0 0 0 0 0 0 0"
    ascent="770"
    descent="-230"
    x-height="493"
    cap-height="653"
    bbox="-149 -307 1577 1127"
    underline-thickness="56"
    underline-position="-240"
    unicode-range="U+000D-FB04"
  />
<missing-glyph horiz-adv-x="579" 
d="M0 0v653h579v-653h-579zM289 252l-142 -160h284zM147 561l142 -160l142 160h-284zM355 326l122 -136v273zM223 326l-121 137v-273z" />
    <glyph glyph-name="f_f" unicode="ff" horiz-adv-x="724" 
d="M607 560v-67h113v-116h-113v-377h-164v377h-171v-377h-164v377h-79v116h79v67q0 79 51.5 115t124.5 36q71 0 101 -10l-10 -119q-40 5 -68 5q-16 0 -25.5 -7.5t-9.5 -19.5v-67h171v67q0 79 51.5 115t124.5 36q71 0 101 -10l-10 -119q-38 5 -68 5q-16 0 -25.5 -7.5
t-9.5 -19.5z" />
    <glyph glyph-name="f_i" unicode="fi" horiz-adv-x="687" 
d="M29 493h79v67q0 79 51.5 115t124.5 36q71 0 101 -10l-10 -119q-40 5 -68 5q-16 0 -25.5 -7.5t-9.5 -19.5v-67h113v-116h-113v-377h-164v377h-79v116zM620 0h-164v493h164v-493zM444 633q0 35 27 60t66 25t67 -25t28 -60t-27.5 -59t-67.5 -24q-39 0 -66 24t-27 59z" />
    <glyph glyph-name="f_l" unicode="fl" horiz-adv-x="688" 
d="M29 493h79v67q0 79 51.5 115t124.5 36q71 0 101 -10l-10 -119q-40 5 -68 5q-16 0 -25.5 -7.5t-9.5 -19.5v-67h113v-116h-113v-377h-164v377h-79v116zM620 0h-164v700h164v-700z" />
    <glyph glyph-name="f_f_i" unicode="ffi" horiz-adv-x="1022" 
d="M607 560v-67h113v-116h-113v-377h-164v377h-171v-377h-164v377h-79v116h79v67q0 79 51.5 115t124.5 36q71 0 101 -10l-10 -119q-40 5 -68 5q-16 0 -25.5 -7.5t-9.5 -19.5v-67h171v67q0 79 51.5 115t124.5 36q71 0 101 -10l-10 -119q-38 5 -68 5q-16 0 -25.5 -7.5
t-9.5 -19.5zM955 0h-164v493h164v-493zM779 633q0 35 27 60t66 25t67 -25t28 -60t-27.5 -59t-67.5 -24q-39 0 -66 24t-27 59z" />
    <glyph glyph-name="f_f_l" unicode="ffl" horiz-adv-x="1023" 
d="M607 560v-67h113v-116h-113v-377h-164v377h-171v-377h-164v377h-79v116h79v67q0 79 51.5 115t124.5 36q71 0 101 -10l-10 -119q-40 5 -68 5q-16 0 -25.5 -7.5t-9.5 -19.5v-67h171v67q0 79 51.5 115t124.5 36q71 0 101 -10l-10 -119q-38 5 -68 5q-16 0 -25.5 -7.5
t-9.5 -19.5zM955 0h-164v700h164v-700z" />
    <glyph glyph-name="f_j" unicode="fj" horiz-adv-x="687" 
d="M29 493h79v67q0 79 51.5 115t124.5 36q71 0 101 -10l-10 -119q-40 5 -68 5q-16 0 -25.5 -7.5t-9.5 -19.5v-67h113v-116h-113v-377h-164v377h-79v116zM408 -228l-43 117q27 6 44 11.5t32 21t15 37.5v534h164v-534q0 -49 -20 -87t-52 -59t-67.5 -31t-72.5 -10zM443 633
q0 35 27 60t67 25q39 0 67 -25t28 -60t-27.5 -59t-67.5 -24t-67 24t-27 59z" />
    <glyph glyph-name="f_f_j" unicode="ffj" horiz-adv-x="1022" 
d="M607 560v-67h113v-116h-113v-377h-164v377h-171v-377h-164v377h-79v116h79v67q0 79 51.5 115t124.5 36q71 0 101 -10l-10 -119q-40 5 -68 5q-16 0 -25.5 -7.5t-9.5 -19.5v-67h171v67q0 79 51.5 115t124.5 36q71 0 101 -10l-10 -119q-38 5 -68 5q-16 0 -25.5 -7.5
t-9.5 -19.5zM743 -228l-43 117q27 6 44 11.5t32 21t15 37.5v534h164v-534q0 -49 -20 -87t-52 -59t-67.5 -31t-72.5 -10zM779 633q0 35 27 60t67 25q39 0 67 -25t28 -60t-27.5 -59t-67.5 -24t-67 24t-27 59z" />
    <glyph glyph-name="f_t" unicode="ft" horiz-adv-x="760" 
d="M609 626v-133h113v-116h-113v-224q0 -21 11.5 -29t36.5 -8q8 0 16.5 1t19.5 2t19 2l10 -119q-24 -20 -112 -20q-69 0 -117 36.5t-48 114.5v244h-173v-377h-164v377h-79v116h79v67q0 79 51.5 115t124.5 36q71 0 101 -10l-10 -119q-40 5 -68 5q-16 0 -25.5 -7.5t-9.5 -19.5
v-67h173v133h164z" />
    <glyph glyph-name="f_f_t" unicode="fft" horiz-adv-x="1095" 
d="M944 626v-133h113v-116h-113v-224q0 -21 11.5 -29t36.5 -8q8 0 16.5 1t19.5 2t19 2l10 -119q-24 -20 -112 -20q-69 0 -117 36.5t-48 114.5v244h-173v-377h-164v377h-171v-377h-164v377h-79v116h79v67q0 79 51.5 115t124.5 36q71 0 101 -10l-10 -119q-40 5 -68 5
q-16 0 -25.5 -7.5t-9.5 -19.5v-67h171v67q0 79 51.5 115t124.5 36q71 0 101 -10l-10 -119q-38 5 -68 5q-16 0 -25.5 -7.5t-9.5 -19.5v-67h173v133h164z" />
    <glyph glyph-name="t_t" unicode="tt" horiz-adv-x="783" 
d="M632 626v-133h113v-116h-113v-224q0 -21 11.5 -29t36.5 -8q9 0 17 1t19 2t19 2l10 -119q-24 -20 -112 -20q-69 0 -117 36.5t-48 114.5v244h-207v-224q0 -21 11.5 -29t36.5 -8q8 0 16.5 1t19.5 2t19 2l10 -119q-24 -20 -112 -20q-69 0 -117 36.5t-48 114.5v244h-80v116h80
v133h164v-133h207v133h164z" />
    <glyph glyph-name=".notdef" horiz-adv-x="579" 
d="M0 0v653h579v-653h-579zM289 252l-142 -160h284zM147 561l142 -160l142 160h-284zM355 326l122 -136v273zM223 326l-121 137v-273z" />
    <glyph glyph-name=".null" horiz-adv-x="233" 
 />
    <glyph glyph-name=".null" horiz-adv-x="233" 
 />
    <glyph glyph-name="nonmarkingreturn" horiz-adv-x="333" 
 />
    <glyph glyph-name="CR" unicode="&#xd;" horiz-adv-x="233" 
 />
    <glyph glyph-name="space" unicode=" " horiz-adv-x="225" 
 />
    <glyph glyph-name="exclam" unicode="!" horiz-adv-x="335" 
d="M61 81q0 40 31 68.5t76 28.5q44 0 75.5 -29t31.5 -68q0 -40 -31.5 -68t-75.5 -28q-46 0 -76.5 27.5t-30.5 68.5zM224 227h-113l-34 239v187h181v-187z" />
    <glyph glyph-name="quotedbl" unicode="&#x22;" horiz-adv-x="545" 
d="M199 337h-120l-25 186v130h171v-130zM465 337h-120l-26 186v130h172v-130z" />
    <glyph glyph-name="numbersign" unicode="#" horiz-adv-x="877" 
d="M577 618h97l-28 -149h187v-122h-209l-27 -145h178v-123h-200l-32 -176h-97l32 176h-155l-32 -176h-97l32 176h-183v123h205l27 145h-175v122h197l28 149h97l-28 -149h155zM372 347l-27 -145h155l27 145h-155z" />
    <glyph glyph-name="dollar" unicode="$" horiz-adv-x="715" 
d="M213 -119l27 116q-105 24 -201 90l89 107q80 -53 151 -75l25 108q-39 4 -68.5 9.5t-62.5 18t-54.5 30t-35.5 47t-14 67.5q0 67 41.5 111t99 60.5t128.5 16.5q14 0 40 -2l18 74h113l-22 -89q94 -21 157 -52l-90 -111q-49 23 -106 39l-22 -92q50 -5 86.5 -13.5t73 -27
t56 -52.5t19.5 -82q0 -99 -79 -148.5t-205 -49.5q-18 0 -27 1l-24 -101h-113zM495 168q0 24 -22.5 34t-77.5 17l-27 -115h13q54 0 84 17.5t30 46.5zM236 408q0 -22 24 -31.5t76 -14.5l23 100q-4 0 -12 0.5t-11 0.5q-51 0 -75.5 -16.5t-24.5 -38.5z" />
    <glyph glyph-name="percent" unicode="%" horiz-adv-x="1039" 
d="M632 605h138l-361 -605h-138zM43 442q0 73 60.5 125.5t147.5 52.5q86 0 148 -52.5t62 -125.5q0 -75 -62 -128t-148 -53q-87 0 -147.5 53t-60.5 128zM185 442q0 -28 19.5 -48.5t46.5 -20.5q28 0 48 20t20 49q0 28 -20 47.5t-48 19.5q-27 0 -46.5 -19.5t-19.5 -47.5z
M580 165q0 73 60.5 126t146.5 53t148.5 -53t62.5 -126q0 -74 -62.5 -127t-148.5 -53q-87 0 -147 52.5t-60 127.5zM721 165q0 -28 19.5 -48t46.5 -20q28 0 48.5 20t20.5 48t-20.5 48t-48.5 20q-27 0 -46.5 -20t-19.5 -48z" />
    <glyph glyph-name="ampersand" unicode="&#x26;" horiz-adv-x="794" 
d="M601 594l-63 -127q-71 29 -129 29q-25 0 -38.5 -10t-13.5 -26q0 -11 8.5 -25.5t17.5 -24.5t33 -36l125 -135q56 59 110 143l121 -58q-66 -105 -141 -182l132 -142h-206l-43 46q-97 -61 -209 -61q-43 0 -85.5 11.5t-80.5 34.5t-61.5 64.5t-23.5 94.5q0 132 155 191
q-24 38 -24 80q0 78 65.5 125.5t159.5 47.5q81 0 191 -40zM422 145l-143 153q-54 -38 -54 -94q0 -46 32.5 -66.5t70.5 -20.5q43 0 94 28z" />
    <glyph glyph-name="quotesingle" unicode="'" horiz-adv-x="280" 
d="M200 337h-120l-26 186v130h172v-130z" />
    <glyph glyph-name="parenleft" unicode="(" horiz-adv-x="409" 
d="M316 696l77 -96q-87 -52 -139 -142.5t-52 -194.5t51.5 -192.5t139.5 -141.5l-77 -96q-135 71 -210.5 183.5t-75.5 246.5t75.5 248t210.5 185z" />
    <glyph glyph-name="parenright" unicode=")" horiz-adv-x="409" 
d="M16 600l77 96q135 -71 210.5 -185t75.5 -248t-75.5 -246.5t-210.5 -183.5l-77 96q88 53 139.5 141.5t51.5 192.5t-52 194.5t-139 142.5z" />
    <glyph glyph-name="asterisk" unicode="*" horiz-adv-x="586" 
d="M193 234l-85 64l92 132l-156 59l31 95l156 -49l5 165h115l6 -163l155 47l31 -94l-156 -60l92 -132l-85 -63l-101 124z" />
    <glyph glyph-name="plus" unicode="+" horiz-adv-x="749" 
d="M61 204v135h213v178h162v-178h211v-135h-211v-178h-162v178h-213z" />
    <glyph glyph-name="comma" unicode="," horiz-adv-x="322" 
d="M83 -193l-41 86q39 12 76.5 44t37.5 70v8q-20 -5 -30 -5q-32 0 -54.5 22.5t-22.5 55.5q0 38 31 64t75 26q51 0 86.5 -40.5t35.5 -105.5q0 -46 -18 -85.5t-48.5 -66t-61.5 -44t-66 -29.5z" />
    <glyph glyph-name="hyphen" unicode="-" horiz-adv-x="417" 
d="M58 193v145h301v-145h-301z" />
    <glyph glyph-name="period" unicode="." horiz-adv-x="311" 
d="M49 81q0 40 31 68.5t75 28.5q45 0 76 -29t31 -68q0 -40 -31 -68t-76 -28t-75.5 27.5t-30.5 68.5z" />
    <glyph glyph-name="slash" unicode="/" horiz-adv-x="579" 
d="M544 653l-344 -772h-167l344 772h167z" />
    <glyph glyph-name="zero" unicode="0" horiz-adv-x="713" 
d="M41 284q0 127 92.5 215t222.5 88t223 -88t93 -215q0 -124 -93.5 -213.5t-222.5 -89.5t-222 89.5t-93 213.5zM203 284q0 -66 45 -116t108 -50q62 0 108 50t46 116q0 69 -45.5 117.5t-108.5 48.5q-64 0 -108.5 -48.5t-44.5 -117.5z" />
    <glyph glyph-name="one" unicode="1" horiz-adv-x="418" 
d="M48 359l-34 131l183 78h135v-568h-163v411z" />
    <glyph glyph-name="two" unicode="2" horiz-adv-x="607" 
d="M52 0v98q0 97 68.5 153.5t194.5 91.5q82 23 82 68q0 49 -72 49q-53 0 -97 -22.5t-99 -68.5l-84 102q51 39 81.5 59t83 38.5t110.5 18.5q98 0 168 -44t70 -132q0 -43 -16.5 -76t-50.5 -56t-66 -37.5t-81 -30.5q-128 -42 -128 -77v-5h333v-129h-497z" />
    <glyph glyph-name="three" unicode="3" horiz-adv-x="660" 
d="M256 237v118h93q31 0 48.5 13.5t17.5 34.5q0 29 -24.5 43t-54.5 14q-84 0 -187 -86l-87 100q142 113 276 113q40 0 80 -9.5t77 -28t60 -52.5t23 -78q0 -52 -64 -97q104 -45 104 -138q0 -94 -85 -148.5t-215 -54.5q-168 0 -300 120l84 101q110 -94 216 -94q59 0 98 22.5
t39 59.5q0 26 -22.5 36.5t-49.5 10.5h-127z" />
    <glyph glyph-name="four" unicode="4" horiz-adv-x="697" 
d="M662 230v-118h-97v-112h-162v112h-380v87l392 369h150v-338h97zM241 234v-4h162v154h-10z" />
    <glyph glyph-name="five" unicode="5" horiz-adv-x="657" 
d="M326 -19q-66 0 -133 16.5t-96 29t-74 35.5l64 113q121 -67 239 -67q53 0 88 23.5t35 63.5q0 67 -98 67q-74 0 -173 -55l-91 65v296h475v-127h-330v-120q73 63 158 63q93 0 162 -48t69 -140q0 -72 -45 -122t-109.5 -71.5t-140.5 -21.5z" />
    <glyph glyph-name="six" unicode="6" horiz-adv-x="663" 
d="M597 543l-64 -111q-75 29 -147 29q-75 0 -128 -44.5t-58 -122.5q90 79 196 79q107 0 168.5 -55t61.5 -129q0 -87 -76.5 -147.5t-192.5 -60.5q-128 0 -221 78t-93 214q0 142 100 228t236 86q104 0 218 -44zM368 255q-75 0 -156 -46q17 -47 56 -74t86 -27q48 0 79.5 24
t31.5 55q0 27 -23.5 47.5t-73.5 20.5z" />
    <glyph glyph-name="seven" unicode="7" horiz-adv-x="608" 
d="M40 431v137h535v-115l-297 -453h-199l295 431h-334z" />
    <glyph glyph-name="eight" unicode="8" horiz-adv-x="671" 
d="M336 -20q-118 0 -205.5 52t-87.5 139q0 98 109 147q-78 45 -78 108q0 50 42 88.5t101 56t121 17.5q60 0 117.5 -17t99.5 -57t42 -94q0 -69 -76 -102q50 -23 78.5 -60.5t28.5 -86.5q0 -87 -87.5 -139t-204.5 -52zM336 106q49 0 85.5 20t36.5 54q0 33 -37.5 51t-84.5 18
t-85 -18t-38 -51t37.5 -53.5t85.5 -20.5zM336 364q44 0 67.5 13t23.5 36q0 27 -28.5 42t-62.5 15q-35 0 -63.5 -15t-28.5 -42q0 -23 24 -36t68 -13z" />
    <glyph glyph-name="nine" unicode="9" horiz-adv-x="660" 
d="M64 25l63 111q75 -29 147 -29q75 0 127.5 44t57.5 122q-91 -78 -195 -78q-106 0 -168 55t-62 129q0 87 76.5 147.5t192.5 60.5q129 0 221.5 -78t92.5 -214q0 -142 -100 -228t-236 -86q-103 0 -217 44zM293 313q71 0 155 45q-18 48 -56 75t-86 27q-47 0 -79 -24t-32 -55
q0 -27 24 -47.5t74 -20.5z" />
    <glyph glyph-name="colon" unicode=":" horiz-adv-x="344" 
d="M66 81q0 39 30.5 67.5t75.5 28.5t76 -28.5t31 -67.5q0 -40 -31 -68t-76 -28t-75.5 27.5t-30.5 68.5zM66 399q0 41 30.5 69t75.5 28t76 -28.5t31 -68.5t-31 -67.5t-76 -27.5t-75.5 27.5t-30.5 67.5z" />
    <glyph glyph-name="semicolon" unicode=";" horiz-adv-x="336" 
d="M96 -193l-41 86q39 12 76.5 44t37.5 70v8q-20 -5 -30 -5q-32 0 -54.5 22.5t-22.5 55.5q0 38 31 64t75 26q51 0 86.5 -40.5t35.5 -105.5q0 -46 -18 -85.5t-48.5 -66t-61.5 -44t-66 -29.5zM66 399q0 41 30.5 69t75.5 28t76 -28.5t31 -68.5t-31 -67.5t-76 -27.5t-75.5 27.5
t-30.5 67.5z" />
    <glyph glyph-name="less" unicode="&#x3c;" horiz-adv-x="749" 
d="M647 523v-153l-331 -92v-12l331 -93v-152l-586 188v126z" />
    <glyph glyph-name="equal" unicode="=" horiz-adv-x="749" 
d="M61 322v137h586v-137h-586zM61 84v137h586v-137h-586z" />
    <glyph glyph-name="greater" unicode="&#x3e;" horiz-adv-x="749" 
d="M61 370v153l586 -188v-126l-586 -188v152l331 93v12z" />
    <glyph glyph-name="question" unicode="?" horiz-adv-x="568" 
d="M136 464l-100 90q30 28 51 44t54.5 36t73.5 29.5t87 9.5q94 0 156.5 -40.5t62.5 -125.5q0 -62 -33.5 -102t-94.5 -76q-47 -27 -60 -44q-18 -23 -20 -58h-159q-1 33 6.5 61t18 46.5t32.5 38t37.5 30t45.5 29.5q3 2 13 8t14 8.5t12 8.5t11.5 10t8 9.5t6 12t1.5 13.5
q0 22 -18.5 34.5t-49.5 12.5q-40 0 -76.5 -21.5t-79.5 -63.5zM144 81q0 40 31 68.5t76 28.5t76 -29t31 -68q0 -40 -31.5 -68t-75.5 -28q-45 0 -76 28t-31 68z" />
    <glyph glyph-name="at" unicode="@" horiz-adv-x="1087" 
d="M666 502h155l-83 -251q-15 -42 -15 -59q0 -30 34 -30q57 0 102.5 57.5t45.5 142.5q0 114 -84.5 187t-223.5 73q-109 0 -203 -45.5t-152 -132.5t-58 -197q0 -65 21.5 -120.5t57 -94t81.5 -65.5t96 -39.5t100 -12.5q67 0 144 21.5t136 51.5l38 -98q-58 -33 -147 -59
t-176 -26q-68 0 -136.5 17t-132.5 53t-114 87t-80 125t-30 160q0 142 78.5 254.5t204.5 171.5t272 59q196 0 318 -103.5t122 -258.5q0 -72 -29 -135t-75 -104.5t-102.5 -65t-113.5 -23.5q-118 0 -135 89q-68 -88 -143 -88q-59 0 -103 47t-44 135q0 118 75.5 203t158.5 85
q64 0 118 -82zM496 183q37 0 80 46l28 85q-9 26 -25 42.5t-34 16.5q-30 0 -60.5 -37.5t-30.5 -91.5q0 -61 42 -61z" />
    <glyph glyph-name="A" unicode="A" horiz-adv-x="751" 
d="M185 0h-185l303 653h145l303 -653h-191l-42 100h-292zM369 445l-87 -209h180l-87 209h-6z" />
    <glyph glyph-name="B" unicode="B" horiz-adv-x="795" 
d="M496 0h-403v653h388q129 0 192 -68q39 -42 39 -94q0 -78 -81 -128q114 -53 114 -160q0 -80 -61 -141q-66 -62 -188 -62zM482 274h-213v-137h213q43 0 63 20q19 19 19 48q0 28 -19 47q-22 22 -63 22zM459 516h-190v-116h190q39 0 57 18q16 16 16 40q0 23 -16 39
q-19 19 -57 19z" />
    <glyph glyph-name="C" unicode="C" horiz-adv-x="761" 
d="M640 225l106 -112q-150 -133 -341 -133q-161 0 -262.5 100.5t-101.5 246.5q0 143 101.5 244.5t257.5 101.5q88 0 174.5 -30.5t151.5 -81.5l-105 -114q-45 37 -99.5 58t-99.5 21q-89 0 -144 -58t-55 -142t56.5 -142t147.5 -58q107 0 213 99z" />
    <glyph glyph-name="D" unicode="D" horiz-adv-x="798" 
d="M394 0h-301v653h301q180 0 273 -98q87 -92 87 -228q0 -144 -92 -234q-95 -93 -268 -93zM268 147h122q85 0 130 43q53 51 53 135q0 81 -48 132q-46 49 -135 49h-122v-359z" />
    <glyph glyph-name="E" unicode="E" horiz-adv-x="709" 
d="M498 403v-141h-230v-115h405v-147h-580v653h558v-147h-383v-103h230z" />
    <glyph glyph-name="F" unicode="F" horiz-adv-x="665" 
d="M268 0h-175v653h554v-147h-379v-103h230v-141h-230v-262z" />
    <glyph glyph-name="G" unicode="G" horiz-adv-x="797" 
d="M719 558l-111 -108q-43 35 -100 55.5t-104 20.5q-80 0 -131.5 -58.5t-51.5 -141.5q0 -82 51 -140t142 -58q83 0 139 35v89h-188v136h355v-300q-67 -49 -151 -77.5t-161 -28.5q-157 0 -262.5 100.5t-105.5 244.5t105.5 245t257.5 101q164 0 316 -115z" />
    <glyph glyph-name="H" unicode="H" horiz-adv-x="799" 
d="M269 0h-176v653h176v-236h262v236h175v-653h-175v275h-262v-275z" />
    <glyph glyph-name="I" unicode="I" horiz-adv-x="361" 
d="M268 0h-175v653h175v-653z" />
    <glyph glyph-name="J" unicode="J" horiz-adv-x="653" 
d="M395 653h176v-413q0 -121 -79.5 -189.5t-207.5 -68.5q-195 0 -284 191l149 77q53 -122 134 -122q50 0 81 29.5t31 82.5v413z" />
    <glyph glyph-name="K" unicode="K" horiz-adv-x="779" 
d="M269 653v-245l257 245h222l-277 -259l317 -394h-217l-223 281l-79 -75v-206h-176v653h176z" />
    <glyph glyph-name="L" unicode="L" horiz-adv-x="652" 
d="M93 653h175v-506h367v-147h-542v653z" />
    <glyph glyph-name="M" unicode="M" horiz-adv-x="903" 
d="M810 0h-176v314h-5l-149 -243h-62l-149 243h-5v-314h-171v653h160l200 -330h2l199 330h156v-653z" />
    <glyph glyph-name="N" unicode="N" horiz-adv-x="799" 
d="M530 653h176v-653h-148l-288 355h-1v-355h-176v653h147l289 -356h1v356z" />
    <glyph glyph-name="O" unicode="O" horiz-adv-x="825" 
d="M40 328q0 143 108 244t263 101q156 0 265.5 -101t109.5 -244q0 -145 -109.5 -246.5t-265.5 -101.5t-263.5 101.5t-107.5 246.5zM221 328q0 -83 55 -142.5t135 -59.5q81 0 137 59.5t56 142.5q0 81 -56 139.5t-137 58.5q-80 0 -135 -58t-55 -140z" />
    <glyph glyph-name="P" unicode="P" horiz-adv-x="738" 
d="M268 0h-175v653h364q136 0 205 -75q54 -59 54 -137q0 -85 -64 -146q-68 -65 -195 -65h-189v-230zM467 511h-199v-139h199q34 0 52 18q22 22 22 51q0 30 -21 51q-19 19 -53 19z" />
    <glyph glyph-name="Q" unicode="Q" horiz-adv-x="825" 
d="M40 328q0 143 108 244t263 101q156 0 265.5 -101t109.5 -244q0 -80 -36.5 -150.5t-100.5 -119.5l79 -124l-156 -49l-67 106q-47 -11 -94 -11q-156 0 -263.5 101.5t-107.5 246.5zM352 231l155 50l52 -82q45 56 45 129q0 81 -56 139.5t-137 58.5q-80 0 -135 -58t-55 -140
q0 -83 55 -142.5t135 -59.5h8z" />
    <glyph glyph-name="R" unicode="R" horiz-adv-x="778" 
d="M268 0h-175v653h364q133 0 203 -73q56 -59 56 -139q0 -119 -120 -181l150 -260h-198l-125 230h-155v-230zM467 511h-199v-139h199q32 0 53 18.5t21 51.5q0 28 -19 49q-19 20 -55 20z" />
    <glyph glyph-name="S" unicode="S" horiz-adv-x="725" 
d="M651 593l-95 -122q-110 64 -221 64q-42 0 -70.5 -18t-28.5 -48q0 -15 11.5 -25.5t30 -16t42 -9t48.5 -5.5q9 -1 14 -1q34 -2 55.5 -4t57.5 -8t59.5 -14.5t52 -24t45 -35t28 -49.5t11.5 -67q0 -117 -83.5 -173.5t-216.5 -56.5q-197 0 -362 121l94 119q145 -103 265 -103
q59 0 93.5 22.5t34.5 55.5q0 32 -33.5 44.5t-106.5 18.5q-41 3 -64 5.5t-61.5 9t-60.5 15t-50 23.5t-43 34.5t-25.5 49t-10.5 65.5q0 58 25 101t67 66.5t88.5 34.5t97.5 11q91 0 175 -24.5t137 -55.5z" />
    <glyph glyph-name="T" unicode="T" horiz-adv-x="652" 
d="M23 506v147h606v-147h-215v-506h-175v506h-216z" />
    <glyph glyph-name="U" unicode="U" horiz-adv-x="777" 
d="M520 653h175v-415q0 -121 -85 -189.5t-222 -68.5q-133 0 -219.5 69t-86.5 189v415h176v-415q0 -53 37.5 -82.5t92.5 -29.5q59 0 95.5 29.5t36.5 82.5v415z" />
    <glyph glyph-name="V" unicode="V" horiz-adv-x="745" 
d="M559 653h189l-303 -653h-145l-303 653h195l180 -437h6z" />
    <glyph glyph-name="W" unicode="W" horiz-adv-x="991" 
d="M22 653h188l105 -377h6l113 377h129l112 -377h6l105 377h183l-209 -653h-159l-103 340h-6l-102 -340h-160z" />
    <glyph glyph-name="X" unicode="X" horiz-adv-x="769" 
d="M540 653h210l-258 -313l269 -340h-217l-162 213l-170 -213h-211l277 335l-250 318h216l145 -191z" />
    <glyph glyph-name="Y" unicode="Y" horiz-adv-x="660" 
d="M464 653h205l-251 -357v-296h-176v296l-252 357h214l131 -201z" />
    <glyph glyph-name="Z" unicode="Z" horiz-adv-x="687" 
d="M634 147v-147h-591v99l339 407h-320v147h572v-99l-338 -407h338z" />
    <glyph glyph-name="bracketleft" unicode="[" horiz-adv-x="397" 
d="M360 -39v-114h-286v842h286v-114h-124v-614h124z" />
    <glyph glyph-name="backslash" unicode="\" horiz-adv-x="583" 
d="M390 -119l-344 772h167l344 -772h-167z" />
    <glyph glyph-name="bracketright" unicode="]" horiz-adv-x="397" 
d="M37 -153v114h124v614h-124v114h286v-842h-286z" />
    <glyph glyph-name="asciicircum" unicode="^" horiz-adv-x="749" 
d="M238 203h-180l226 410h145l222 -410h-179l-112 218h-8z" />
    <glyph glyph-name="underscore" unicode="_" horiz-adv-x="606" 
d="M-6 -207v107h618v-107h-618z" />
    <glyph glyph-name="grave" unicode="`" 
d="M87 700h150l100 -146h-140z" />
    <glyph glyph-name="a" unicode="a" horiz-adv-x="592" 
d="M115 355l-45 112q106 42 226 42q98 0 164.5 -37t66.5 -116v-252q0 -47 15 -104h-160q-5 20 -11 52q-32 -33 -62 -49t-82 -16q-89 0 -143 47.5t-54 118.5q0 73 56 120.5t149 47.5q77 0 129 -42v44q0 31 -23 47.5t-62 16.5q-68 0 -164 -32zM263 96q59 0 101 40v45
q-32 34 -92 34q-40 0 -60 -18t-20 -45t19 -41.5t52 -14.5z" />
    <glyph glyph-name="b" unicode="b" horiz-adv-x="636" 
d="M213 0h-156q13 69 13 146v554h164v-246q63 55 127 55q100 0 169 -72t69 -188q0 -115 -69 -188.5t-169 -73.5q-77 0 -143 63zM332 374q-48 0 -98 -42v-170q49 -41 98 -41q39 0 66 36t27 92q0 58 -26 91.5t-67 33.5z" />
    <glyph glyph-name="c" unicode="c" horiz-adv-x="553" 
d="M531 423l-96 -107q-62 58 -113 58q-49 0 -81.5 -33.5t-32.5 -91.5q0 -55 35 -92.5t84 -37.5t118 65l95 -98q-29 -33 -90.5 -67t-142.5 -34q-112 0 -191.5 74.5t-79.5 189.5q0 117 76.5 188.5t189.5 71.5q127 0 229 -86z" />
    <glyph glyph-name="d" unicode="d" horiz-adv-x="636" 
d="M579 0h-156l-5 50q-66 -63 -143 -63q-100 0 -169 73.5t-69 188.5q0 116 69 188t169 72q64 0 127 -55v246h164v-554q0 -77 13 -146zM304 374q-41 0 -67 -33.5t-26 -91.5q0 -56 27 -92t66 -36q49 0 98 41v170q-50 42 -98 42z" />
    <glyph glyph-name="e" unicode="e" horiz-adv-x="583" 
d="M469 143l57 -103q-42 -24 -103.5 -39.5t-118.5 -15.5q-126 0 -197 74.5t-71 183.5q0 113 76 189.5t191 76.5q65 0 118.5 -24.5t90.5 -83t37 -144.5q0 -17 -3 -53h-352q12 -44 47 -69.5t86 -25.5q70 0 142 34zM306 392q-88 0 -111 -92h198q0 42 -27.5 67t-59.5 25z" />
    <glyph glyph-name="f" unicode="f" horiz-adv-x="389" 
d="M29 493h79v67q0 79 51.5 115t124.5 36q71 0 101 -10l-10 -119q-40 5 -68 5q-16 0 -25.5 -7.5t-9.5 -19.5v-67h113v-116h-113v-377h-164v377h-79v116z" />
    <glyph glyph-name="g" unicode="g" horiz-adv-x="635" 
d="M401 -30v81q-61 -54 -127 -54q-99 0 -168 70t-69 179q0 119 68 191t169 72q36 0 75.5 -19t67.5 -46q3 31 8 52h153q-13 -69 -13 -146v-370q0 -90 -69 -148.5t-194 -58.5q-144 0 -242 78l79 93q81 -46 163 -46q47 0 73 20.5t26 51.5zM303 131q47 0 98 41v160
q-47 42 -98 42q-40 0 -66.5 -34.5t-26.5 -93.5q0 -49 27.5 -82t65.5 -33z" />
    <glyph glyph-name="h" unicode="h" horiz-adv-x="613" 
d="M231 0h-163v700h164v-250q69 59 140 59q80 0 129 -50.5t49 -129.5v-329h-164v319q0 23 -18 39t-45 16q-25 0 -51 -15t-41 -34v-325z" />
    <glyph glyph-name="i" unicode="i" horiz-adv-x="300" 
d="M232 0h-164v493h164v-493zM56 633q0 35 27 60t66 25t67 -25t28 -60t-27.5 -59t-67.5 -24q-39 0 -66 24t-27 59z" />
    <glyph glyph-name="j" unicode="j" horiz-adv-x="300" 
d="M20 -228l-43 117q27 6 44 11.5t32 21t15 37.5v534h164v-534q0 -49 -20 -87t-52 -59t-67.5 -31t-72.5 -10zM55 633q0 35 27 60t67 25q39 0 67 -25t28 -60t-27.5 -59t-67.5 -24t-67 24t-27 59z" />
    <glyph glyph-name="k" unicode="k" horiz-adv-x="597" 
d="M377 493h211l-192 -181l203 -312h-202l-117 203l-48 -45v-158h-164v700h164v-354z" />
    <glyph glyph-name="l" unicode="l" horiz-adv-x="300" 
d="M232 0h-164v700h164v-700z" />
    <glyph glyph-name="m" unicode="m" horiz-adv-x="899" 
d="M535 326v-326h-165v319q0 23 -18 39t-45 16q-39 0 -74 -48v-326h-163v350q0 60 -16 143h151l8 -56q76 72 156 72q41 0 74.5 -20t52.5 -55q29 33 76 54t96 21q73 0 120.5 -51t47.5 -129v-329h-164v319q0 24 -19 39.5t-45 15.5q-42 0 -73 -48z" />
    <glyph glyph-name="n" unicode="n" horiz-adv-x="615" 
d="M54 493h150q0 -1 4 -23.5t5 -32.5q65 72 168 72q71 0 121 -51.5t50 -128.5v-329h-164v319q0 24 -17.5 39.5t-45.5 15.5q-43 0 -92 -49v-325h-163v349q0 61 -16 144z" />
    <glyph glyph-name="o" unicode="o" horiz-adv-x="623" 
d="M36 249q0 112 76.5 186t198.5 74t199 -74t77 -186q0 -111 -77.5 -187.5t-198.5 -76.5t-198 76.5t-77 187.5zM203 249q0 -54 29.5 -92t78.5 -38q50 0 80 38.5t30 91.5q0 55 -29.5 90t-80.5 35q-50 0 -79 -35t-29 -90z" />
    <glyph glyph-name="p" unicode="p" horiz-adv-x="636" 
d="M57 493h156l3 -54q70 70 145 70q101 0 169.5 -71.5t68.5 -189.5q0 -114 -69.5 -187.5t-168.5 -73.5q-73 0 -128 52v-246h-163v557q0 74 -13 143zM332 121q39 0 66 36.5t27 90.5q0 58 -27 92t-66 34q-51 0 -98 -42v-172q50 -39 98 -39z" />
    <glyph glyph-name="q" unicode="q" horiz-adv-x="636" 
d="M423 493h156q-13 -69 -13 -143v-557h-163v246q-55 -52 -128 -52q-99 0 -168.5 73.5t-69.5 187.5q0 118 68.5 189.5t169.5 71.5q75 0 145 -70zM304 121q48 0 98 39v172q-47 42 -98 42q-39 0 -66 -34t-27 -92q0 -54 27 -90.5t66 -36.5z" />
    <glyph glyph-name="r" unicode="r" horiz-adv-x="417" 
d="M298 355q-17 0 -29 -8.5t-35 -33.5v-313h-164v350q0 54 -16 143h149q1 -4 5 -29t5 -35q46 80 116 80q50 0 83 -19l-44 -149q-5 1 -19.5 5t-28 6.5t-22.5 2.5z" />
    <glyph glyph-name="s" unicode="s" horiz-adv-x="558" 
d="M502 463l-54 -111q-94 39 -174 39q-63 0 -63 -37q0 -16 11.5 -24t23.5 -9.5t39 -2.5q35 -2 60 -4.5t62 -12t60 -25.5t40 -45.5t17 -70.5q0 -85 -66 -131t-171 -46q-133 0 -256 75l54 111q41 -26 100.5 -46t106.5 -20q69 0 69 43q0 38 -79 43q-35 2 -48.5 3t-44.5 5.5
t-45.5 10t-36 16.5t-31.5 25.5t-18 37t-8 50.5q0 90 63.5 132t152.5 42q58 0 127.5 -15.5t108.5 -32.5z" />
    <glyph glyph-name="t" unicode="t" horiz-adv-x="412" 
d="M261 626v-133h113v-116h-113v-224q0 -21 11.5 -29t36.5 -8q8 0 16.5 1t19.5 2t19 2l10 -119q-24 -20 -112 -20q-69 0 -117 36.5t-48 114.5v244h-80v116h80v133h164z" />
    <glyph glyph-name="u" unicode="u" horiz-adv-x="615" 
d="M561 0h-154l-5 56q-65 -72 -168 -72q-71 0 -121 51.5t-50 128.5v329h164v-319q0 -24 17.5 -39.5t45.5 -15.5q43 0 92 49v325h163v-349q0 -61 16 -144z" />
    <glyph glyph-name="v" unicode="v" horiz-adv-x="560" 
d="M385 493h170l-211 -493h-129l-210 493h179l95 -276h6z" />
    <glyph glyph-name="w" unicode="w" horiz-adv-x="801" 
d="M331 493h144l76 -277h6l59 277h163l-151 -493h-149l-76 268h-6l-76 -268h-149l-150 493h168l58 -277h6z" />
    <glyph glyph-name="x" unicode="x" horiz-adv-x="616" 
d="M397 493h201l-192 -240l202 -253h-200l-100 135l-99 -135h-201l202 252l-192 241h203l87 -123z" />
    <glyph glyph-name="y" unicode="y" horiz-adv-x="550" 
d="M284 247h6l107 246h169l-328 -700h-171l131 264l-193 436h181z" />
    <glyph glyph-name="z" unicode="z" horiz-adv-x="537" 
d="M491 126v-126h-453v88l226 279h-208v126h435v-89l-226 -278h226z" />
    <glyph glyph-name="braceleft" unicode="{" horiz-adv-x="418" 
d="M382 -154q-157 0 -209 33t-52 139v141q0 60 -97 60v112q39 0 68 18t29 47v120q0 106 53.5 140t207.5 34v-114q-58 0 -78 -10t-20 -40v-130q0 -37 -27 -66.5t-72 -48.5v-2q98 -30 98 -120v-151q0 -29 20 -38.5t79 -9.5v-114z" />
    <glyph glyph-name="bar" unicode="|" horiz-adv-x="342" 
d="M85 -307v1212h157v-1212h-157z" />
    <glyph glyph-name="braceright" unicode="}" horiz-adv-x="418" 
d="M36 -154v114q59 0 79 9.5t20 38.5v151q0 90 98 120v2q-45 19 -72 48.5t-27 66.5v130q0 30 -20 40t-78 10v114q154 0 207.5 -34t53.5 -140v-120q0 -29 29 -47t68 -18v-112q-97 0 -97 -60v-141q0 -106 -52 -139t-209 -33z" />
    <glyph glyph-name="asciitilde" unicode="~" horiz-adv-x="749" 
d="M136 171l-122 78q64 72 116.5 107.5t108.5 35.5q20 0 39.5 -4t32.5 -8.5t29 -13.5t22 -13.5t19 -14.5t14 -11q46 -37 67 -37q31 0 109 82l124 -77q-129 -148 -236 -148q-20 0 -39.5 4t-32.5 8.5t-29 13.5t-22 13.5t-19 14.5t-14 11q-46 37 -67 37q-24 0 -100 -78z" />
    <glyph glyph-name="nbspace" unicode="&#xa0;" horiz-adv-x="225" 
 />
    <glyph glyph-name="exclamdown" unicode="&#xa1;" horiz-adv-x="333" 
d="M261 399q0 -40 -31 -68.5t-76 -28.5q-44 0 -75.5 29t-31.5 68q0 40 31.5 68t75.5 28q46 0 76.5 -27.5t30.5 -68.5zM98 253h113l34 -239v-187h-181v187z" />
    <glyph glyph-name="cent" unicode="&#xa2;" horiz-adv-x="615" 
d="M210 -119l26 117q-86 23 -140 85.5t-54 147.5q0 109 79.5 175.5t198.5 66.5q14 0 22 -1l13 57h113l-18 -78q63 -23 112 -59l-94 -103q-35 24 -56 35l-47 -207q52 9 113 58l93 -94q-27 -28 -87 -58.5t-138 -35.5l-23 -106h-113zM211 231q0 -32 17.5 -58.5t47.5 -41.5
l47 211q-50 -5 -81 -34t-31 -77z" />
    <glyph glyph-name="sterling" unicode="&#xa3;" horiz-adv-x="700" 
d="M50 261v85h130v70q0 83 68.5 127t162.5 44q107 0 237 -54l-64 -116q-95 43 -163 43q-29 0 -50.5 -20t-21.5 -58v-36h186v-85h-186v-28q0 -49 -19.5 -73t-66.5 -32h385v-128h-598v128h39q53 0 72 20.5t19 84.5v28h-130z" />
    <glyph glyph-name="currency" unicode="&#xa4;" horiz-adv-x="789" 
d="M743 49l-107 -107l-86 79q-73 -41 -157 -41t-155 41l-85 -79l-107 107l83 77q-40 65 -40 143t40 143l-83 77l107 107l85 -79q71 41 155 41t157 -42l86 80l107 -107l-84 -78q41 -66 41 -142q0 -77 -41 -143zM261 269q0 -61 38.5 -104.5t93.5 -43.5t95 43.5t40 104.5
t-40 104.5t-95 43.5t-93.5 -43.5t-38.5 -104.5z" />
    <glyph glyph-name="yen" unicode="&#xa5;" horiz-adv-x="766" 
d="M54 315v76h142l-134 177h204l121 -171l119 171h196l-135 -177h146v-76h-203l-43 -57h246v-75h-247v-183h-168v183h-244v75h243l-43 57h-200z" />
    <glyph glyph-name="brokenbar" unicode="&#xa6;" horiz-adv-x="342" 
d="M85 385v412h157v-412h-157zM85 -227v419h157v-419h-157z" />
    <glyph glyph-name="section" unicode="&#xa7;" horiz-adv-x="695" 
d="M652 222q0 -70 -58 -121q-18 -16 -36 -26q8 -13 11 -22q8 -22 8 -46q0 -57 -37 -97t-88 -56t-108 -16q-115 0 -219 53l63 102q101 -40 159 -40q64 0 64 34q0 10 -7 17q-15 16 -113 29q-140 18 -206 78q-44 41 -44 94q0 63 53 114q16 16 41 31l-9 18q-10 21 -10 51
q0 57 37.5 97t88.5 56t109 16q118 0 227 -53l-62 -102q-107 40 -169 40q-64 0 -64 -33q0 -12 8 -17q15 -11 111 -25q149 -22 212 -87q38 -40 38 -89zM366 266q-105 13 -129 20q-13 -10 -23 -24q-15 -20 -15 -37t13 -30q22 -21 116 -31q80 -8 129 -22q12 9 19 17q18 21 18 43
q0 16 -12 28q-26 26 -116 36z" />
    <glyph glyph-name="dieresis" unicode="&#xa8;" 
d="M279 633q0 32 24 54.5t60 22.5t61 -22.5t25 -54.5q0 -31 -25 -53t-61 -22t-60 21.5t-24 53.5zM42 633q0 32 24 54.5t60 22.5t61 -22.5t25 -54.5q0 -31 -25 -53t-61 -22t-60 21.5t-24 53.5z" />
    <glyph glyph-name="copyright" unicode="&#xa9;" horiz-adv-x="1068" 
d="M760 452l-63 -109q-67 43 -125 43q-54 0 -87.5 -33.5t-33.5 -83.5q0 -46 36 -74.5t89 -28.5t129 33l59 -104q-98 -59 -211 -59q-116 0 -195 65t-79 168q0 105 75 175.5t196 70.5q107 0 210 -63zM536 731q202 0 346 -135t144 -327q0 -127 -66 -233.5t-178.5 -168
t-245.5 -61.5q-134 0 -247.5 61.5t-180 168t-66.5 233.5q0 126 66.5 232.5t180 168t247.5 61.5zM536 623q-152 0 -264 -105.5t-112 -248.5q0 -147 111 -250.5t265 -103.5q157 0 265 102.5t108 251.5q0 145 -109 249.5t-264 104.5z" />
    <glyph glyph-name="ordfeminine" unicode="&#xaa;" horiz-adv-x="469" 
d="M92 483l-35 83q84 31 176 31q76 0 128.5 -27.5t52.5 -86.5v-186q0 -37 11 -77h-124q-5 14 -9 38q-17 -16 -28.5 -24.5t-33.5 -16t-50 -7.5q-70 0 -112 35t-42 88q0 54 43.5 89.5t116.5 35.5q61 0 101 -32v33q0 47 -67 47q-49 0 -128 -23zM208 291q47 0 79 30v33
q-25 25 -72 25q-32 0 -47.5 -13.5t-15.5 -33.5q0 -19 15 -30t41 -11z" />
    <glyph glyph-name="guillemotleft" unicode="&#xab;" horiz-adv-x="650" 
d="M144 417h175l-130 -156v-8l130 -154h-175l-104 128v61zM293 253v8l126 156h175l-130 -156v-8l130 -154h-175z" />
    <glyph glyph-name="logicalnot" unicode="&#xac;" horiz-adv-x="749" 
d="M647 114h-162v182h-424v136h586v-318z" />
    <glyph glyph-name="registered" unicode="&#xae;" horiz-adv-x="630" 
d="M313 189q-112 0 -189 71.5t-77 173.5t77 175.5t189 73.5t191 -73.5t79 -175.5t-78.5 -173.5t-191.5 -71.5zM272 321h-70v245h152q41 0 68.5 -23.5t27.5 -59.5q0 -50 -50 -68l58 -94h-81l-47 81h-58v-81zM349 513h-77v-57h77q13 0 21.5 9t8.5 19q0 11 -8.5 20t-21.5 9z
M314 242q89 0 150.5 56.5t61.5 136.5t-62 138.5t-150 58.5t-149.5 -58t-61.5 -139t61 -137t150 -56z" />
    <glyph glyph-name="macron" unicode="&#xaf;" 
d="M108 674h276v-106h-276v106z" />
    <glyph glyph-name="degree" unicode="&#xb0;" horiz-adv-x="505" 
d="M38 443q0 79 62.5 135.5t151.5 56.5q88 0 152 -56.5t64 -135.5q0 -80 -64 -137t-152 -57q-90 0 -152 56.5t-62 137.5zM182 443q0 -31 20.5 -54t49.5 -23q30 0 51 22.5t21 54.5t-21 54t-51 22q-29 0 -49.5 -22.5t-20.5 -53.5z" />
    <glyph glyph-name="plusminus" unicode="&#xb1;" horiz-adv-x="749" 
d="M61 331v137h213v146h162v-146h211v-137h-211v-146h-162v146h-213zM61 0v136h586v-136h-586z" />
    <glyph glyph-name="two.superior" unicode="&#xb2;" horiz-adv-x="491" 
d="M103 496l-71 82q41 30 67 46t69.5 29.5t91.5 13.5q81 0 138.5 -34t57.5 -102q0 -32 -13 -57t-40 -42.5t-54 -29t-67 -24.5q-104 -33 -104 -50v-4h270v-104h-409v77q0 74 56 117.5t161 70.5q62 17 62 47q0 34 -54 34q-43 0 -79 -17.5t-82 -52.5z" />
    <glyph glyph-name="three.superior" unicode="&#xb3;" horiz-adv-x="534" 
d="M206 398v95h75q26 0 40 9.5t14 23.5q0 20 -19 30t-42 10q-67 0 -152 -65l-74 82q117 84 227 84q46 0 89 -11.5t76.5 -42.5t33.5 -75q0 -36 -53 -71q85 -38 85 -106q0 -71 -70.5 -113t-176.5 -42q-139 0 -246 91l71 81q90 -71 175 -71q47 0 77.5 16t30.5 42q0 33 -56 33
h-105z" />
    <glyph glyph-name="acute" unicode="&#xb4;" 
d="M255 700h150l-110 -146h-140z" />
    <glyph glyph-name="mu" unicode="&#xb5;" horiz-adv-x="631" 
d="M566 0h-154l-5 56q-65 -72 -168 -72h-7v-191h-164v700h164v-319q0 -24 17.5 -39.5t45.5 -15.5q43 0 92 49v325h163v-349q0 -61 16 -144z" />
    <glyph glyph-name="mu" unicode="&#x3bc;" horiz-adv-x="631" 
d="M566 0h-154l-5 56q-65 -72 -168 -72h-7v-191h-164v700h164v-319q0 -24 17.5 -39.5t45.5 -15.5q43 0 92 49v325h163v-349q0 -61 16 -144z" />
    <glyph glyph-name="paragraph" unicode="&#xb6;" horiz-adv-x="923" 
d="M575 -207h-153v453h-145q-35 0 -67.5 7t-64 23t-55 39.5t-37.5 59t-14 78.5q0 200 238 200h555v-860h-153v726h-104v-726zM201 453q0 -36 23 -54.5t53 -18.5h145v139h-145q-31 0 -53.5 -15t-22.5 -51z" />
    <glyph glyph-name="periodcentered" unicode="&#xb7;" horiz-adv-x="749" 
d="M239 272q0 40 33 69.5t82 29.5q48 0 81.5 -29.5t33.5 -69.5q0 -42 -33 -70.5t-82 -28.5t-82 28.5t-33 70.5z" />
    <glyph glyph-name="cedilla" unicode="&#xb8;" 
d="M222 30h115l-22 -40q41 -19 58 -37q26 -26 26 -66q0 -51 -50 -82.5t-130 -31.5q-49 0 -134 20l23 85q77 -11 96 -11q53 0 53 29q0 14 -15.5 24t-30 12.5t-24.5 2.5h-3v25z" />
    <glyph glyph-name="one.superior" unicode="&#xb9;" horiz-adv-x="342" 
d="M31 487l-29 106l152 60h113v-433h-139v304z" />
    <glyph glyph-name="ordmasculine" unicode="&#xba;" horiz-adv-x="490" 
d="M30 404q0 83 60 138t155 55q94 0 154.5 -55t60.5 -138q0 -82 -60.5 -138.5t-154.5 -56.5t-154.5 56.5t-60.5 138.5zM160 404q0 -40 23 -68t62 -28q38 0 61.5 28.5t23.5 67.5q0 41 -23 67t-62 26q-40 0 -62.5 -26t-22.5 -67z" />
    <glyph glyph-name="guillemotright" unicode="&#xbb;" horiz-adv-x="650" 
d="M331 417h175l104 -129v-61l-104 -128h-175l130 154v8zM357 261v-8l-126 -154h-175l130 154v8l-130 156h175z" />
    <glyph glyph-name="onequarter" unicode="&#xbc;" horiz-adv-x="1081" 
d="M29 487l-29 106l152 60h113v-433h-139v304zM559 653h140l-372 -653h-140zM1059 178v-95h-79v-83h-138v83h-308v69l318 281h128v-255h79zM718 181v-3h124v108h-8z" />
    <glyph glyph-name="onehalf" unicode="&#xbd;" horiz-adv-x="1036" 
d="M29 487l-29 106l152 60h113v-433h-139v304zM559 653h140l-372 -653h-140zM649 276l-71 82q41 30 67 46t69.5 29.5t91.5 13.5q81 0 138.5 -34t57.5 -102q0 -32 -13 -57t-40 -42.5t-54 -29t-67 -24.5q-104 -33 -104 -50v-4h270v-104h-409v77q0 74 56 117.5t161 70.5
q62 17 62 47q0 34 -54 34q-43 0 -79 -17.5t-82 -52.5z" />
    <glyph glyph-name="threequarters" unicode="&#xbe;" horiz-adv-x="1278" 
d="M205 398v95h75q26 0 40 9.5t14 23.5q0 20 -19 30t-42 10q-67 0 -152 -65l-74 82q117 84 227 84q46 0 89 -11.5t76.5 -42.5t33.5 -75q0 -36 -53 -71q85 -38 85 -106q0 -71 -70.5 -113t-176.5 -42q-139 0 -246 91l71 81q90 -71 175 -71q47 0 77.5 16t30.5 42q0 33 -56 33
h-105zM756 653h140l-372 -653h-140zM1256 178v-95h-79v-83h-138v83h-308v69l318 281h128v-255h79zM915 181v-3h124v108h-8z" />
    <glyph glyph-name="questiondown" unicode="&#xbf;" horiz-adv-x="562" 
d="M416 16l100 -90q-30 -28 -51 -44t-54.5 -36t-73.5 -29.5t-87 -9.5q-94 0 -156.5 40.5t-62.5 125.5q0 62 33.5 102t94.5 76q47 27 60 44q18 23 20 58h159q1 -33 -6.5 -61t-18 -46.5t-32.5 -38t-37.5 -30t-45.5 -29.5q-3 -2 -13 -8t-14 -8.5t-12 -8.5t-11.5 -10t-8 -9.5
t-6 -12t-1.5 -13.5q0 -22 18.5 -34.5t49.5 -12.5q40 0 76.5 21.5t79.5 63.5zM408 399q0 -40 -31 -68.5t-76 -28.5t-76 29t-31 68q0 40 31.5 68t75.5 28q45 0 76 -28t31 -68z" />
    <glyph glyph-name="Agrave" unicode="&#xc0;" horiz-adv-x="751" 
d="M185 0h-185l303 653h145l303 -653h-191l-42 100h-292zM369 445l-87 -209h180l-87 209h-6zM216 868h150l100 -146h-140z" />
    <glyph glyph-name="Aacute" unicode="&#xc1;" horiz-adv-x="751" 
d="M185 0h-185l303 653h145l303 -653h-191l-42 100h-292zM369 445l-87 -209h180l-87 209h-6zM384 868h150l-110 -146h-140z" />
    <glyph glyph-name="Acircumflex" unicode="&#xc2;" horiz-adv-x="751" 
d="M185 0h-185l303 653h145l303 -653h-191l-42 100h-292zM369 445l-87 -209h180l-87 209h-6zM301 868h148l109 -146h-128l-55 75l-55 -75h-128z" />
    <glyph glyph-name="Atilde" unicode="&#xc3;" horiz-adv-x="751" 
d="M185 0h-185l303 653h145l303 -653h-191l-42 100h-292zM369 445l-87 -209h180l-87 209h-6zM263 713l-93 50q33 59 66 84t74 25q38 0 74 -24q38 -24 49 -24q12 0 23.5 8.5t17.5 16t17 22.5l85 -46q-59 -111 -139 -111q-32 0 -68 22q-4 2 -11.5 7.5t-11 7.5t-9.5 5t-11 4.5
t-10 1.5q-7 0 -13 -2.5t-12 -9t-9.5 -11t-10 -14t-8.5 -12.5z" />
    <glyph glyph-name="Adieresis" unicode="&#xc4;" horiz-adv-x="751" 
d="M185 0h-185l303 653h145l303 -653h-191l-42 100h-292zM369 445l-87 -209h180l-87 209h-6zM408 801q0 32 24 54.5t60 22.5t61 -22.5t25 -54.5q0 -31 -25 -53t-61 -22t-60 21.5t-24 53.5zM171 801q0 32 24 54.5t60 22.5t61 -22.5t25 -54.5q0 -31 -25 -53t-61 -22t-60 21.5
t-24 53.5z" />
    <glyph glyph-name="Aring" unicode="&#xc5;" horiz-adv-x="751" 
d="M185 0h-185l303 653h145l303 -653h-191l-42 100h-292zM369 445l-87 -209h180l-87 209h-6zM227 806q0 49 38 84t107 35q68 0 106.5 -35t38.5 -84q0 -48 -38.5 -81t-106.5 -33q-69 0 -107 33t-38 81zM320 806q0 -20 15 -32t37 -12t37 12t15 32q0 22 -15 37t-37 15t-37 -15
t-15 -37z" />
    <glyph glyph-name="AE" unicode="&#xc6;" horiz-adv-x="1056" 
d="M385 653h613v-147h-383v-103h230v-141h-230v-115h405v-147h-580v100h-228l-64 -100h-185zM434 445l-134 -209h140v209h-6z" />
    <glyph glyph-name="Ccedilla" unicode="&#xc7;" horiz-adv-x="761" 
d="M640 225l106 -112q-125 -110 -284 -129q29 -14 44 -31q26 -26 26 -66q0 -51 -50 -82.5t-130 -31.5q-49 0 -134 20l23 85q77 -11 96 -11q53 0 53 29q0 14 -15.5 24t-30 12.5t-24.5 2.5h-3v25l14 26q-131 23 -210.5 118t-79.5 223q0 143 101.5 244.5t257.5 101.5
q88 0 174.5 -30.5t151.5 -81.5l-105 -114q-45 37 -99.5 58t-99.5 21q-89 0 -144 -58t-55 -142t56.5 -142t147.5 -58q107 0 213 99z" />
    <glyph glyph-name="Egrave" unicode="&#xc8;" horiz-adv-x="709" 
d="M498 403v-141h-230v-115h405v-147h-580v653h558v-147h-383v-103h230zM213 868h150l100 -146h-140z" />
    <glyph glyph-name="Eacute" unicode="&#xc9;" horiz-adv-x="709" 
d="M498 403v-141h-230v-115h405v-147h-580v653h558v-147h-383v-103h230zM381 868h150l-110 -146h-140z" />
    <glyph glyph-name="Ecircumflex" unicode="&#xca;" horiz-adv-x="709" 
d="M498 403v-141h-230v-115h405v-147h-580v653h558v-147h-383v-103h230zM298 868h148l109 -146h-128l-55 75l-55 -75h-128z" />
    <glyph glyph-name="Edieresis" unicode="&#xcb;" horiz-adv-x="709" 
d="M498 403v-141h-230v-115h405v-147h-580v653h558v-147h-383v-103h230zM405 801q0 32 24 54.5t60 22.5t61 -22.5t25 -54.5q0 -31 -25 -53t-61 -22t-60 21.5t-24 53.5zM168 801q0 32 24 54.5t60 22.5t61 -22.5t25 -54.5q0 -31 -25 -53t-61 -22t-60 21.5t-24 53.5z" />
    <glyph glyph-name="Igrave" unicode="&#xcc;" horiz-adv-x="361" 
d="M268 0h-175v653h175v-653zM22 868h150l100 -146h-140z" />
    <glyph glyph-name="Iacute" unicode="&#xcd;" horiz-adv-x="361" 
d="M268 0h-175v653h175v-653zM190 868h150l-110 -146h-140z" />
    <glyph glyph-name="Icircumflex" unicode="&#xce;" horiz-adv-x="361" 
d="M268 0h-175v653h175v-653zM107 868h148l109 -146h-128l-55 75l-55 -75h-128z" />
    <glyph glyph-name="Idieresis" unicode="&#xcf;" horiz-adv-x="361" 
d="M268 0h-175v653h175v-653zM214 801q0 32 24 54.5t60 22.5t61 -22.5t25 -54.5q0 -31 -25 -53t-61 -22t-60 21.5t-24 53.5zM-23 801q0 32 24 54.5t60 22.5t61 -22.5t25 -54.5q0 -31 -25 -53t-61 -22t-60 21.5t-24 53.5z" />
    <glyph glyph-name="Eth" unicode="&#xd0;" horiz-adv-x="828" 
d="M31 272v117h92v264h301q180 0 273 -98q87 -92 87 -228q0 -144 -92 -234q-95 -93 -268 -93h-301v272h-92zM298 147h122q85 0 130 43q53 51 53 135q0 81 -48 132q-46 49 -135 49h-122v-117h157v-117h-157v-125z" />
    <glyph glyph-name="Ntilde" unicode="&#xd1;" horiz-adv-x="799" 
d="M530 653h176v-653h-148l-288 355h-1v-355h-176v653h147l289 -356h1v356zM287 713l-93 50q33 59 66 84t74 25q38 0 74 -24q38 -24 49 -24q12 0 23.5 8.5t17.5 16t17 22.5l85 -46q-59 -111 -139 -111q-32 0 -68 22q-4 2 -11.5 7.5t-11 7.5t-9.5 5t-11 4.5t-10 1.5
q-7 0 -13 -2.5t-12 -9t-9.5 -11t-10 -14t-8.5 -12.5z" />
    <glyph glyph-name="Ograve" unicode="&#xd2;" horiz-adv-x="825" 
d="M40 328q0 143 108 244t263 101q156 0 265.5 -101t109.5 -244q0 -145 -109.5 -246.5t-265.5 -101.5t-263.5 101.5t-107.5 246.5zM221 328q0 -83 55 -142.5t135 -59.5q81 0 137 59.5t56 142.5q0 81 -56 139.5t-137 58.5q-80 0 -135 -58t-55 -140zM253 868h150l100 -146
h-140z" />
    <glyph glyph-name="Oacute" unicode="&#xd3;" horiz-adv-x="825" 
d="M40 328q0 143 108 244t263 101q156 0 265.5 -101t109.5 -244q0 -145 -109.5 -246.5t-265.5 -101.5t-263.5 101.5t-107.5 246.5zM221 328q0 -83 55 -142.5t135 -59.5q81 0 137 59.5t56 142.5q0 81 -56 139.5t-137 58.5q-80 0 -135 -58t-55 -140zM421 868h150l-110 -146
h-140z" />
    <glyph glyph-name="Ocircumflex" unicode="&#xd4;" horiz-adv-x="825" 
d="M40 328q0 143 108 244t263 101q156 0 265.5 -101t109.5 -244q0 -145 -109.5 -246.5t-265.5 -101.5t-263.5 101.5t-107.5 246.5zM221 328q0 -83 55 -142.5t135 -59.5q81 0 137 59.5t56 142.5q0 81 -56 139.5t-137 58.5q-80 0 -135 -58t-55 -140zM338 868h148l109 -146
h-128l-55 75l-55 -75h-128z" />
    <glyph glyph-name="Otilde" unicode="&#xd5;" horiz-adv-x="825" 
d="M40 328q0 143 108 244t263 101q156 0 265.5 -101t109.5 -244q0 -145 -109.5 -246.5t-265.5 -101.5t-263.5 101.5t-107.5 246.5zM221 328q0 -83 55 -142.5t135 -59.5q81 0 137 59.5t56 142.5q0 81 -56 139.5t-137 58.5q-80 0 -135 -58t-55 -140zM300 713l-93 50
q33 59 66 84t74 25q38 0 74 -24q38 -24 49 -24q12 0 23.5 8.5t17.5 16t17 22.5l85 -46q-59 -111 -139 -111q-32 0 -68 22q-4 2 -11.5 7.5t-11 7.5t-9.5 5t-11 4.5t-10 1.5q-7 0 -13 -2.5t-12 -9t-9.5 -11t-10 -14t-8.5 -12.5z" />
    <glyph glyph-name="Odieresis" unicode="&#xd6;" horiz-adv-x="825" 
d="M40 328q0 143 108 244t263 101q156 0 265.5 -101t109.5 -244q0 -145 -109.5 -246.5t-265.5 -101.5t-263.5 101.5t-107.5 246.5zM221 328q0 -83 55 -142.5t135 -59.5q81 0 137 59.5t56 142.5q0 81 -56 139.5t-137 58.5q-80 0 -135 -58t-55 -140zM445 801q0 32 24 54.5
t60 22.5t61 -22.5t25 -54.5q0 -31 -25 -53t-61 -22t-60 21.5t-24 53.5zM208 801q0 32 24 54.5t60 22.5t61 -22.5t25 -54.5q0 -31 -25 -53t-61 -22t-60 21.5t-24 53.5z" />
    <glyph glyph-name="multiply" unicode="&#xd7;" horiz-adv-x="749" 
d="M57 428l108 102l190 -163l190 163l105 -102l-183 -156l185 -158l-108 -101l-191 162l-190 -162l-105 100l184 157z" />
    <glyph glyph-name="Oslash" unicode="&#xd8;" horiz-adv-x="825" 
d="M615 719l97 -66l-49 -70q58 -48 90.5 -114.5t32.5 -140.5q0 -145 -109.5 -246.5t-265.5 -101.5q-81 0 -151 29l-52 -75l-97 66l49 70q-120 104 -120 258q0 143 108 244t263 101q81 0 151 -29zM604 328q0 65 -38 117l-216 -309q27 -10 61 -10q81 0 137 59.5t56 142.5z
M221 328q0 -67 36 -119l215 307q-32 10 -61 10q-80 0 -135 -58t-55 -140z" />
    <glyph glyph-name="Ugrave" unicode="&#xd9;" horiz-adv-x="777" 
d="M520 653h175v-415q0 -121 -85 -189.5t-222 -68.5q-133 0 -219.5 69t-86.5 189v415h176v-415q0 -53 37.5 -82.5t92.5 -29.5q59 0 95.5 29.5t36.5 82.5v415zM229 868h150l100 -146h-140z" />
    <glyph glyph-name="Uacute" unicode="&#xda;" horiz-adv-x="777" 
d="M520 653h175v-415q0 -121 -85 -189.5t-222 -68.5q-133 0 -219.5 69t-86.5 189v415h176v-415q0 -53 37.5 -82.5t92.5 -29.5q59 0 95.5 29.5t36.5 82.5v415zM397 868h150l-110 -146h-140z" />
    <glyph glyph-name="Ucircumflex" unicode="&#xdb;" horiz-adv-x="777" 
d="M520 653h175v-415q0 -121 -85 -189.5t-222 -68.5q-133 0 -219.5 69t-86.5 189v415h176v-415q0 -53 37.5 -82.5t92.5 -29.5q59 0 95.5 29.5t36.5 82.5v415zM314 868h148l109 -146h-128l-55 75l-55 -75h-128z" />
    <glyph glyph-name="Udieresis" unicode="&#xdc;" horiz-adv-x="777" 
d="M520 653h175v-415q0 -121 -85 -189.5t-222 -68.5q-133 0 -219.5 69t-86.5 189v415h176v-415q0 -53 37.5 -82.5t92.5 -29.5q59 0 95.5 29.5t36.5 82.5v415zM421 801q0 32 24 54.5t60 22.5t61 -22.5t25 -54.5q0 -31 -25 -53t-61 -22t-60 21.5t-24 53.5zM184 801
q0 32 24 54.5t60 22.5t61 -22.5t25 -54.5q0 -31 -25 -53t-61 -22t-60 21.5t-24 53.5z" />
    <glyph glyph-name="Yacute" unicode="&#xdd;" horiz-adv-x="660" 
d="M464 653h205l-251 -357v-296h-176v296l-252 357h214l131 -201zM339 868h150l-110 -146h-140z" />
    <glyph glyph-name="Thorn" unicode="&#xde;" horiz-adv-x="758" 
d="M93 653h175v-115h209q136 0 205 -75q54 -59 54 -137q0 -85 -64 -146q-68 -65 -195 -65h-209v-115h-175v653zM487 396h-219v-139h219q34 0 52 18q22 22 22 51q0 30 -21 51q-19 19 -53 19z" />
    <glyph glyph-name="germandbls" unicode="&#xdf;" horiz-adv-x="636" 
d="M311 -10l-10 120q66 0 102 25t36 66q0 47 -48.5 78t-92.5 36l10 119q36 7 56 31t20 55q0 34 -21.5 52t-54.5 18q-32 0 -55 -28t-23 -86v-476h-162v478q0 118 70 176t169 58q109 0 174 -47t65 -126q0 -51 -33 -87t-70 -48q53 -15 105.5 -74t52.5 -140q0 -90 -74.5 -145
t-215.5 -55z" />
    <glyph glyph-name="agrave" unicode="&#xe0;" horiz-adv-x="592" 
d="M115 355l-45 112q106 42 226 42q98 0 164.5 -37t66.5 -116v-252q0 -47 15 -104h-160q-5 20 -11 52q-32 -33 -62 -49t-82 -16q-89 0 -143 47.5t-54 118.5q0 73 56 120.5t149 47.5q77 0 129 -42v44q0 31 -23 47.5t-62 16.5q-68 0 -164 -32zM263 96q59 0 101 40v45
q-32 34 -92 34q-40 0 -60 -18t-20 -45t19 -41.5t52 -14.5zM137 700h150l100 -146h-140z" />
    <glyph glyph-name="aacute" unicode="&#xe1;" horiz-adv-x="592" 
d="M115 355l-45 112q106 42 226 42q98 0 164.5 -37t66.5 -116v-252q0 -47 15 -104h-160q-5 20 -11 52q-32 -33 -62 -49t-82 -16q-89 0 -143 47.5t-54 118.5q0 73 56 120.5t149 47.5q77 0 129 -42v44q0 31 -23 47.5t-62 16.5q-68 0 -164 -32zM263 96q59 0 101 40v45
q-32 34 -92 34q-40 0 -60 -18t-20 -45t19 -41.5t52 -14.5zM305 700h150l-110 -146h-140z" />
    <glyph glyph-name="acircumflex" unicode="&#xe2;" horiz-adv-x="592" 
d="M115 355l-45 112q106 42 226 42q98 0 164.5 -37t66.5 -116v-252q0 -47 15 -104h-160q-5 20 -11 52q-32 -33 -62 -49t-82 -16q-89 0 -143 47.5t-54 118.5q0 73 56 120.5t149 47.5q77 0 129 -42v44q0 31 -23 47.5t-62 16.5q-68 0 -164 -32zM263 96q59 0 101 40v45
q-32 34 -92 34q-40 0 -60 -18t-20 -45t19 -41.5t52 -14.5zM222 700h148l109 -146h-128l-55 75l-55 -75h-128z" />
    <glyph glyph-name="atilde" unicode="&#xe3;" horiz-adv-x="592" 
d="M115 355l-45 112q106 42 226 42q98 0 164.5 -37t66.5 -116v-252q0 -47 15 -104h-160q-5 20 -11 52q-32 -33 -62 -49t-82 -16q-89 0 -143 47.5t-54 118.5q0 73 56 120.5t149 47.5q77 0 129 -42v44q0 31 -23 47.5t-62 16.5q-68 0 -164 -32zM263 96q59 0 101 40v45
q-32 34 -92 34q-40 0 -60 -18t-20 -45t19 -41.5t52 -14.5zM184 544l-93 50q33 59 66 84t74 25q38 0 74 -24q38 -24 49 -24q12 0 23.5 8.5t17.5 16t17 22.5l85 -46q-59 -111 -139 -111q-32 0 -68 22q-4 2 -11.5 7.5t-11 7.5t-9.5 5t-11 4.5t-10 1.5q-7 0 -13 -2.5t-12 -9
t-9.5 -11t-10 -14t-8.5 -12.5z" />
    <glyph glyph-name="adieresis" unicode="&#xe4;" horiz-adv-x="592" 
d="M115 355l-45 112q106 42 226 42q98 0 164.5 -37t66.5 -116v-252q0 -47 15 -104h-160q-5 20 -11 52q-32 -33 -62 -49t-82 -16q-89 0 -143 47.5t-54 118.5q0 73 56 120.5t149 47.5q77 0 129 -42v44q0 31 -23 47.5t-62 16.5q-68 0 -164 -32zM263 96q59 0 101 40v45
q-32 34 -92 34q-40 0 -60 -18t-20 -45t19 -41.5t52 -14.5zM329 633q0 32 24 54.5t60 22.5t61 -22.5t25 -54.5q0 -31 -25 -53t-61 -22t-60 21.5t-24 53.5zM92 633q0 32 24 54.5t60 22.5t61 -22.5t25 -54.5q0 -31 -25 -53t-61 -22t-60 21.5t-24 53.5z" />
    <glyph glyph-name="aring" unicode="&#xe5;" horiz-adv-x="592" 
d="M115 355l-45 112q106 42 226 42q98 0 164.5 -37t66.5 -116v-252q0 -47 15 -104h-160q-5 20 -11 52q-32 -33 -62 -49t-82 -16q-89 0 -143 47.5t-54 118.5q0 73 56 120.5t149 47.5q77 0 129 -42v44q0 31 -23 47.5t-62 16.5q-68 0 -164 -32zM263 96q59 0 101 40v45
q-32 34 -92 34q-40 0 -60 -18t-20 -45t19 -41.5t52 -14.5zM148 657q0 49 38 84t107 35q68 0 106.5 -35t38.5 -84q0 -48 -38.5 -81t-106.5 -33q-69 0 -107 33t-38 81zM241 657q0 -20 15 -32t37 -12t37 12t15 32q0 22 -15 37t-37 15t-37 -15t-15 -37z" />
    <glyph glyph-name="ae" unicode="&#xe6;" horiz-adv-x="910" 
d="M796 143l57 -103q-42 -24 -103.5 -39.5t-118.5 -15.5q-129 0 -202 80q-92 -78 -202 -78q-89 0 -143 47.5t-54 118.5q0 73 56 120.5t149 47.5q77 0 129 -42v44q0 31 -23 47.5t-62 16.5q-68 0 -164 -32l-45 112q106 42 226 42q101 0 162 -51l7 -6q73 57 165 57
q65 0 118.5 -24.5t90.5 -83t37 -144.5q0 -17 -3 -53h-352q12 -44 47 -69.5t86 -25.5q70 0 142 34zM263 96q77 0 114 57q-3 8 -7 26q-39 36 -98 36q-40 0 -60 -18t-20 -45t19 -41.5t52 -14.5zM633 392q-88 0 -111 -92h198q0 42 -27.5 67t-59.5 25z" />
    <glyph glyph-name="ccedilla" unicode="&#xe7;" horiz-adv-x="553" 
d="M531 423l-96 -107q-62 58 -113 58q-49 0 -81.5 -33.5t-32.5 -91.5q0 -55 35 -92.5t84 -37.5t118 65l95 -98q-25 -28 -75 -58.5t-116 -39.5q37 -17 54 -35q26 -26 26 -66q0 -51 -50 -82.5t-130 -31.5q-49 0 -134 20l23 85q77 -11 96 -11q53 0 53 29q0 14 -15.5 24
t-30 12.5t-24.5 2.5h-3v25l19 35q-87 22 -142 90.5t-55 163.5q0 117 76.5 188.5t189.5 71.5q127 0 229 -86z" />
    <glyph glyph-name="egrave" unicode="&#xe8;" horiz-adv-x="583" 
d="M469 143l57 -103q-42 -24 -103.5 -39.5t-118.5 -15.5q-126 0 -197 74.5t-71 183.5q0 113 76 189.5t191 76.5q65 0 118.5 -24.5t90.5 -83t37 -144.5q0 -17 -3 -53h-352q12 -44 47 -69.5t86 -25.5q70 0 142 34zM306 392q-88 0 -111 -92h198q0 42 -27.5 67t-59.5 25z
M146 700h150l100 -146h-140z" />
    <glyph glyph-name="eacute" unicode="&#xe9;" horiz-adv-x="583" 
d="M469 143l57 -103q-42 -24 -103.5 -39.5t-118.5 -15.5q-126 0 -197 74.5t-71 183.5q0 113 76 189.5t191 76.5q65 0 118.5 -24.5t90.5 -83t37 -144.5q0 -17 -3 -53h-352q12 -44 47 -69.5t86 -25.5q70 0 142 34zM306 392q-88 0 -111 -92h198q0 42 -27.5 67t-59.5 25z
M314 700h150l-110 -146h-140z" />
    <glyph glyph-name="ecircumflex" unicode="&#xea;" horiz-adv-x="583" 
d="M469 143l57 -103q-42 -24 -103.5 -39.5t-118.5 -15.5q-126 0 -197 74.5t-71 183.5q0 113 76 189.5t191 76.5q65 0 118.5 -24.5t90.5 -83t37 -144.5q0 -17 -3 -53h-352q12 -44 47 -69.5t86 -25.5q70 0 142 34zM306 392q-88 0 -111 -92h198q0 42 -27.5 67t-59.5 25z
M231 700h148l109 -146h-128l-55 75l-55 -75h-128z" />
    <glyph glyph-name="edieresis" unicode="&#xeb;" horiz-adv-x="583" 
d="M469 143l57 -103q-42 -24 -103.5 -39.5t-118.5 -15.5q-126 0 -197 74.5t-71 183.5q0 113 76 189.5t191 76.5q65 0 118.5 -24.5t90.5 -83t37 -144.5q0 -17 -3 -53h-352q12 -44 47 -69.5t86 -25.5q70 0 142 34zM306 392q-88 0 -111 -92h198q0 42 -27.5 67t-59.5 25z
M338 633q0 32 24 54.5t60 22.5t61 -22.5t25 -54.5q0 -31 -25 -53t-61 -22t-60 21.5t-24 53.5zM101 633q0 32 24 54.5t60 22.5t61 -22.5t25 -54.5q0 -31 -25 -53t-61 -22t-60 21.5t-24 53.5z" />
    <glyph glyph-name="igrave" unicode="&#xec;" horiz-adv-x="300" 
d="M232 0h-164v493h164v-493zM-9 700h150l100 -146h-140z" />
    <glyph glyph-name="iacute" unicode="&#xed;" horiz-adv-x="300" 
d="M232 0h-164v493h164v-493zM159 700h150l-110 -146h-140z" />
    <glyph glyph-name="icircumflex" unicode="&#xee;" horiz-adv-x="300" 
d="M232 0h-164v493h164v-493zM76 700h148l109 -146h-128l-55 75l-55 -75h-128z" />
    <glyph glyph-name="idieresis" unicode="&#xef;" horiz-adv-x="300" 
d="M232 0h-164v493h164v-493zM183 633q0 32 24 54.5t60 22.5t61 -22.5t25 -54.5q0 -31 -25 -53t-61 -22t-60 21.5t-24 53.5zM-54 633q0 32 24 54.5t60 22.5t61 -22.5t25 -54.5q0 -31 -25 -53t-61 -22t-60 21.5t-24 53.5z" />
    <glyph glyph-name="eth" unicode="&#xf0;" horiz-adv-x="637" 
d="M134 522l-24 69l110 28q-12 8 -26 16.5t-31.5 18.5t-26.5 16l156 50q81 -52 92 -60l127 32l24 -69l-82 -21q135 -130 135 -321q0 -128 -77 -212t-199 -84q-121 0 -198 76.5t-77 187.5q0 103 68.5 171.5t176.5 68.5q65 0 115 -33q-38 56 -101 107zM204 249q0 -54 29.5 -92
t78.5 -38q50 0 80 38.5t30 91.5q0 55 -29.5 90t-80.5 35q-50 0 -79 -35t-29 -90z" />
    <glyph glyph-name="ntilde" unicode="&#xf1;" horiz-adv-x="615" 
d="M54 493h150q0 -1 4 -23.5t5 -32.5q65 72 168 72q71 0 121 -51.5t50 -128.5v-329h-164v319q0 24 -17.5 39.5t-45.5 15.5q-43 0 -92 -49v-325h-163v349q0 61 -16 144zM195 544l-93 50q33 59 66 84t74 25q38 0 74 -24q38 -24 49 -24q12 0 23.5 8.5t17.5 16t17 22.5l85 -46
q-59 -111 -139 -111q-32 0 -68 22q-4 2 -11.5 7.5t-11 7.5t-9.5 5t-11 4.5t-10 1.5q-7 0 -13 -2.5t-12 -9t-9.5 -11t-10 -14t-8.5 -12.5z" />
    <glyph glyph-name="ograve" unicode="&#xf2;" horiz-adv-x="623" 
d="M36 249q0 112 76.5 186t198.5 74t199 -74t77 -186q0 -111 -77.5 -187.5t-198.5 -76.5t-198 76.5t-77 187.5zM203 249q0 -54 29.5 -92t78.5 -38q50 0 80 38.5t30 91.5q0 55 -29.5 90t-80.5 35q-50 0 -79 -35t-29 -90zM152 700h150l100 -146h-140z" />
    <glyph glyph-name="oacute" unicode="&#xf3;" horiz-adv-x="623" 
d="M36 249q0 112 76.5 186t198.5 74t199 -74t77 -186q0 -111 -77.5 -187.5t-198.5 -76.5t-198 76.5t-77 187.5zM203 249q0 -54 29.5 -92t78.5 -38q50 0 80 38.5t30 91.5q0 55 -29.5 90t-80.5 35q-50 0 -79 -35t-29 -90zM320 700h150l-110 -146h-140z" />
    <glyph glyph-name="ocircumflex" unicode="&#xf4;" horiz-adv-x="623" 
d="M36 249q0 112 76.5 186t198.5 74t199 -74t77 -186q0 -111 -77.5 -187.5t-198.5 -76.5t-198 76.5t-77 187.5zM203 249q0 -54 29.5 -92t78.5 -38q50 0 80 38.5t30 91.5q0 55 -29.5 90t-80.5 35q-50 0 -79 -35t-29 -90zM237 700h148l109 -146h-128l-55 75l-55 -75h-128z" />
    <glyph glyph-name="otilde" unicode="&#xf5;" horiz-adv-x="623" 
d="M36 249q0 112 76.5 186t198.5 74t199 -74t77 -186q0 -111 -77.5 -187.5t-198.5 -76.5t-198 76.5t-77 187.5zM203 249q0 -54 29.5 -92t78.5 -38q50 0 80 38.5t30 91.5q0 55 -29.5 90t-80.5 35q-50 0 -79 -35t-29 -90zM199 544l-93 50q33 59 66 84t74 25q38 0 74 -24
q38 -24 49 -24q12 0 23.5 8.5t17.5 16t17 22.5l85 -46q-59 -111 -139 -111q-32 0 -68 22q-4 2 -11.5 7.5t-11 7.5t-9.5 5t-11 4.5t-10 1.5q-7 0 -13 -2.5t-12 -9t-9.5 -11t-10 -14t-8.5 -12.5z" />
    <glyph glyph-name="odieresis" unicode="&#xf6;" horiz-adv-x="623" 
d="M36 249q0 112 76.5 186t198.5 74t199 -74t77 -186q0 -111 -77.5 -187.5t-198.5 -76.5t-198 76.5t-77 187.5zM203 249q0 -54 29.5 -92t78.5 -38q50 0 80 38.5t30 91.5q0 55 -29.5 90t-80.5 35q-50 0 -79 -35t-29 -90zM344 633q0 32 24 54.5t60 22.5t61 -22.5t25 -54.5
q0 -31 -25 -53t-61 -22t-60 21.5t-24 53.5zM107 633q0 32 24 54.5t60 22.5t61 -22.5t25 -54.5q0 -31 -25 -53t-61 -22t-60 21.5t-24 53.5z" />
    <glyph glyph-name="divide" unicode="&#xf7;" horiz-adv-x="749" 
d="M61 204v135h586v-135h-586zM253 75q0 36 29.5 61.5t72.5 25.5t72.5 -25.5t29.5 -61.5q0 -37 -29 -62t-73 -25t-73 25t-29 62zM253 466q0 37 29.5 62t72.5 25t72.5 -25t29.5 -62t-29.5 -62t-72.5 -25t-72.5 25t-29.5 62z" />
    <glyph glyph-name="oslash" unicode="&#xf8;" horiz-adv-x="623" 
d="M160 -61l-87 61l42 60q-78 76 -78 189q0 112 76.5 186t198.5 74q56 0 105 -17l45 64l87 -61l-41 -58q80 -75 80 -188q0 -111 -77.5 -187.5t-198.5 -76.5q-56 0 -107 19zM312 106q55 0 88 42t33 101q0 35 -12 63l-141 -202q13 -4 32 -4zM193 249q0 -32 11 -62l137 196
q-18 4 -29 4q-55 0 -87 -39t-32 -99z" />
    <glyph glyph-name="ugrave" unicode="&#xf9;" horiz-adv-x="615" 
d="M561 0h-154l-5 56q-65 -72 -168 -72q-71 0 -121 51.5t-50 128.5v329h164v-319q0 -24 17.5 -39.5t45.5 -15.5q43 0 92 49v325h163v-349q0 -61 16 -144zM148 700h150l100 -146h-140z" />
    <glyph glyph-name="uacute" unicode="&#xfa;" horiz-adv-x="615" 
d="M561 0h-154l-5 56q-65 -72 -168 -72q-71 0 -121 51.5t-50 128.5v329h164v-319q0 -24 17.5 -39.5t45.5 -15.5q43 0 92 49v325h163v-349q0 -61 16 -144zM316 700h150l-110 -146h-140z" />
    <glyph glyph-name="ucircumflex" unicode="&#xfb;" horiz-adv-x="615" 
d="M561 0h-154l-5 56q-65 -72 -168 -72q-71 0 -121 51.5t-50 128.5v329h164v-319q0 -24 17.5 -39.5t45.5 -15.5q43 0 92 49v325h163v-349q0 -61 16 -144zM233 700h148l109 -146h-128l-55 75l-55 -75h-128z" />
    <glyph glyph-name="udieresis" unicode="&#xfc;" horiz-adv-x="615" 
d="M561 0h-154l-5 56q-65 -72 -168 -72q-71 0 -121 51.5t-50 128.5v329h164v-319q0 -24 17.5 -39.5t45.5 -15.5q43 0 92 49v325h163v-349q0 -61 16 -144zM340 633q0 32 24 54.5t60 22.5t61 -22.5t25 -54.5q0 -31 -25 -53t-61 -22t-60 21.5t-24 53.5zM103 633q0 32 24 54.5
t60 22.5t61 -22.5t25 -54.5q0 -31 -25 -53t-61 -22t-60 21.5t-24 53.5z" />
    <glyph glyph-name="yacute" unicode="&#xfd;" horiz-adv-x="550" 
d="M284 247h6l107 246h169l-328 -700h-171l131 264l-193 436h181zM293 700h150l-110 -146h-140z" />
    <glyph glyph-name="thorn" unicode="&#xfe;" horiz-adv-x="636" 
d="M68 -207v907h164v-244q62 53 127 53q101 0 169.5 -71.5t68.5 -189.5q0 -114 -69.5 -187.5t-168.5 -73.5q-73 0 -128 52v-246h-163zM330 121q39 0 66 36.5t27 90.5q0 58 -27 92t-66 34q-51 0 -98 -42v-172q50 -39 98 -39z" />
    <glyph glyph-name="ydieresis" unicode="&#xff;" horiz-adv-x="550" 
d="M284 247h6l107 246h169l-328 -700h-171l131 264l-193 436h181zM317 633q0 32 24 54.5t60 22.5t61 -22.5t25 -54.5q0 -31 -25 -53t-61 -22t-60 21.5t-24 53.5zM80 633q0 32 24 54.5t60 22.5t61 -22.5t25 -54.5q0 -31 -25 -53t-61 -22t-60 21.5t-24 53.5z" />
    <glyph glyph-name="Amacron" unicode="&#x100;" horiz-adv-x="751" 
d="M185 0h-185l303 653h145l303 -653h-191l-42 100h-292zM369 445l-87 -209h180l-87 209h-6zM237 842h276v-106h-276v106z" />
    <glyph glyph-name="amacron" unicode="&#x101;" horiz-adv-x="592" 
d="M115 355l-45 112q106 42 226 42q98 0 164.5 -37t66.5 -116v-252q0 -47 15 -104h-160q-5 20 -11 52q-32 -33 -62 -49t-82 -16q-89 0 -143 47.5t-54 118.5q0 73 56 120.5t149 47.5q77 0 129 -42v44q0 31 -23 47.5t-62 16.5q-68 0 -164 -32zM263 96q59 0 101 40v45
q-32 34 -92 34q-40 0 -60 -18t-20 -45t19 -41.5t52 -14.5zM158 674h276v-106h-276v106z" />
    <glyph glyph-name="Abreve" unicode="&#x102;" horiz-adv-x="751" 
d="M185 0h-185l303 653h145l303 -653h-191l-42 100h-292zM369 445l-87 -209h180l-87 209h-6zM203 868h112q0 -67 60 -67t60 67h112q0 -28 -7.5 -53.5t-25.5 -50t-53.5 -39t-85.5 -14.5t-85.5 14.5t-53.5 39t-25.5 50t-7.5 53.5z" />
    <glyph glyph-name="abreve" unicode="&#x103;" horiz-adv-x="592" 
d="M115 355l-45 112q106 42 226 42q98 0 164.5 -37t66.5 -116v-252q0 -47 15 -104h-160q-5 20 -11 52q-32 -33 -62 -49t-82 -16q-89 0 -143 47.5t-54 118.5q0 73 56 120.5t149 47.5q77 0 129 -42v44q0 31 -23 47.5t-62 16.5q-68 0 -164 -32zM263 96q59 0 101 40v45
q-32 34 -92 34q-40 0 -60 -18t-20 -45t19 -41.5t52 -14.5zM124 700h112q0 -67 60 -67t60 67h112q0 -28 -7.5 -53.5t-25.5 -50t-53.5 -39t-85.5 -14.5t-85.5 14.5t-53.5 39t-25.5 50t-7.5 53.5z" />
    <glyph glyph-name="Aogonek" unicode="&#x104;" horiz-adv-x="751" 
d="M185 0h-185l303 653h145l303 -653h-47q-25 -11 -41 -18.5t-36 -27t-20 -40.5q0 -37 53 -37q14 0 56 8l13 -96q-49 -16 -98 -16q-67 0 -106.5 30t-39.5 79q0 66 74 119l-41 99h-292zM369 445l-87 -209h180l-87 209h-6z" />
    <glyph glyph-name="aogonek" unicode="&#x105;" horiz-adv-x="592" 
d="M115 355l-45 112q106 42 226 42q98 0 164.5 -37t66.5 -116v-252q0 -47 15 -104h-15q-25 -11 -41 -18.5t-36 -27t-20 -40.5q0 -37 53 -37q14 0 56 8l13 -96q-49 -16 -98 -16q-67 0 -106.5 30t-39.5 79q0 67 74 118q-5 20 -11 52q-32 -33 -62 -49t-82 -16q-89 0 -143 47.5
t-54 118.5q0 73 56 120.5t149 47.5q77 0 129 -42v44q0 31 -23 47.5t-62 16.5q-68 0 -164 -32zM263 96q59 0 101 40v45q-32 34 -92 34q-40 0 -60 -18t-20 -45t19 -41.5t52 -14.5z" />
    <glyph glyph-name="Cacute" unicode="&#x106;" horiz-adv-x="761" 
d="M640 225l106 -112q-150 -133 -341 -133q-161 0 -262.5 100.5t-101.5 246.5q0 143 101.5 244.5t257.5 101.5q88 0 174.5 -30.5t151.5 -81.5l-105 -114q-45 37 -99.5 58t-99.5 21q-89 0 -144 -58t-55 -142t56.5 -142t147.5 -58q107 0 213 99zM412 868h150l-110 -146h-140z
" />
    <glyph glyph-name="cacute" unicode="&#x107;" horiz-adv-x="553" 
d="M531 423l-96 -107q-62 58 -113 58q-49 0 -81.5 -33.5t-32.5 -91.5q0 -55 35 -92.5t84 -37.5t118 65l95 -98q-29 -33 -90.5 -67t-142.5 -34q-112 0 -191.5 74.5t-79.5 189.5q0 117 76.5 188.5t189.5 71.5q127 0 229 -86zM313 700h150l-110 -146h-140z" />
    <glyph glyph-name="Ccircumflex" unicode="&#x108;" horiz-adv-x="761" 
d="M640 225l106 -112q-150 -133 -341 -133q-161 0 -262.5 100.5t-101.5 246.5q0 143 101.5 244.5t257.5 101.5q88 0 174.5 -30.5t151.5 -81.5l-105 -114q-45 37 -99.5 58t-99.5 21q-89 0 -144 -58t-55 -142t56.5 -142t147.5 -58q107 0 213 99zM329 868h148l109 -146h-128
l-55 75l-55 -75h-128z" />
    <glyph glyph-name="ccircumflex" unicode="&#x109;" horiz-adv-x="553" 
d="M531 423l-96 -107q-62 58 -113 58q-49 0 -81.5 -33.5t-32.5 -91.5q0 -55 35 -92.5t84 -37.5t118 65l95 -98q-29 -33 -90.5 -67t-142.5 -34q-112 0 -191.5 74.5t-79.5 189.5q0 117 76.5 188.5t189.5 71.5q127 0 229 -86zM230 700h148l109 -146h-128l-55 75l-55 -75h-128z
" />
    <glyph glyph-name="Cdotaccent" unicode="&#x10a;" horiz-adv-x="761" 
d="M640 225l106 -112q-150 -133 -341 -133q-161 0 -262.5 100.5t-101.5 246.5q0 143 101.5 244.5t257.5 101.5q88 0 174.5 -30.5t151.5 -81.5l-105 -114q-45 37 -99.5 58t-99.5 21q-89 0 -144 -58t-55 -142t56.5 -142t147.5 -58q107 0 213 99zM318 801q0 32 24 54.5t60 22.5
t61 -22.5t25 -54.5q0 -31 -25 -53t-61 -22t-60 21.5t-24 53.5z" />
    <glyph glyph-name="cdotaccent" unicode="&#x10b;" horiz-adv-x="553" 
d="M531 423l-96 -107q-62 58 -113 58q-49 0 -81.5 -33.5t-32.5 -91.5q0 -55 35 -92.5t84 -37.5t118 65l95 -98q-29 -33 -90.5 -67t-142.5 -34q-112 0 -191.5 74.5t-79.5 189.5q0 117 76.5 188.5t189.5 71.5q127 0 229 -86zM219 633q0 32 24 54.5t60 22.5t61 -22.5t25 -54.5
q0 -31 -25 -53t-61 -22t-60 21.5t-24 53.5z" />
    <glyph glyph-name="Ccaron" unicode="&#x10c;" horiz-adv-x="761" 
d="M640 225l106 -112q-150 -133 -341 -133q-161 0 -262.5 100.5t-101.5 246.5q0 143 101.5 244.5t257.5 101.5q88 0 174.5 -30.5t151.5 -81.5l-105 -114q-45 37 -99.5 58t-99.5 21q-89 0 -144 -58t-55 -142t56.5 -142t147.5 -58q107 0 213 99zM220 868h128l55 -76l55 76h128
l-109 -146h-148z" />
    <glyph glyph-name="ccaron" unicode="&#x10d;" horiz-adv-x="553" 
d="M531 423l-96 -107q-62 58 -113 58q-49 0 -81.5 -33.5t-32.5 -91.5q0 -55 35 -92.5t84 -37.5t118 65l95 -98q-29 -33 -90.5 -67t-142.5 -34q-112 0 -191.5 74.5t-79.5 189.5q0 117 76.5 188.5t189.5 71.5q127 0 229 -86zM121 700h128l55 -76l55 76h128l-109 -146h-148z
" />
    <glyph glyph-name="Dcaron" unicode="&#x10e;" horiz-adv-x="798" 
d="M394 0h-301v653h301q180 0 273 -98q87 -92 87 -228q0 -144 -92 -234q-95 -93 -268 -93zM268 147h122q85 0 130 43q53 51 53 135q0 81 -48 132q-46 49 -135 49h-122v-359zM215 868h128l55 -76l55 76h128l-109 -146h-148z" />
    <glyph glyph-name="dcaron" unicode="&#x10f;" horiz-adv-x="636" 
d="M579 0h-156l-5 50q-66 -63 -143 -63q-100 0 -169 73.5t-69 188.5q0 116 69 188t169 72q64 0 127 -55v246h164v-554q0 -77 13 -146zM304 374q-41 0 -67 -33.5t-26 -91.5q0 -56 27 -92t66 -36q49 0 98 41v170q-50 42 -98 42zM709 454h-78v246h133q0 -144 -55 -246z" />
    <glyph glyph-name="Dcroat" unicode="&#x110;" horiz-adv-x="828" 
d="M31 272v117h92v264h301q180 0 273 -98q87 -92 87 -228q0 -144 -92 -234q-95 -93 -268 -93h-301v272h-92zM298 147h122q85 0 130 43q53 51 53 135q0 81 -48 132q-46 49 -135 49h-122v-117h157v-117h-157v-125z" />
    <glyph glyph-name="dcroat" unicode="&#x111;" horiz-adv-x="636" 
d="M285 653h117v47h164v-47h73v-106h-73v-401q0 -77 13 -146h-156l-5 50q-66 -63 -143 -63q-100 0 -169 73.5t-69 188.5q0 116 69 188t169 72q64 0 127 -55v93h-117v106zM304 374q-41 0 -67 -33.5t-26 -91.5q0 -56 27 -92t66 -36q49 0 98 41v170q-50 42 -98 42z" />
    <glyph glyph-name="Emacron" unicode="&#x112;" horiz-adv-x="709" 
d="M498 403v-141h-230v-115h405v-147h-580v653h558v-147h-383v-103h230zM234 842h276v-106h-276v106z" />
    <glyph glyph-name="emacron" unicode="&#x113;" horiz-adv-x="583" 
d="M469 143l57 -103q-42 -24 -103.5 -39.5t-118.5 -15.5q-126 0 -197 74.5t-71 183.5q0 113 76 189.5t191 76.5q65 0 118.5 -24.5t90.5 -83t37 -144.5q0 -17 -3 -53h-352q12 -44 47 -69.5t86 -25.5q70 0 142 34zM306 392q-88 0 -111 -92h198q0 42 -27.5 67t-59.5 25z
M167 674h276v-106h-276v106z" />
    <glyph glyph-name="Ebreve" unicode="&#x114;" horiz-adv-x="709" 
d="M498 403v-141h-230v-115h405v-147h-580v653h558v-147h-383v-103h230zM200 868h112q0 -67 60 -67t60 67h112q0 -28 -7.5 -53.5t-25.5 -50t-53.5 -39t-85.5 -14.5t-85.5 14.5t-53.5 39t-25.5 50t-7.5 53.5z" />
    <glyph glyph-name="ebreve" unicode="&#x115;" horiz-adv-x="583" 
d="M469 143l57 -103q-42 -24 -103.5 -39.5t-118.5 -15.5q-126 0 -197 74.5t-71 183.5q0 113 76 189.5t191 76.5q65 0 118.5 -24.5t90.5 -83t37 -144.5q0 -17 -3 -53h-352q12 -44 47 -69.5t86 -25.5q70 0 142 34zM306 392q-88 0 -111 -92h198q0 42 -27.5 67t-59.5 25z
M133 700h112q0 -67 60 -67t60 67h112q0 -28 -7.5 -53.5t-25.5 -50t-53.5 -39t-85.5 -14.5t-85.5 14.5t-53.5 39t-25.5 50t-7.5 53.5z" />
    <glyph glyph-name="Edotaccent" unicode="&#x116;" horiz-adv-x="709" 
d="M498 403v-141h-230v-115h405v-147h-580v653h558v-147h-383v-103h230zM287 801q0 32 24 54.5t60 22.5t61 -22.5t25 -54.5q0 -31 -25 -53t-61 -22t-60 21.5t-24 53.5z" />
    <glyph glyph-name="edotaccent" unicode="&#x117;" horiz-adv-x="583" 
d="M469 143l57 -103q-42 -24 -103.5 -39.5t-118.5 -15.5q-126 0 -197 74.5t-71 183.5q0 113 76 189.5t191 76.5q65 0 118.5 -24.5t90.5 -83t37 -144.5q0 -17 -3 -53h-352q12 -44 47 -69.5t86 -25.5q70 0 142 34zM306 392q-88 0 -111 -92h198q0 42 -27.5 67t-59.5 25z
M220 633q0 32 24 54.5t60 22.5t61 -22.5t25 -54.5q0 -31 -25 -53t-61 -22t-60 21.5t-24 53.5z" />
    <glyph glyph-name="Eogonek" unicode="&#x118;" horiz-adv-x="709" 
d="M498 403v-141h-230v-115h405v-147h-54q-25 -11 -41 -18.5t-36 -27t-20 -40.5q0 -37 53 -37q14 0 56 8l13 -96q-49 -16 -98 -16q-67 0 -106.5 30t-39.5 79q0 66 73 118h-380v653h558v-147h-383v-103h230z" />
    <glyph glyph-name="eogonek" unicode="&#x119;" horiz-adv-x="583" 
d="M469 143l57 -103q-45 -26 -109 -40q-95 -40 -95 -86q0 -37 53 -37q14 0 56 8l13 -96q-49 -16 -98 -16q-67 0 -106.5 30t-39.5 79q0 58 57 106q-105 14 -163 85.5t-58 169.5q0 113 76 189.5t191 76.5q65 0 118.5 -24.5t90.5 -83t37 -144.5q0 -17 -3 -53h-352
q12 -44 47 -69.5t86 -25.5q70 0 142 34zM306 392q-88 0 -111 -92h198q0 42 -27.5 67t-59.5 25z" />
    <glyph glyph-name="Ecaron" unicode="&#x11a;" horiz-adv-x="709" 
d="M498 403v-141h-230v-115h405v-147h-580v653h558v-147h-383v-103h230zM189 868h128l55 -76l55 76h128l-109 -146h-148z" />
    <glyph glyph-name="ecaron" unicode="&#x11b;" horiz-adv-x="583" 
d="M469 143l57 -103q-42 -24 -103.5 -39.5t-118.5 -15.5q-126 0 -197 74.5t-71 183.5q0 113 76 189.5t191 76.5q65 0 118.5 -24.5t90.5 -83t37 -144.5q0 -17 -3 -53h-352q12 -44 47 -69.5t86 -25.5q70 0 142 34zM306 392q-88 0 -111 -92h198q0 42 -27.5 67t-59.5 25z
M122 700h128l55 -76l55 76h128l-109 -146h-148z" />
    <glyph glyph-name="Gcircumflex" unicode="&#x11c;" horiz-adv-x="797" 
d="M719 558l-111 -108q-43 35 -100 55.5t-104 20.5q-80 0 -131.5 -58.5t-51.5 -141.5q0 -82 51 -140t142 -58q83 0 139 35v89h-188v136h355v-300q-67 -49 -151 -77.5t-161 -28.5q-157 0 -262.5 100.5t-105.5 244.5t105.5 245t257.5 101q164 0 316 -115zM329 868h148
l109 -146h-128l-55 75l-55 -75h-128z" />
    <glyph glyph-name="gcircumflex" unicode="&#x11d;" horiz-adv-x="635" 
d="M401 -30v81q-61 -54 -127 -54q-99 0 -168 70t-69 179q0 119 68 191t169 72q36 0 75.5 -19t67.5 -46q3 31 8 52h153q-13 -69 -13 -146v-370q0 -90 -69 -148.5t-194 -58.5q-144 0 -242 78l79 93q81 -46 163 -46q47 0 73 20.5t26 51.5zM303 131q47 0 98 41v160
q-47 42 -98 42q-40 0 -66.5 -34.5t-26.5 -93.5q0 -49 27.5 -82t65.5 -33zM243 700h148l109 -146h-128l-55 75l-55 -75h-128z" />
    <glyph glyph-name="Gbreve" unicode="&#x11e;" horiz-adv-x="797" 
d="M719 558l-111 -108q-43 35 -100 55.5t-104 20.5q-80 0 -131.5 -58.5t-51.5 -141.5q0 -82 51 -140t142 -58q83 0 139 35v89h-188v136h355v-300q-67 -49 -151 -77.5t-161 -28.5q-157 0 -262.5 100.5t-105.5 244.5t105.5 245t257.5 101q164 0 316 -115zM231 868h112
q0 -67 60 -67t60 67h112q0 -28 -7.5 -53.5t-25.5 -50t-53.5 -39t-85.5 -14.5t-85.5 14.5t-53.5 39t-25.5 50t-7.5 53.5z" />
    <glyph glyph-name="gbreve" unicode="&#x11f;" horiz-adv-x="635" 
d="M401 -30v81q-61 -54 -127 -54q-99 0 -168 70t-69 179q0 119 68 191t169 72q36 0 75.5 -19t67.5 -46q3 31 8 52h153q-13 -69 -13 -146v-370q0 -90 -69 -148.5t-194 -58.5q-144 0 -242 78l79 93q81 -46 163 -46q47 0 73 20.5t26 51.5zM303 131q47 0 98 41v160
q-47 42 -98 42q-40 0 -66.5 -34.5t-26.5 -93.5q0 -49 27.5 -82t65.5 -33zM145 700h112q0 -67 60 -67t60 67h112q0 -28 -7.5 -53.5t-25.5 -50t-53.5 -39t-85.5 -14.5t-85.5 14.5t-53.5 39t-25.5 50t-7.5 53.5z" />
    <glyph glyph-name="Gdotaccent" unicode="&#x120;" horiz-adv-x="797" 
d="M719 558l-111 -108q-43 35 -100 55.5t-104 20.5q-80 0 -131.5 -58.5t-51.5 -141.5q0 -82 51 -140t142 -58q83 0 139 35v89h-188v136h355v-300q-67 -49 -151 -77.5t-161 -28.5q-157 0 -262.5 100.5t-105.5 244.5t105.5 245t257.5 101q164 0 316 -115zM318 801
q0 32 24 54.5t60 22.5t61 -22.5t25 -54.5q0 -31 -25 -53t-61 -22t-60 21.5t-24 53.5z" />
    <glyph glyph-name="gdotaccent" unicode="&#x121;" horiz-adv-x="635" 
d="M401 -30v81q-61 -54 -127 -54q-99 0 -168 70t-69 179q0 119 68 191t169 72q36 0 75.5 -19t67.5 -46q3 31 8 52h153q-13 -69 -13 -146v-370q0 -90 -69 -148.5t-194 -58.5q-144 0 -242 78l79 93q81 -46 163 -46q47 0 73 20.5t26 51.5zM303 131q47 0 98 41v160
q-47 42 -98 42q-40 0 -66.5 -34.5t-26.5 -93.5q0 -49 27.5 -82t65.5 -33zM232 633q0 32 24 54.5t60 22.5t61 -22.5t25 -54.5q0 -31 -25 -53t-61 -22t-60 21.5t-24 53.5z" />
    <glyph glyph-name="uni0122" unicode="&#x122;" horiz-adv-x="797" 
d="M719 558l-111 -108q-43 35 -100 55.5t-104 20.5q-80 0 -131.5 -58.5t-51.5 -141.5q0 -82 51 -140t142 -58q83 0 139 35v89h-188v136h355v-300q-67 -49 -151 -77.5t-161 -28.5q-157 0 -262.5 100.5t-105.5 244.5t105.5 245t257.5 101q164 0 316 -115zM372 -70l124 30
q32 -48 32 -91q0 -58 -48 -93.5t-128 -35.5q-47 0 -98 16l13 86q42 -8 56 -8q63 0 63 47q0 16 -14 49z" />
    <glyph glyph-name="uni0123" unicode="&#x123;" horiz-adv-x="635" 
d="M373 576l-126 -23q-1 1 -8.5 9.5t-11.5 14.5t-10 17t-9 23.5t-3 27.5q0 57 44.5 92.5t124.5 35.5q27 0 52 -8v-89q-12 3 -36 3q-43 0 -43 -44q0 -24 26 -59zM401 -30v81q-61 -54 -127 -54q-99 0 -168 70t-69 179q0 119 68 191t169 72q36 0 75.5 -19t67.5 -46q3 31 8 52
h153q-13 -69 -13 -146v-370q0 -90 -69 -148.5t-194 -58.5q-144 0 -242 78l79 93q81 -46 163 -46q47 0 73 20.5t26 51.5zM303 131q47 0 98 41v160q-47 42 -98 42q-40 0 -66.5 -34.5t-26.5 -93.5q0 -49 27.5 -82t65.5 -33z" />
    <glyph glyph-name="Hcircumflex" unicode="&#x124;" horiz-adv-x="799" 
d="M269 0h-176v653h176v-236h262v236h175v-653h-175v275h-262v-275zM325 868h148l109 -146h-128l-55 75l-55 -75h-128z" />
    <glyph glyph-name="hcircumflex" unicode="&#x125;" horiz-adv-x="613" 
d="M231 0h-163v700h164v-250q69 59 140 59q80 0 129 -50.5t49 -129.5v-329h-164v319q0 23 -18 39t-45 16q-25 0 -51 -15t-41 -34v-325zM76 907h148l109 -146h-128l-55 75l-55 -75h-128z" />
    <glyph glyph-name="Hbar" unicode="&#x126;" horiz-adv-x="827" 
d="M21 450v118h91v85h176v-85h252v85h175v-85h92v-118h-92v-450h-175v222h-252v-222h-176v450h-91zM288 359h252v91h-252v-91z" />
    <glyph glyph-name="hbar" unicode="&#x127;" horiz-adv-x="613" 
d="M-6 653h74v47h164v-47h116v-106h-116v-97q69 59 140 59q80 0 129 -50.5t49 -129.5v-329h-164v319q0 23 -18 39t-45 16q-25 0 -51 -15t-41 -34v-325h-163v547h-74v106z" />
    <glyph glyph-name="Itilde" unicode="&#x128;" horiz-adv-x="361" 
d="M268 0h-175v653h175v-653zM69 713l-93 50q33 59 66 84t74 25q38 0 74 -24q38 -24 49 -24q12 0 23.5 8.5t17.5 16t17 22.5l85 -46q-59 -111 -139 -111q-32 0 -68 22q-4 2 -11.5 7.5t-11 7.5t-9.5 5t-11 4.5t-10 1.5q-7 0 -13 -2.5t-12 -9t-9.5 -11t-10 -14t-8.5 -12.5z
" />
    <glyph glyph-name="itilde" unicode="&#x129;" horiz-adv-x="300" 
d="M232 0h-164v493h164v-493zM38 544l-93 50q33 59 66 84t74 25q38 0 74 -24q38 -24 49 -24q12 0 23.5 8.5t17.5 16t17 22.5l85 -46q-59 -111 -139 -111q-32 0 -68 22q-4 2 -11.5 7.5t-11 7.5t-9.5 5t-11 4.5t-10 1.5q-7 0 -13 -2.5t-12 -9t-9.5 -11t-10 -14t-8.5 -12.5z
" />
    <glyph glyph-name="Imacron" unicode="&#x12a;" horiz-adv-x="361" 
d="M268 0h-175v653h175v-653zM43 842h276v-106h-276v106z" />
    <glyph glyph-name="imacron" unicode="&#x12b;" horiz-adv-x="300" 
d="M232 0h-164v493h164v-493zM12 674h276v-106h-276v106z" />
    <glyph glyph-name="Ibreve" unicode="&#x12c;" horiz-adv-x="361" 
d="M268 0h-175v653h175v-653zM9 868h112q0 -67 60 -67t60 67h112q0 -28 -7.5 -53.5t-25.5 -50t-53.5 -39t-85.5 -14.5t-85.5 14.5t-53.5 39t-25.5 50t-7.5 53.5z" />
    <glyph glyph-name="ibreve" unicode="&#x12d;" horiz-adv-x="300" 
d="M232 0h-164v493h164v-493zM-22 700h112q0 -67 60 -67t60 67h112q0 -28 -7.5 -53.5t-25.5 -50t-53.5 -39t-85.5 -14.5t-85.5 14.5t-53.5 39t-25.5 50t-7.5 53.5z" />
    <glyph glyph-name="Iogonek" unicode="&#x12e;" horiz-adv-x="361" 
d="M268 0q-25 -11 -41 -18.5t-36 -27t-20 -40.5q0 -37 53 -37q14 0 56 8l13 -96q-49 -16 -98 -16q-67 0 -106.5 30t-39.5 79q0 66 73 118h-29v653h175v-653z" />
    <glyph glyph-name="iogonek" unicode="&#x12f;" horiz-adv-x="300" 
d="M68 0v493h164v-493q-25 -11 -41 -18.5t-36 -27t-20 -40.5q0 -37 53 -37q14 0 56 8l13 -96q-49 -16 -98 -16q-67 0 -106.5 30t-39.5 79q0 66 73 118h-18zM149 550q-39 0 -66 24t-27 59t27 60t66 25t67 -25t28 -60t-27.5 -59t-67.5 -24z" />
    <glyph glyph-name="Idotaccent" unicode="&#x130;" horiz-adv-x="361" 
d="M268 0h-175v653h175v-653zM96 801q0 32 24 54.5t60 22.5t61 -22.5t25 -54.5q0 -31 -25 -53t-61 -22t-60 21.5t-24 53.5z" />
    <glyph glyph-name="dotlessi" unicode="&#x131;" horiz-adv-x="300" 
d="M232 0h-164v493h164v-493z" />
    <glyph glyph-name="IJ" unicode="&#x132;" horiz-adv-x="1014" 
d="M268 0h-175v653h175v-653zM756 653h176v-413q0 -121 -79.5 -189.5t-207.5 -68.5q-195 0 -284 191l149 77q53 -122 134 -122q50 0 81 29.5t31 82.5v413z" />
    <glyph glyph-name="ij" unicode="&#x133;" horiz-adv-x="600" 
d="M232 0h-164v493h164v-493zM56 633q0 35 27 60t66 25t67 -25t28 -60t-27.5 -59t-67.5 -24q-39 0 -66 24t-27 59zM320 -228l-43 117q27 6 44 11.5t32 21t15 37.5v534h164v-534q0 -49 -20 -87t-52 -59t-67.5 -31t-72.5 -10zM355 633q0 35 27 60t67 25q39 0 67 -25t28 -60
t-27.5 -59t-67.5 -24t-67 24t-27 59z" />
    <glyph glyph-name="Jcircumflex" unicode="&#x134;" horiz-adv-x="653" 
d="M395 653h176v-413q0 -121 -79.5 -189.5t-207.5 -68.5q-195 0 -284 191l149 77q53 -122 134 -122q50 0 81 29.5t31 82.5v413zM410 868h148l109 -146h-128l-55 75l-55 -75h-128z" />
    <glyph glyph-name="jcircumflex" unicode="&#x135;" horiz-adv-x="300" 
d="M20 -228l-43 117q27 6 44 11.5t32 21t15 37.5v534h164v-534q0 -49 -20 -87t-52 -59t-67.5 -31t-72.5 -10zM76 700h148l109 -146h-128l-55 75l-55 -75h-128z" />
    <glyph glyph-name="uni0136" unicode="&#x136;" horiz-adv-x="779" 
d="M269 653v-245l257 245h222l-277 -259l317 -394h-217l-223 281l-79 -75v-206h-176v653h176zM357 -70l124 30q32 -48 32 -91q0 -58 -48 -93.5t-128 -35.5q-47 0 -98 16l13 86q42 -8 56 -8q63 0 63 47q0 16 -14 49z" />
    <glyph glyph-name="uni0137" unicode="&#x137;" horiz-adv-x="597" 
d="M377 493h211l-192 -181l203 -312h-202l-117 203l-48 -45v-158h-164v700h164v-354zM242 -63l126 23q1 -1 8.5 -9.5t11.5 -14.5t10 -17t9 -23.5t3 -27.5q0 -57 -44.5 -92.5t-124.5 -35.5q-27 0 -52 8v89q12 -3 36 -3q43 0 43 44q0 24 -26 59z" />
    <glyph glyph-name="kgreenlandic" unicode="&#x138;" horiz-adv-x="597" 
d="M377 493h211l-192 -181l203 -312h-202l-117 203l-48 -45v-158h-164v493h164v-147z" />
    <glyph glyph-name="Lacute" unicode="&#x139;" horiz-adv-x="652" 
d="M93 653h175v-506h367v-147h-542v653zM191 868h150l-110 -146h-140z" />
    <glyph glyph-name="lacute" unicode="&#x13a;" horiz-adv-x="300" 
d="M232 0h-164v700h164v-700zM159 907h150l-110 -146h-140z" />
    <glyph glyph-name="uni013B" unicode="&#x13b;" horiz-adv-x="652" 
d="M93 653h175v-506h367v-147h-542v653zM294 -70l124 30q32 -48 32 -91q0 -58 -48 -93.5t-128 -35.5q-47 0 -98 16l13 86q42 -8 56 -8q63 0 63 47q0 16 -14 49z" />
    <glyph glyph-name="uni013C" unicode="&#x13c;" horiz-adv-x="300" 
d="M232 0h-164v700h164v-700zM87 -63l126 23q1 -1 8.5 -9.5t11.5 -14.5t10 -17t9 -23.5t3 -27.5q0 -57 -44.5 -92.5t-124.5 -35.5q-27 0 -52 8v89q12 -3 36 -3q43 0 43 44q0 24 -26 59z" />
    <glyph glyph-name="Lcaron" unicode="&#x13d;" horiz-adv-x="652" 
d="M93 653h175v-506h367v-147h-542v653zM494 454h-78v246h133q0 -144 -55 -246z" />
    <glyph glyph-name="lcaron" unicode="&#x13e;" horiz-adv-x="300" 
d="M232 0h-164v700h164v-700zM375 454h-78v246h133q0 -144 -55 -246z" />
    <glyph glyph-name="Ldot" unicode="&#x13f;" horiz-adv-x="669" 
d="M93 653h175v-506h367v-147h-542v653zM416 405q0 32 24 54.5t60 22.5t61 -22.5t25 -54.5q0 -31 -25 -53t-61 -22t-60 21.5t-24 53.5z" />
    <glyph glyph-name="ldot" unicode="&#x140;" horiz-adv-x="416" 
d="M232 0h-164v700h164v-700zM269 361q0 32 24 54.5t60 22.5t61 -22.5t25 -54.5q0 -31 -25 -53t-61 -22t-60 21.5t-24 53.5z" />
    <glyph glyph-name="Lslash" unicode="&#x141;" horiz-adv-x="684" 
d="M125 653h175v-206l186 108v-141l-186 -108v-159h367v-147h-542v205l-93 -54v141l93 54v307z" />
    <glyph glyph-name="lslash" unicode="&#x142;" horiz-adv-x="330" 
d="M24 215v142l59 31v312h164v-227l64 34v-142l-64 -34v-331h-164v246z" />
    <glyph glyph-name="Nacute" unicode="&#x143;" horiz-adv-x="799" 
d="M530 653h176v-653h-148l-288 355h-1v-355h-176v653h147l289 -356h1v356zM408 868h150l-110 -146h-140z" />
    <glyph glyph-name="nacute" unicode="&#x144;" horiz-adv-x="615" 
d="M54 493h150q0 -1 4 -23.5t5 -32.5q65 72 168 72q71 0 121 -51.5t50 -128.5v-329h-164v319q0 24 -17.5 39.5t-45.5 15.5q-43 0 -92 -49v-325h-163v349q0 61 -16 144zM316 700h150l-110 -146h-140z" />
    <glyph glyph-name="uni0145" unicode="&#x145;" horiz-adv-x="799" 
d="M530 653h176v-653h-148l-288 355h-1v-355h-176v653h147l289 -356h1v356zM368 -70l124 30q32 -48 32 -91q0 -58 -48 -93.5t-128 -35.5q-47 0 -98 16l13 86q42 -8 56 -8q63 0 63 47q0 16 -14 49z" />
    <glyph glyph-name="uni0146" unicode="&#x146;" horiz-adv-x="615" 
d="M54 493h150q0 -1 4 -23.5t5 -32.5q65 72 168 72q71 0 121 -51.5t50 -128.5v-329h-164v319q0 24 -17.5 39.5t-45.5 15.5q-43 0 -92 -49v-325h-163v349q0 61 -16 144zM244 -63l126 23q1 -1 8.5 -9.5t11.5 -14.5t10 -17t9 -23.5t3 -27.5q0 -57 -44.5 -92.5t-124.5 -35.5
q-27 0 -52 8v89q12 -3 36 -3q43 0 43 44q0 24 -26 59z" />
    <glyph glyph-name="Ncaron" unicode="&#x147;" horiz-adv-x="799" 
d="M530 653h176v-653h-148l-288 355h-1v-355h-176v653h147l289 -356h1v356zM216 868h128l55 -76l55 76h128l-109 -146h-148z" />
    <glyph glyph-name="ncaron" unicode="&#x148;" horiz-adv-x="615" 
d="M54 493h150q0 -1 4 -23.5t5 -32.5q65 72 168 72q71 0 121 -51.5t50 -128.5v-329h-164v319q0 24 -17.5 39.5t-45.5 15.5q-43 0 -92 -49v-325h-163v349q0 61 -16 144zM124 700h128l55 -76l55 76h128l-109 -146h-148z" />
    <glyph glyph-name="napostrophe" unicode="&#x149;" horiz-adv-x="615" 
d="M-23 515l-35 62q27 7 54 28t27 43v6q-14 -4 -24 -4q-22 0 -37.5 18.5t-15.5 45.5q0 31 25 51.5t60 20.5q39 0 65 -27.5t26 -72.5q0 -67 -43.5 -109t-101.5 -62zM54 493h150q0 -1 4 -23.5t5 -32.5q65 72 168 72q71 0 121 -51.5t50 -128.5v-329h-164v319q0 24 -17.5 39.5
t-45.5 15.5q-43 0 -92 -49v-325h-163v349q0 61 -16 144z" />
    <glyph glyph-name="Eng" unicode="&#x14a;" horiz-adv-x="799" 
d="M530 653h176v-622q0 -121 -79.5 -189.5t-207.5 -68.5v146q50 0 80.5 29.5t30.5 84.5l-260 322h-1v-355h-176v653h147l289 -356h1v356z" />
    <glyph glyph-name="eng" unicode="&#x14b;" horiz-adv-x="615" 
d="M388 -41v360q0 24 -17.5 39.5t-45.5 15.5q-43 0 -92 -49v-325h-163v349q0 61 -16 144h150q0 -1 4 -23.5t5 -32.5q65 72 168 72q71 0 121 -51.5t50 -128.5l-1 -370q0 -65 -34.5 -109t-80 -61t-96.5 -17l-43 117q27 6 44 11.5t32 21t15 37.5z" />
    <glyph glyph-name="Omacron" unicode="&#x14c;" horiz-adv-x="825" 
d="M40 328q0 143 108 244t263 101q156 0 265.5 -101t109.5 -244q0 -145 -109.5 -246.5t-265.5 -101.5t-263.5 101.5t-107.5 246.5zM221 328q0 -83 55 -142.5t135 -59.5q81 0 137 59.5t56 142.5q0 81 -56 139.5t-137 58.5q-80 0 -135 -58t-55 -140zM274 842h276v-106h-276
v106z" />
    <glyph glyph-name="omacron" unicode="&#x14d;" horiz-adv-x="623" 
d="M36 249q0 112 76.5 186t198.5 74t199 -74t77 -186q0 -111 -77.5 -187.5t-198.5 -76.5t-198 76.5t-77 187.5zM203 249q0 -54 29.5 -92t78.5 -38q50 0 80 38.5t30 91.5q0 55 -29.5 90t-80.5 35q-50 0 -79 -35t-29 -90zM173 674h276v-106h-276v106z" />
    <glyph glyph-name="Obreve" unicode="&#x14e;" horiz-adv-x="825" 
d="M40 328q0 143 108 244t263 101q156 0 265.5 -101t109.5 -244q0 -145 -109.5 -246.5t-265.5 -101.5t-263.5 101.5t-107.5 246.5zM221 328q0 -83 55 -142.5t135 -59.5q81 0 137 59.5t56 142.5q0 81 -56 139.5t-137 58.5q-80 0 -135 -58t-55 -140zM240 868h112q0 -67 60 -67
t60 67h112q0 -28 -7.5 -53.5t-25.5 -50t-53.5 -39t-85.5 -14.5t-85.5 14.5t-53.5 39t-25.5 50t-7.5 53.5z" />
    <glyph glyph-name="obreve" unicode="&#x14f;" horiz-adv-x="623" 
d="M36 249q0 112 76.5 186t198.5 74t199 -74t77 -186q0 -111 -77.5 -187.5t-198.5 -76.5t-198 76.5t-77 187.5zM203 249q0 -54 29.5 -92t78.5 -38q50 0 80 38.5t30 91.5q0 55 -29.5 90t-80.5 35q-50 0 -79 -35t-29 -90zM139 700h112q0 -67 60 -67t60 67h112
q0 -28 -7.5 -53.5t-25.5 -50t-53.5 -39t-85.5 -14.5t-85.5 14.5t-53.5 39t-25.5 50t-7.5 53.5z" />
    <glyph glyph-name="Ohungarumlaut" unicode="&#x150;" horiz-adv-x="825" 
d="M40 328q0 143 108 244t263 101q156 0 265.5 -101t109.5 -244q0 -145 -109.5 -246.5t-265.5 -101.5t-263.5 101.5t-107.5 246.5zM221 328q0 -83 55 -142.5t135 -59.5q81 0 137 59.5t56 142.5q0 81 -56 139.5t-137 58.5q-80 0 -135 -58t-55 -140zM295 868h130l-70 -146
h-100zM484 868h130l-70 -146h-100z" />
    <glyph glyph-name="ohungarumlaut" unicode="&#x151;" horiz-adv-x="623" 
d="M36 249q0 112 76.5 186t198.5 74t199 -74t77 -186q0 -111 -77.5 -187.5t-198.5 -76.5t-198 76.5t-77 187.5zM203 249q0 -54 29.5 -92t78.5 -38q50 0 80 38.5t30 91.5q0 55 -29.5 90t-80.5 35q-50 0 -79 -35t-29 -90zM194 700h130l-70 -146h-100zM383 700h130l-70 -146
h-100z" />
    <glyph glyph-name="OE" unicode="&#x152;" horiz-adv-x="1222" 
d="M1011 403v-141h-230v-115h405v-147h-580v57q-91 -77 -195 -77q-156 0 -263.5 101.5t-107.5 246.5q0 143 108 244t263 101q104 0 195 -77v57h558v-147h-383v-103h230zM221 328q0 -83 55 -142.5t135 -59.5q85 0 144 59.5t59 142.5q0 82 -59 140t-144 58q-80 0 -135 -58
t-55 -140z" />
    <glyph glyph-name="oe" unicode="&#x153;" horiz-adv-x="968" 
d="M854 143l57 -103q-42 -24 -103.5 -39.5t-118.5 -15.5q-115 0 -189 77q-77 -77 -189 -77q-121 0 -198 76.5t-77 187.5q0 112 76.5 186t198.5 74q116 0 193 -79q76 79 184 79q65 0 118.5 -24.5t90.5 -83t37 -144.5q0 -17 -3 -53h-352q12 -44 47 -69.5t86 -25.5q70 0 142 34
zM691 392q-88 0 -111 -92h198q0 42 -27.5 67t-59.5 25zM203 249q0 -54 29.5 -92t78.5 -38q50 0 80 38.5t30 91.5q0 55 -29.5 90t-80.5 35q-50 0 -79 -35t-29 -90z" />
    <glyph glyph-name="Racute" unicode="&#x154;" horiz-adv-x="778" 
d="M268 0h-175v653h364q133 0 203 -73q56 -59 56 -139q0 -119 -120 -181l150 -260h-198l-125 230h-155v-230zM467 511h-199v-139h199q32 0 53 18.5t21 51.5q0 28 -19 49q-19 20 -55 20zM397 868h150l-110 -146h-140z" />
    <glyph glyph-name="racute" unicode="&#x155;" horiz-adv-x="417" 
d="M298 355q-17 0 -29 -8.5t-35 -33.5v-313h-164v350q0 54 -16 143h149q1 -4 5 -29t5 -35q46 80 116 80q50 0 83 -19l-44 -149q-5 1 -19.5 5t-28 6.5t-22.5 2.5zM218 700h150l-110 -146h-140z" />
    <glyph glyph-name="uni0156" unicode="&#x156;" horiz-adv-x="778" 
d="M268 0h-175v653h364q133 0 203 -73q56 -59 56 -139q0 -119 -120 -181l150 -260h-198l-125 230h-155v-230zM467 511h-199v-139h199q32 0 53 18.5t21 51.5q0 28 -19 49q-19 20 -55 20zM357 -70l124 30q32 -48 32 -91q0 -58 -48 -93.5t-128 -35.5q-47 0 -98 16l13 86
q42 -8 56 -8q63 0 63 47q0 16 -14 49z" />
    <glyph glyph-name="uni0157" unicode="&#x157;" horiz-adv-x="417" 
d="M298 355q-17 0 -29 -8.5t-35 -33.5v-313h-164v350q0 54 -16 143h149q1 -4 5 -29t5 -35q46 80 116 80q50 0 83 -19l-44 -149q-5 1 -19.5 5t-28 6.5t-22.5 2.5zM122 -63l126 23q1 -1 8.5 -9.5t11.5 -14.5t10 -17t9 -23.5t3 -27.5q0 -57 -44.5 -92.5t-124.5 -35.5
q-27 0 -52 8v89q12 -3 36 -3q43 0 43 44q0 24 -26 59z" />
    <glyph glyph-name="Rcaron" unicode="&#x158;" horiz-adv-x="778" 
d="M268 0h-175v653h364q133 0 203 -73q56 -59 56 -139q0 -119 -120 -181l150 -260h-198l-125 230h-155v-230zM467 511h-199v-139h199q32 0 53 18.5t21 51.5q0 28 -19 49q-19 20 -55 20zM205 868h128l55 -76l55 76h128l-109 -146h-148z" />
    <glyph glyph-name="rcaron" unicode="&#x159;" horiz-adv-x="417" 
d="M298 355q-17 0 -29 -8.5t-35 -33.5v-313h-164v350q0 54 -16 143h149q1 -4 5 -29t5 -35q46 80 116 80q50 0 83 -19l-44 -149q-5 1 -19.5 5t-28 6.5t-22.5 2.5zM26 700h128l55 -76l55 76h128l-109 -146h-148z" />
    <glyph glyph-name="Sacute" unicode="&#x15a;" horiz-adv-x="725" 
d="M651 593l-95 -122q-110 64 -221 64q-42 0 -70.5 -18t-28.5 -48q0 -15 11.5 -25.5t30 -16t42 -9t48.5 -5.5q9 -1 14 -1q34 -2 55.5 -4t57.5 -8t59.5 -14.5t52 -24t45 -35t28 -49.5t11.5 -67q0 -117 -83.5 -173.5t-216.5 -56.5q-197 0 -362 121l94 119q145 -103 265 -103
q59 0 93.5 22.5t34.5 55.5q0 32 -33.5 44.5t-106.5 18.5q-41 3 -64 5.5t-61.5 9t-60.5 15t-50 23.5t-43 34.5t-25.5 49t-10.5 65.5q0 58 25 101t67 66.5t88.5 34.5t97.5 11q91 0 175 -24.5t137 -55.5zM371 868h150l-110 -146h-140z" />
    <glyph glyph-name="sacute" unicode="&#x15b;" horiz-adv-x="558" 
d="M502 463l-54 -111q-94 39 -174 39q-63 0 -63 -37q0 -16 11.5 -24t23.5 -9.5t39 -2.5q35 -2 60 -4.5t62 -12t60 -25.5t40 -45.5t17 -70.5q0 -85 -66 -131t-171 -46q-133 0 -256 75l54 111q41 -26 100.5 -46t106.5 -20q69 0 69 43q0 38 -79 43q-35 2 -48.5 3t-44.5 5.5
t-45.5 10t-36 16.5t-31.5 25.5t-18 37t-8 50.5q0 90 63.5 132t152.5 42q58 0 127.5 -15.5t108.5 -32.5zM287 700h150l-110 -146h-140z" />
    <glyph glyph-name="Scircumflex" unicode="&#x15c;" horiz-adv-x="725" 
d="M651 593l-95 -122q-110 64 -221 64q-42 0 -70.5 -18t-28.5 -48q0 -15 11.5 -25.5t30 -16t42 -9t48.5 -5.5q9 -1 14 -1q34 -2 55.5 -4t57.5 -8t59.5 -14.5t52 -24t45 -35t28 -49.5t11.5 -67q0 -117 -83.5 -173.5t-216.5 -56.5q-197 0 -362 121l94 119q145 -103 265 -103
q59 0 93.5 22.5t34.5 55.5q0 32 -33.5 44.5t-106.5 18.5q-41 3 -64 5.5t-61.5 9t-60.5 15t-50 23.5t-43 34.5t-25.5 49t-10.5 65.5q0 58 25 101t67 66.5t88.5 34.5t97.5 11q91 0 175 -24.5t137 -55.5zM288 868h148l109 -146h-128l-55 75l-55 -75h-128z" />
    <glyph glyph-name="scircumflex" unicode="&#x15d;" horiz-adv-x="558" 
d="M502 463l-54 -111q-94 39 -174 39q-63 0 -63 -37q0 -16 11.5 -24t23.5 -9.5t39 -2.5q35 -2 60 -4.5t62 -12t60 -25.5t40 -45.5t17 -70.5q0 -85 -66 -131t-171 -46q-133 0 -256 75l54 111q41 -26 100.5 -46t106.5 -20q69 0 69 43q0 38 -79 43q-35 2 -48.5 3t-44.5 5.5
t-45.5 10t-36 16.5t-31.5 25.5t-18 37t-8 50.5q0 90 63.5 132t152.5 42q58 0 127.5 -15.5t108.5 -32.5zM204 700h148l109 -146h-128l-55 75l-55 -75h-128z" />
    <glyph glyph-name="Scedilla" unicode="&#x15e;" horiz-adv-x="725" 
d="M651 593l-95 -122q-110 64 -221 64q-42 0 -70.5 -18t-28.5 -48q0 -15 11.5 -25.5t30 -16t42 -9t48.5 -5.5q9 -1 14 -1q34 -2 55.5 -4t57.5 -8t59.5 -14.5t52 -24t45 -35t28 -49.5t11.5 -67q0 -104 -67 -160.5t-178 -66.5q30 -16 43 -30q26 -26 26 -66q0 -51 -50 -82.5
t-130 -31.5q-49 0 -134 20l23 85q77 -11 96 -11q53 0 53 29q0 14 -15.5 24t-30 12.5t-24.5 2.5h-3v25l13 25q-152 18 -284 116l94 119q145 -103 265 -103q59 0 93.5 22.5t34.5 55.5q0 32 -33.5 44.5t-106.5 18.5q-41 3 -64 5.5t-61.5 9t-60.5 15t-50 23.5t-43 34.5t-25.5 49
t-10.5 65.5q0 58 25 101t67 66.5t88.5 34.5t97.5 11q91 0 175 -24.5t137 -55.5z" />
    <glyph glyph-name="scedilla" unicode="&#x15f;" horiz-adv-x="558" 
d="M502 463l-54 -111q-94 39 -174 39q-63 0 -63 -37q0 -16 11.5 -24t23.5 -9.5t39 -2.5q35 -2 60 -4.5t62 -12t60 -25.5t40 -45.5t17 -70.5q0 -71 -47 -115.5t-126 -56.5q37 -17 54 -35q26 -26 26 -66q0 -51 -50 -82.5t-130 -31.5q-49 0 -134 20l23 85q77 -11 96 -11
q53 0 53 29q0 14 -15.5 24t-30 12.5t-24.5 2.5h-3v25l14 27q-107 12 -199 71l54 111q41 -26 100.5 -46t106.5 -20q69 0 69 43q0 38 -79 43q-35 2 -48.5 3t-44.5 5.5t-45.5 10t-36 16.5t-31.5 25.5t-18 37t-8 50.5q0 90 63.5 132t152.5 42q58 0 127.5 -15.5t108.5 -32.5z" />
    <glyph glyph-name="Scaron" unicode="&#x160;" horiz-adv-x="725" 
d="M651 593l-95 -122q-110 64 -221 64q-42 0 -70.5 -18t-28.5 -48q0 -15 11.5 -25.5t30 -16t42 -9t48.5 -5.5q9 -1 14 -1q34 -2 55.5 -4t57.5 -8t59.5 -14.5t52 -24t45 -35t28 -49.5t11.5 -67q0 -117 -83.5 -173.5t-216.5 -56.5q-197 0 -362 121l94 119q145 -103 265 -103
q59 0 93.5 22.5t34.5 55.5q0 32 -33.5 44.5t-106.5 18.5q-41 3 -64 5.5t-61.5 9t-60.5 15t-50 23.5t-43 34.5t-25.5 49t-10.5 65.5q0 58 25 101t67 66.5t88.5 34.5t97.5 11q91 0 175 -24.5t137 -55.5zM179 868h128l55 -76l55 76h128l-109 -146h-148z" />
    <glyph glyph-name="scaron" unicode="&#x161;" horiz-adv-x="558" 
d="M502 463l-54 -111q-94 39 -174 39q-63 0 -63 -37q0 -16 11.5 -24t23.5 -9.5t39 -2.5q35 -2 60 -4.5t62 -12t60 -25.5t40 -45.5t17 -70.5q0 -85 -66 -131t-171 -46q-133 0 -256 75l54 111q41 -26 100.5 -46t106.5 -20q69 0 69 43q0 38 -79 43q-35 2 -48.5 3t-44.5 5.5
t-45.5 10t-36 16.5t-31.5 25.5t-18 37t-8 50.5q0 90 63.5 132t152.5 42q58 0 127.5 -15.5t108.5 -32.5zM95 700h128l55 -76l55 76h128l-109 -146h-148z" />
    <glyph glyph-name="uni0162" unicode="&#x162;" horiz-adv-x="652" 
d="M23 506v147h606v-147h-215v-506l-6 -10q41 -19 58 -37q26 -26 26 -66q0 -51 -50 -82.5t-130 -31.5q-49 0 -134 20l23 85q77 -11 96 -11q53 0 53 29q0 14 -15.5 24t-30 12.5t-24.5 2.5h-3v25l21 40h-59v506h-216z" />
    <glyph glyph-name="uni0163" unicode="&#x163;" horiz-adv-x="412" 
d="M261 626v-133h113v-116h-113v-224q0 -21 11.5 -29t36.5 -8q8 0 16.5 1t19.5 2t19 2l10 -119q-21 -17 -88 -19q28 -15 42 -30q26 -26 26 -66q0 -51 -50 -82.5t-130 -31.5q-49 0 -134 20l23 85q77 -11 96 -11q53 0 53 29q0 14 -15.5 24t-30 12.5t-24.5 2.5h-3v25l25 45
q-67 40 -67 128v244h-80v116h80v133h164z" />
    <glyph glyph-name="Tcaron" unicode="&#x164;" horiz-adv-x="652" 
d="M23 506v147h606v-147h-215v-506h-175v506h-216zM143 868h128l55 -76l55 76h128l-109 -146h-148z" />
    <glyph glyph-name="tcaron" unicode="&#x165;" horiz-adv-x="412" 
d="M261 626v-133h113v-116h-113v-224q0 -21 11.5 -29t36.5 -8q8 0 16.5 1t19.5 2t19 2l10 -119q-24 -20 -112 -20q-69 0 -117 36.5t-48 114.5v244h-80v116h80v133h164zM391 544h-78v246h133q0 -144 -55 -246z" />
    <glyph glyph-name="Tbar" unicode="&#x166;" horiz-adv-x="652" 
d="M23 506v147h606v-147h-215v-117h138v-117h-138v-272h-175v272h-138v117h138v117h-216z" />
    <glyph glyph-name="tbar" unicode="&#x167;" horiz-adv-x="412" 
d="M261 626v-133h113v-116h-113v-73h113v-106h-113v-45q0 -21 11.5 -29t36.5 -8q8 0 16.5 1t19.5 2t19 2l10 -119q-24 -20 -112 -20q-69 0 -117 36.5t-48 114.5v65h-80v106h80v73h-80v116h80v133h164z" />
    <glyph glyph-name="Utilde" unicode="&#x168;" horiz-adv-x="777" 
d="M520 653h175v-415q0 -121 -85 -189.5t-222 -68.5q-133 0 -219.5 69t-86.5 189v415h176v-415q0 -53 37.5 -82.5t92.5 -29.5q59 0 95.5 29.5t36.5 82.5v415zM276 713l-93 50q33 59 66 84t74 25q38 0 74 -24q38 -24 49 -24q12 0 23.5 8.5t17.5 16t17 22.5l85 -46
q-59 -111 -139 -111q-32 0 -68 22q-4 2 -11.5 7.5t-11 7.5t-9.5 5t-11 4.5t-10 1.5q-7 0 -13 -2.5t-12 -9t-9.5 -11t-10 -14t-8.5 -12.5z" />
    <glyph glyph-name="utilde" unicode="&#x169;" horiz-adv-x="615" 
d="M561 0h-154l-5 56q-65 -72 -168 -72q-71 0 -121 51.5t-50 128.5v329h164v-319q0 -24 17.5 -39.5t45.5 -15.5q43 0 92 49v325h163v-349q0 -61 16 -144zM195 544l-93 50q33 59 66 84t74 25q38 0 74 -24q38 -24 49 -24q12 0 23.5 8.5t17.5 16t17 22.5l85 -46
q-59 -111 -139 -111q-32 0 -68 22q-4 2 -11.5 7.5t-11 7.5t-9.5 5t-11 4.5t-10 1.5q-7 0 -13 -2.5t-12 -9t-9.5 -11t-10 -14t-8.5 -12.5z" />
    <glyph glyph-name="Umacron" unicode="&#x16a;" horiz-adv-x="777" 
d="M520 653h175v-415q0 -121 -85 -189.5t-222 -68.5q-133 0 -219.5 69t-86.5 189v415h176v-415q0 -53 37.5 -82.5t92.5 -29.5q59 0 95.5 29.5t36.5 82.5v415zM250 842h276v-106h-276v106z" />
    <glyph glyph-name="umacron" unicode="&#x16b;" horiz-adv-x="615" 
d="M561 0h-154l-5 56q-65 -72 -168 -72q-71 0 -121 51.5t-50 128.5v329h164v-319q0 -24 17.5 -39.5t45.5 -15.5q43 0 92 49v325h163v-349q0 -61 16 -144zM169 674h276v-106h-276v106z" />
    <glyph glyph-name="Ubreve" unicode="&#x16c;" horiz-adv-x="777" 
d="M520 653h175v-415q0 -121 -85 -189.5t-222 -68.5q-133 0 -219.5 69t-86.5 189v415h176v-415q0 -53 37.5 -82.5t92.5 -29.5q59 0 95.5 29.5t36.5 82.5v415zM216 868h112q0 -67 60 -67t60 67h112q0 -28 -7.5 -53.5t-25.5 -50t-53.5 -39t-85.5 -14.5t-85.5 14.5t-53.5 39
t-25.5 50t-7.5 53.5z" />
    <glyph glyph-name="ubreve" unicode="&#x16d;" horiz-adv-x="615" 
d="M561 0h-154l-5 56q-65 -72 -168 -72q-71 0 -121 51.5t-50 128.5v329h164v-319q0 -24 17.5 -39.5t45.5 -15.5q43 0 92 49v325h163v-349q0 -61 16 -144zM135 700h112q0 -67 60 -67t60 67h112q0 -28 -7.5 -53.5t-25.5 -50t-53.5 -39t-85.5 -14.5t-85.5 14.5t-53.5 39
t-25.5 50t-7.5 53.5z" />
    <glyph glyph-name="Uring" unicode="&#x16e;" horiz-adv-x="777" 
d="M520 653h175v-415q0 -121 -85 -189.5t-222 -68.5q-133 0 -219.5 69t-86.5 189v415h176v-415q0 -53 37.5 -82.5t92.5 -29.5q59 0 95.5 29.5t36.5 82.5v415zM240 806q0 49 38 84t107 35q68 0 106.5 -35t38.5 -84q0 -48 -38.5 -81t-106.5 -33q-69 0 -107 33t-38 81zM333 806
q0 -20 15 -32t37 -12t37 12t15 32q0 22 -15 37t-37 15t-37 -15t-15 -37z" />
    <glyph glyph-name="uring" unicode="&#x16f;" horiz-adv-x="615" 
d="M561 0h-154l-5 56q-65 -72 -168 -72q-71 0 -121 51.5t-50 128.5v329h164v-319q0 -24 17.5 -39.5t45.5 -15.5q43 0 92 49v325h163v-349q0 -61 16 -144zM159 657q0 49 38 84t107 35q68 0 106.5 -35t38.5 -84q0 -48 -38.5 -81t-106.5 -33q-69 0 -107 33t-38 81zM252 657
q0 -20 15 -32t37 -12t37 12t15 32q0 22 -15 37t-37 15t-37 -15t-15 -37z" />
    <glyph glyph-name="Uhungarumlaut" unicode="&#x170;" horiz-adv-x="777" 
d="M520 653h175v-415q0 -121 -85 -189.5t-222 -68.5q-133 0 -219.5 69t-86.5 189v415h176v-415q0 -53 37.5 -82.5t92.5 -29.5q59 0 95.5 29.5t36.5 82.5v415zM271 868h130l-70 -146h-100zM460 868h130l-70 -146h-100z" />
    <glyph glyph-name="uhungarumlaut" unicode="&#x171;" horiz-adv-x="615" 
d="M561 0h-154l-5 56q-65 -72 -168 -72q-71 0 -121 51.5t-50 128.5v329h164v-319q0 -24 17.5 -39.5t45.5 -15.5q43 0 92 49v325h163v-349q0 -61 16 -144zM190 700h130l-70 -146h-100zM379 700h130l-70 -146h-100z" />
    <glyph glyph-name="Uogonek" unicode="&#x172;" horiz-adv-x="777" 
d="M520 653h175v-415q0 -111 -72 -178t-193 -78q-57 -31 -57 -68t53 -37q14 0 56 8l13 -96q-49 -16 -98 -16q-67 0 -106.5 30t-39.5 79q0 56 57 106q-102 19 -164 84.5t-62 165.5v415h176v-415q0 -53 37.5 -82.5t92.5 -29.5q59 0 95.5 29.5t36.5 82.5v415z" />
    <glyph glyph-name="uogonek" unicode="&#x173;" horiz-adv-x="615" 
d="M561 0h-8q-25 -11 -41 -18.5t-36 -27t-20 -40.5q0 -37 53 -37q14 0 56 8l13 -96q-49 -16 -98 -16q-67 0 -106.5 30t-39.5 79q0 66 73 118l-5 56q-65 -72 -168 -72q-71 0 -121 51.5t-50 128.5v329h164v-319q0 -24 17.5 -39.5t45.5 -15.5q43 0 92 49v325h163v-349
q0 -61 16 -144z" />
    <glyph glyph-name="Wcircumflex" unicode="&#x174;" horiz-adv-x="991" 
d="M22 653h188l105 -377h6l113 377h129l112 -377h6l105 377h183l-209 -653h-159l-103 340h-6l-102 -340h-160zM421 868h148l109 -146h-128l-55 75l-55 -75h-128z" />
    <glyph glyph-name="wcircumflex" unicode="&#x175;" horiz-adv-x="801" 
d="M331 493h144l76 -277h6l59 277h163l-151 -493h-149l-76 268h-6l-76 -268h-149l-150 493h168l58 -277h6zM326 700h148l109 -146h-128l-55 75l-55 -75h-128z" />
    <glyph glyph-name="Ycircumflex" unicode="&#x176;" horiz-adv-x="660" 
d="M464 653h205l-251 -357v-296h-176v296l-252 357h214l131 -201zM256 868h148l109 -146h-128l-55 75l-55 -75h-128z" />
    <glyph glyph-name="ycircumflex" unicode="&#x177;" horiz-adv-x="550" 
d="M284 247h6l107 246h169l-328 -700h-171l131 264l-193 436h181zM210 700h148l109 -146h-128l-55 75l-55 -75h-128z" />
    <glyph glyph-name="Ydieresis" unicode="&#x178;" horiz-adv-x="660" 
d="M464 653h205l-251 -357v-296h-176v296l-252 357h214l131 -201zM363 801q0 32 24 54.5t60 22.5t61 -22.5t25 -54.5q0 -31 -25 -53t-61 -22t-60 21.5t-24 53.5zM126 801q0 32 24 54.5t60 22.5t61 -22.5t25 -54.5q0 -31 -25 -53t-61 -22t-60 21.5t-24 53.5z" />
    <glyph glyph-name="Zacute" unicode="&#x179;" horiz-adv-x="687" 
d="M634 147v-147h-591v99l339 407h-320v147h572v-99l-338 -407h338zM352 868h150l-110 -146h-140z" />
    <glyph glyph-name="zacute" unicode="&#x17a;" horiz-adv-x="537" 
d="M491 126v-126h-453v88l226 279h-208v126h435v-89l-226 -278h226zM278 700h150l-110 -146h-140z" />
    <glyph glyph-name="Zdotaccent" unicode="&#x17b;" horiz-adv-x="687" 
d="M634 147v-147h-591v99l339 407h-320v147h572v-99l-338 -407h338zM258 801q0 32 24 54.5t60 22.5t61 -22.5t25 -54.5q0 -31 -25 -53t-61 -22t-60 21.5t-24 53.5z" />
    <glyph glyph-name="zdotaccent" unicode="&#x17c;" horiz-adv-x="537" 
d="M491 126v-126h-453v88l226 279h-208v126h435v-89l-226 -278h226zM184 633q0 32 24 54.5t60 22.5t61 -22.5t25 -54.5q0 -31 -25 -53t-61 -22t-60 21.5t-24 53.5z" />
    <glyph glyph-name="Zcaron" unicode="&#x17d;" horiz-adv-x="687" 
d="M634 147v-147h-591v99l339 407h-320v147h572v-99l-338 -407h338zM160 868h128l55 -76l55 76h128l-109 -146h-148z" />
    <glyph glyph-name="zcaron" unicode="&#x17e;" horiz-adv-x="537" 
d="M491 126v-126h-453v88l226 279h-208v126h435v-89l-226 -278h226zM86 700h128l55 -76l55 76h128l-109 -146h-148z" />
    <glyph glyph-name="Schwa" unicode="&#x18f;" horiz-adv-x="774" 
d="M372 -20q-64 0 -121 19t-105 56.5t-76.5 102t-28.5 148.5q0 27 2 58h506q-11 70 -58 116t-119 46q-50 0 -109 -21.5t-99 -54.5l-111 108q63 50 147 82.5t175 32.5q161 0 259 -101t98 -245q0 -148 -102.5 -247.5t-257.5 -99.5zM375 121q57 0 98 31t59 86h-308
q8 -59 51.5 -88t99.5 -29z" />
    <glyph glyph-name="florin" unicode="&#x192;" horiz-adv-x="497" 
d="M49 261v85h114l27 120q9 43 41.5 71t70.5 38.5t80 10.5q79 0 91 -8l-23 -108q-48 -2 -66 -2q-33 0 -38 -23l-22 -99h123v-85h-142l-58 -258q-13 -59 -55.5 -99t-90 -55t-96.5 -15l-20 113q92 20 103 67l55 247h-94z" />
    <glyph glyph-name="Aringacute" unicode="&#x1fa;" horiz-adv-x="751" 
d="M185 0h-185l303 653h145l303 -653h-191l-42 100h-292zM369 445l-87 -209h180l-87 209h-6zM227 806q0 49 38 84t107 35q68 0 106.5 -35t38.5 -84q0 -48 -38.5 -81t-106.5 -33q-69 0 -107 33t-38 81zM320 806q0 -20 15 -32t37 -12t37 12t15 32q0 22 -15 37t-37 15t-37 -15
t-15 -37zM384 1127h150l-110 -146h-140z" />
    <glyph glyph-name="aringacute" unicode="&#x1fb;" horiz-adv-x="592" 
d="M115 355l-45 112q106 42 226 42q98 0 164.5 -37t66.5 -116v-252q0 -47 15 -104h-160q-5 20 -11 52q-32 -33 -62 -49t-82 -16q-89 0 -143 47.5t-54 118.5q0 73 56 120.5t149 47.5q77 0 129 -42v44q0 31 -23 47.5t-62 16.5q-68 0 -164 -32zM263 96q59 0 101 40v45
q-32 34 -92 34q-40 0 -60 -18t-20 -45t19 -41.5t52 -14.5zM148 657q0 49 38 84t107 35q68 0 106.5 -35t38.5 -84q0 -48 -38.5 -81t-106.5 -33q-69 0 -107 33t-38 81zM241 657q0 -20 15 -32t37 -12t37 12t15 32q0 22 -15 37t-37 15t-37 -15t-15 -37zM305 957h150l-110 -146
h-140z" />
    <glyph glyph-name="AEacute" unicode="&#x1fc;" horiz-adv-x="1056" 
d="M385 653h613v-147h-383v-103h230v-141h-230v-115h405v-147h-580v100h-228l-64 -100h-185zM434 445l-134 -209h140v209h-6zM614 868h150l-110 -146h-140z" />
    <glyph glyph-name="aeacute" unicode="&#x1fd;" horiz-adv-x="910" 
d="M796 143l57 -103q-42 -24 -103.5 -39.5t-118.5 -15.5q-129 0 -202 80q-92 -78 -202 -78q-89 0 -143 47.5t-54 118.5q0 73 56 120.5t149 47.5q77 0 129 -42v44q0 31 -23 47.5t-62 16.5q-68 0 -164 -32l-45 112q106 42 226 42q101 0 162 -51l7 -6q73 57 165 57
q65 0 118.5 -24.5t90.5 -83t37 -144.5q0 -17 -3 -53h-352q12 -44 47 -69.5t86 -25.5q70 0 142 34zM263 96q77 0 114 57q-3 8 -7 26q-39 36 -98 36q-40 0 -60 -18t-20 -45t19 -41.5t52 -14.5zM633 392q-88 0 -111 -92h198q0 42 -27.5 67t-59.5 25zM463 700h150l-110 -146
h-140z" />
    <glyph glyph-name="Oslashacute" unicode="&#x1fe;" horiz-adv-x="825" 
d="M615 719l97 -66l-49 -70q58 -48 90.5 -114.5t32.5 -140.5q0 -145 -109.5 -246.5t-265.5 -101.5q-81 0 -151 29l-52 -75l-97 66l49 70q-120 104 -120 258q0 143 108 244t263 101q81 0 151 -29zM604 328q0 65 -38 117l-216 -309q27 -10 61 -10q81 0 137 59.5t56 142.5z
M221 328q0 -67 36 -119l215 307q-32 10 -61 10q-80 0 -135 -58t-55 -140zM421 868h150l-110 -146h-140z" />
    <glyph glyph-name="oslashacute" unicode="&#x1ff;" horiz-adv-x="623" 
d="M320 700h150l-110 -146h-140zM160 -61l-87 61l42 60q-78 76 -78 189q0 112 76.5 186t198.5 74q56 0 105 -17l45 64l87 -61l-41 -58q80 -75 80 -188q0 -111 -77.5 -187.5t-198.5 -76.5q-56 0 -107 19zM312 106q55 0 88 42t33 101q0 35 -12 63l-141 -202q13 -4 32 -4z
M193 249q0 -32 11 -62l137 196q-18 4 -29 4q-55 0 -87 -39t-32 -99z" />
    <glyph glyph-name="uni0218" unicode="&#x218;" horiz-adv-x="725" 
d="M651 593l-95 -122q-110 64 -221 64q-42 0 -70.5 -18t-28.5 -48q0 -15 11.5 -25.5t30 -16t42 -9t48.5 -5.5q9 -1 14 -1q34 -2 55.5 -4t57.5 -8t59.5 -14.5t52 -24t45 -35t28 -49.5t11.5 -67q0 -117 -83.5 -173.5t-216.5 -56.5q-197 0 -362 121l94 119q145 -103 265 -103
q59 0 93.5 22.5t34.5 55.5q0 32 -33.5 44.5t-106.5 18.5q-41 3 -64 5.5t-61.5 9t-60.5 15t-50 23.5t-43 34.5t-25.5 49t-10.5 65.5q0 58 25 101t67 66.5t88.5 34.5t97.5 11q91 0 175 -24.5t137 -55.5zM331 -70l124 30q32 -48 32 -91q0 -58 -48 -93.5t-128 -35.5
q-47 0 -98 16l13 86q42 -8 56 -8q63 0 63 47q0 16 -14 49z" />
    <glyph glyph-name="uni0219" unicode="&#x219;" horiz-adv-x="558" 
d="M502 463l-54 -111q-94 39 -174 39q-63 0 -63 -37q0 -16 11.5 -24t23.5 -9.5t39 -2.5q35 -2 60 -4.5t62 -12t60 -25.5t40 -45.5t17 -70.5q0 -85 -66 -131t-171 -46q-133 0 -256 75l54 111q41 -26 100.5 -46t106.5 -20q69 0 69 43q0 38 -79 43q-35 2 -48.5 3t-44.5 5.5
t-45.5 10t-36 16.5t-31.5 25.5t-18 37t-8 50.5q0 90 63.5 132t152.5 42q58 0 127.5 -15.5t108.5 -32.5zM207 -63l126 23q1 -1 8.5 -9.5t11.5 -14.5t10 -17t9 -23.5t3 -27.5q0 -57 -44.5 -92.5t-124.5 -35.5q-27 0 -52 8v89q12 -3 36 -3q43 0 43 44q0 24 -26 59z" />
    <glyph glyph-name="uni021A" unicode="&#x21a;" horiz-adv-x="652" 
d="M23 506v147h606v-147h-215v-506h-175v506h-216zM295 -70l124 30q32 -48 32 -91q0 -58 -48 -93.5t-128 -35.5q-47 0 -98 16l13 86q42 -8 56 -8q63 0 63 47q0 16 -14 49z" />
    <glyph glyph-name="uni021B" unicode="&#x21b;" horiz-adv-x="412" 
d="M261 626v-133h113v-116h-113v-224q0 -21 11.5 -29t36.5 -8q8 0 16.5 1t19.5 2t19 2l10 -119q-24 -20 -112 -20q-69 0 -117 36.5t-48 114.5v244h-80v116h80v133h164zM149 -63l126 23q1 -1 8.5 -9.5t11.5 -14.5t10 -17t9 -23.5t3 -27.5q0 -57 -44.5 -92.5t-124.5 -35.5
q-27 0 -52 8v89q12 -3 36 -3q43 0 43 44q0 24 -26 59z" />
    <glyph glyph-name="dotlessj" unicode="&#x237;" horiz-adv-x="300" 
d="M20 -228l-43 117q27 6 44 11.5t32 21t15 37.5v534h164v-534q0 -49 -20 -87t-52 -59t-67.5 -31t-72.5 -10z" />
    <glyph glyph-name="schwa" unicode="&#x259;" horiz-adv-x="583" 
d="M114 351l-57 103q42 24 103.5 39.5t118.5 15.5q126 0 197 -74.5t71 -183.5q0 -113 -76 -189.5t-191 -76.5q-65 0 -118.5 24.5t-90.5 83t-37 144.5q0 17 3 53h351q-12 44 -46.5 69.5t-85.5 25.5q-70 0 -142 -34zM277 102q88 0 111 92h-198q0 -42 27.5 -67t59.5 -25z" />
    <glyph glyph-name="circumflex" unicode="&#x2c6;" 
d="M172 700h148l109 -146h-128l-55 75l-55 -75h-128z" />
    <glyph glyph-name="caron" unicode="&#x2c7;" 
d="M63 700h128l55 -76l55 76h128l-109 -146h-148z" />
    <glyph glyph-name="breve" unicode="&#x2d8;" 
d="M74 700h112q0 -67 60 -67t60 67h112q0 -28 -7.5 -53.5t-25.5 -50t-53.5 -39t-85.5 -14.5t-85.5 14.5t-53.5 39t-25.5 50t-7.5 53.5z" />
    <glyph glyph-name="dotaccent" unicode="&#x2d9;" 
d="M161 633q0 32 24 54.5t60 22.5t61 -22.5t25 -54.5q0 -31 -25 -53t-61 -22t-60 21.5t-24 53.5z" />
    <glyph glyph-name="ring" unicode="&#x2da;" 
d="M98 657q0 49 38 84t107 35q68 0 106.5 -35t38.5 -84q0 -48 -38.5 -81t-106.5 -33q-69 0 -107 33t-38 81zM191 657q0 -20 15 -32t37 -12t37 12t15 32q0 22 -15 37t-37 15t-37 -15t-15 -37z" />
    <glyph glyph-name="ogonek" unicode="&#x2db;" 
d="M233 40l74 -40q-25 -11 -41 -18.5t-36 -27t-20 -40.5q0 -37 53 -37q14 0 56 8l13 -96q-49 -16 -98 -16q-67 0 -106.5 30t-39.5 79q0 95 145 158z" />
    <glyph glyph-name="tilde" unicode="&#x2dc;" 
d="M134 544l-93 50q33 59 66 84t74 25q38 0 74 -24q38 -24 49 -24q12 0 23.5 8.5t17.5 16t17 22.5l85 -46q-59 -111 -139 -111q-32 0 -68 22q-4 2 -11.5 7.5t-11 7.5t-9.5 5t-11 4.5t-10 1.5q-7 0 -13 -2.5t-12 -9t-9.5 -11t-10 -14t-8.5 -12.5z" />
    <glyph glyph-name="hungarumlaut" unicode="&#x2dd;" 
d="M129 700h130l-70 -146h-100zM318 700h130l-70 -146h-100z" />
    <glyph glyph-name="Delta" unicode="&#x394;" horiz-adv-x="728" 
d="M42 115l250 538h146l248 -538v-115h-644v115zM358 446l-125 -307h257l-126 307h-6z" />
    <glyph glyph-name="Delta" unicode="&#x2206;" horiz-adv-x="728" 
d="M42 115l250 538h146l248 -538v-115h-644v115zM358 446l-125 -307h257l-126 307h-6z" />
    <glyph glyph-name="Omega" unicode="&#x3a9;" horiz-adv-x="871" 
d="M64 0v139h144q-74 42 -116 101.5t-42 126.5q0 127 112 216.5t273 89.5q162 0 275 -89.5t113 -216.5q0 -66 -43.5 -125.5t-119.5 -102.5h145v-139h-330v120q74 20 119.5 80t45.5 137q0 79 -59.5 133.5t-145.5 54.5q-85 0 -143.5 -54.5t-58.5 -133.5q0 -76 44.5 -135.5
t116.5 -81.5v-120h-330z" />
    <glyph glyph-name="Omega" unicode="&#x2126;" horiz-adv-x="871" 
d="M64 0v139h144q-74 42 -116 101.5t-42 126.5q0 127 112 216.5t273 89.5q162 0 275 -89.5t113 -216.5q0 -66 -43.5 -125.5t-119.5 -102.5h145v-139h-330v120q74 20 119.5 80t45.5 137q0 79 -59.5 133.5t-145.5 54.5q-85 0 -143.5 -54.5t-58.5 -133.5q0 -76 44.5 -135.5
t116.5 -81.5v-120h-330z" />
    <glyph glyph-name="pi" unicode="&#x3c0;" horiz-adv-x="693" 
d="M31 367v126h637v-126h-92l-30 -286q-4 -38 -1 -81h-164q-3 43 1 81l30 286h-113l-42 -367h-162l42 367h-106z" />
    <glyph glyph-name="Wgrave" unicode="&#x1e80;" horiz-adv-x="991" 
d="M22 653h188l105 -377h6l113 377h129l112 -377h6l105 377h183l-209 -653h-159l-103 340h-6l-102 -340h-160zM336 868h150l100 -146h-140z" />
    <glyph glyph-name="wgrave" unicode="&#x1e81;" horiz-adv-x="801" 
d="M331 493h144l76 -277h6l59 277h163l-151 -493h-149l-76 268h-6l-76 -268h-149l-150 493h168l58 -277h6zM241 700h150l100 -146h-140z" />
    <glyph glyph-name="Wacute" unicode="&#x1e82;" horiz-adv-x="991" 
d="M22 653h188l105 -377h6l113 377h129l112 -377h6l105 377h183l-209 -653h-159l-103 340h-6l-102 -340h-160zM504 868h150l-110 -146h-140z" />
    <glyph glyph-name="wacute" unicode="&#x1e83;" horiz-adv-x="801" 
d="M331 493h144l76 -277h6l59 277h163l-151 -493h-149l-76 268h-6l-76 -268h-149l-150 493h168l58 -277h6zM409 700h150l-110 -146h-140z" />
    <glyph glyph-name="Wdieresis" unicode="&#x1e84;" horiz-adv-x="991" 
d="M22 653h188l105 -377h6l113 377h129l112 -377h6l105 377h183l-209 -653h-159l-103 340h-6l-102 -340h-160zM528 801q0 32 24 54.5t60 22.5t61 -22.5t25 -54.5q0 -31 -25 -53t-61 -22t-60 21.5t-24 53.5zM291 801q0 32 24 54.5t60 22.5t61 -22.5t25 -54.5q0 -31 -25 -53
t-61 -22t-60 21.5t-24 53.5z" />
    <glyph glyph-name="wdieresis" unicode="&#x1e85;" horiz-adv-x="801" 
d="M331 493h144l76 -277h6l59 277h163l-151 -493h-149l-76 268h-6l-76 -268h-149l-150 493h168l58 -277h6zM433 633q0 32 24 54.5t60 22.5t61 -22.5t25 -54.5q0 -31 -25 -53t-61 -22t-60 21.5t-24 53.5zM196 633q0 32 24 54.5t60 22.5t61 -22.5t25 -54.5q0 -31 -25 -53
t-61 -22t-60 21.5t-24 53.5z" />
    <glyph glyph-name="Ygrave" unicode="&#x1ef2;" horiz-adv-x="660" 
d="M464 653h205l-251 -357v-296h-176v296l-252 357h214l131 -201zM171 868h150l100 -146h-140z" />
    <glyph glyph-name="ygrave" unicode="&#x1ef3;" horiz-adv-x="550" 
d="M284 247h6l107 246h169l-328 -700h-171l131 264l-193 436h181zM125 700h150l100 -146h-140z" />
    <glyph glyph-name="endash" unicode="&#x2013;" horiz-adv-x="628" 
d="M58 202v136h512v-136h-512z" />
    <glyph glyph-name="emdash" unicode="&#x2014;" horiz-adv-x="1057" 
d="M58 202v136h941v-136h-941z" />
    <glyph glyph-name="quoteleft" unicode="&#x2018;" horiz-adv-x="308" 
d="M233 683l31 -76q-38 -9 -75 -34.5t-37 -53.5v-8q20 5 30 5q32 0 54.5 -22.5t22.5 -55.5q0 -38 -31 -64t-74 -26q-48 0 -80.5 34.5t-32.5 89.5q0 43 18 80t48 62t61 41.5t65 27.5z" />
    <glyph glyph-name="quoteright" unicode="&#x2019;" horiz-adv-x="304" 
d="M78 338l-31 76q38 9 75 34.5t37 53.5v8q-20 -5 -30 -5q-32 0 -54.5 22.5t-22.5 55.5q0 38 31 64t74 26q48 0 80.5 -34.5t32.5 -89.5q0 -43 -18 -80t-48 -62t-61 -41.5t-65 -27.5z" />
    <glyph glyph-name="quotesinglbase" unicode="&#x201a;" horiz-adv-x="316" 
d="M75 -167l-31 76q38 9 75 34.5t37 53.5v8q-20 -5 -30 -5q-32 0 -54.5 22.5t-22.5 55.5q0 38 31 64t74 26q48 0 80.5 -34.5t32.5 -89.5q0 -43 -18 -80t-48 -62t-61 -41.5t-65 -27.5z" />
    <glyph glyph-name="quotedblleft" unicode="&#x201c;" horiz-adv-x="587" 
d="M233 683l31 -76q-38 -9 -75 -34.5t-37 -53.5v-8q20 5 30 5q32 0 54.5 -22.5t22.5 -55.5q0 -38 -31 -64t-74 -26q-48 0 -80.5 34.5t-32.5 89.5q0 43 18 80t48 62t61 41.5t65 27.5zM512 683l31 -76q-38 -9 -75 -34.5t-37 -53.5v-8q20 5 30 5q32 0 54.5 -22.5t22.5 -55.5
q0 -38 -31 -64t-74 -26q-48 0 -80.5 34.5t-32.5 89.5q0 43 18 80t48 62t61 41.5t65 27.5z" />
    <glyph glyph-name="quotedblright" unicode="&#x201d;" horiz-adv-x="584" 
d="M357 338l-31 76q38 9 75 34.5t37 53.5v8q-20 -5 -30 -5q-32 0 -54.5 22.5t-22.5 55.5q0 38 31 64t74 26q48 0 80.5 -34.5t32.5 -89.5q0 -43 -18 -80t-48 -62t-61 -41.5t-65 -27.5zM78 338l-31 76q38 9 75 34.5t37 53.5v8q-20 -5 -30 -5q-32 0 -54.5 22.5t-22.5 55.5
q0 38 31 64t74 26q48 0 80.5 -34.5t32.5 -89.5q0 -43 -18 -80t-48 -62t-61 -41.5t-65 -27.5z" />
    <glyph glyph-name="quotedblbase" unicode="&#x201e;" horiz-adv-x="595" 
d="M354 -167l-31 76q38 9 75 34.5t37 53.5v8q-20 -5 -30 -5q-32 0 -54.5 22.5t-22.5 55.5q0 38 31 64t74 26q48 0 80.5 -34.5t32.5 -89.5q0 -43 -18 -80t-48 -62t-61 -41.5t-65 -27.5zM75 -167l-31 76q38 9 75 34.5t37 53.5v8q-20 -5 -30 -5q-32 0 -54.5 22.5t-22.5 55.5
q0 38 31 64t74 26q48 0 80.5 -34.5t32.5 -89.5q0 -43 -18 -80t-48 -62t-61 -41.5t-65 -27.5z" />
    <glyph glyph-name="dagger" unicode="&#x2020;" horiz-adv-x="513" 
d="M189 700h134v-157h147v-107h-147v-357h-134v357h-146v107h146v157z" />
    <glyph glyph-name="daggerdbl" unicode="&#x2021;" horiz-adv-x="525" 
d="M329 241v-162h-134v162h-146v107h146v88h-146v107h146v157h134v-157h147v-107h-147v-88h147v-107h-147z" />
    <glyph glyph-name="bullet" unicode="&#x2022;" horiz-adv-x="470" 
d="M235 120q-75 0 -128.5 49.5t-53.5 120.5t53.5 120.5t128.5 49.5t128 -49.5t53 -120.5t-53 -120.5t-128 -49.5z" />
    <glyph glyph-name="ellipsis" unicode="&#x2026;" horiz-adv-x="1000" 
d="M66 81q0 40 31 68.5t75 28.5q45 0 76 -29t31 -68q0 -40 -31 -68t-76 -28t-75.5 27.5t-30.5 68.5zM393 81q0 40 31 68.5t75 28.5q45 0 76 -29t31 -68q0 -40 -31 -68t-76 -28t-75.5 27.5t-30.5 68.5zM720 81q0 40 31 68.5t75 28.5q45 0 76 -29t31 -68q0 -40 -31 -68
t-76 -28t-75.5 27.5t-30.5 68.5z" />
    <glyph glyph-name="perthousand" unicode="&#x2030;" horiz-adv-x="1488" 
d="M633 605h138l-361 -605h-138zM44 442q0 73 60.5 125.5t147.5 52.5q86 0 148 -52.5t62 -125.5q0 -75 -62 -128t-148 -53q-87 0 -147.5 53t-60.5 128zM186 442q0 -28 19.5 -48.5t46.5 -20.5q28 0 48 20t20 49q0 28 -20 47.5t-48 19.5q-27 0 -46.5 -19.5t-19.5 -47.5z
M581 165q0 73 60.5 126t146.5 53t148.5 -53t62.5 -126q0 -74 -62.5 -127t-148.5 -53q-87 0 -147 52.5t-60 127.5zM722 165q0 -28 19.5 -48t46.5 -20q28 0 48.5 20t20.5 48t-20.5 48t-48.5 20q-27 0 -46.5 -20t-19.5 -48zM1029 165q0 73 60.5 126t146.5 53t148.5 -53
t62.5 -126q0 -74 -62.5 -127t-148.5 -53q-87 0 -147 52.5t-60 127.5zM1171 165q0 -28 19 -48t46 -20q29 0 49.5 20t20.5 48t-20.5 48t-49.5 20q-27 0 -46 -20t-19 -48z" />
    <glyph glyph-name="guilsinglleft" unicode="&#x2039;" horiz-adv-x="375" 
d="M144 417h175l-130 -156v-8l130 -154h-175l-104 128v61z" />
    <glyph glyph-name="guilsinglright" unicode="&#x203a;" horiz-adv-x="375" 
d="M56 417h175l104 -129v-61l-104 -128h-175l130 154v8z" />
    <glyph glyph-name="fraction" unicode="&#x2044;" horiz-adv-x="212" 
d="M223 653h140l-372 -653h-140z" />
    <glyph glyph-name="zero.superior" unicode="&#x2070;" horiz-adv-x="578" 
d="M30 437q0 97 76 163.5t183 66.5t183.5 -66.5t76.5 -163.5q0 -94 -77 -162.5t-183 -68.5t-182.5 68t-76.5 163zM168 437q0 -48 35.5 -84.5t85.5 -36.5q49 0 85.5 36.5t36.5 84.5q0 49 -36 84.5t-86 35.5t-85.5 -35t-35.5 -85z" />
    <glyph glyph-name="four.superior" unicode="&#x2074;" horiz-adv-x="569" 
d="M541 398v-95h-79v-83h-138v83h-308v69l318 281h128v-255h79zM200 401v-3h124v108h-8z" />
    <glyph glyph-name="five.superior" unicode="&#x2075;" horiz-adv-x="536" 
d="M463 653v-101h-269v-88q58 48 128 48q76 0 132.5 -36.5t56.5 -106.5q0 -54 -37 -92t-90.5 -54.5t-115.5 -16.5q-117 0 -250 58l53 91q107 -48 196 -48q42 0 69 17t27 45q0 46 -76 46q-61 0 -139 -41l-77 52v227h392z" />
    <glyph glyph-name="six.superior" unicode="&#x2076;" horiz-adv-x="534" 
d="M485 637l-52 -89q-68 19 -119 19q-61 0 -103.5 -33t-46.5 -90q72 61 157 61q87 0 138 -42.5t51 -99.5q0 -65 -63.5 -111t-158.5 -46q-106 0 -182 59t-76 163q0 108 82.5 173.5t194.5 65.5q96 0 178 -30zM296 410q-57 0 -121 -33q14 -33 43.5 -51.5t66.5 -18.5q38 0 63 17
t25 38q0 19 -18.5 33.5t-58.5 14.5z" />
    <glyph glyph-name="seven.superior" unicode="&#x2077;" horiz-adv-x="489" 
d="M25 543v110h441v-91l-242 -342h-170l239 323h-268z" />
    <glyph glyph-name="eight.superior" unicode="&#x2078;" horiz-adv-x="539" 
d="M270 204q-97 0 -169 40.5t-72 107.5q0 71 87 112q-62 37 -62 80q0 38 35 67.5t83.5 43.5t99.5 14q80 0 146.5 -34.5t66.5 -96.5q0 -48 -59 -74q84 -40 84 -112q0 -67 -72 -107.5t-168 -40.5zM270 306q38 0 67 14t29 38q0 23 -30 36t-66 13t-66.5 -13t-30.5 -36
t29.5 -37.5t67.5 -14.5zM270 500q71 0 71 34q0 19 -22.5 29.5t-48.5 10.5q-27 0 -49 -10.5t-22 -29.5q0 -34 71 -34z" />
    <glyph glyph-name="nine.superior" unicode="&#x2079;" horiz-adv-x="534" 
d="M49 236l52 89q68 -19 119 -19q60 0 102 32.5t46 89.5q-73 -60 -156 -60q-86 0 -137 42.5t-51 99.5q0 65 63 111t158 46q107 0 183 -59t76 -163q0 -108 -82.5 -173.5t-194.5 -65.5q-96 0 -178 30zM237 463q55 0 121 32q-15 33 -44 52t-65 19q-38 0 -63 -17t-25 -38
q0 -19 18.5 -33.5t57.5 -14.5z" />
    <glyph glyph-name="parenleft.superior" unicode="&#x207d;" horiz-adv-x="313" 
d="M239 712l61 -74q-63 -37 -100 -99t-37 -133q0 -70 37 -131.5t100 -98.5l-61 -74q-102 51 -158.5 131t-56.5 173t57 174t158 132z" />
    <glyph glyph-name="parenright.superior" unicode="&#x207e;" horiz-adv-x="313" 
d="M13 638l61 74q101 -51 158 -132t57 -174t-56.5 -173t-158.5 -131l-61 74q63 37 100 98.5t37 131.5q0 71 -37 133t-100 99z" />
    <glyph glyph-name="n.superior" unicode="&#x207f;" horiz-adv-x="488" 
d="M172 543q51 54 131 54q55 0 94 -38.5t39 -95.5v-243h-127v236q0 18 -14 29.5t-36 11.5q-33 0 -71 -36v-241h-128v258q0 46 -12 107h117z" />
    <glyph glyph-name="zero.inferior" unicode="&#x2080;" horiz-adv-x="569" 
d="M25 49q0 97 76 163.5t183 66.5t183.5 -66.5t76.5 -163.5q0 -94 -77 -162.5t-183 -68.5t-182.5 68t-76.5 163zM163 49q0 -48 35.5 -84.5t85.5 -36.5q49 0 85.5 36.5t36.5 84.5q0 49 -36 84.5t-86 35.5t-85.5 -35t-35.5 -85z" />
    <glyph glyph-name="one.inferior" unicode="&#x2081;" horiz-adv-x="336" 
d="M29 99l-29 106l152 60h113v-433h-139v304z" />
    <glyph glyph-name="two.inferior" unicode="&#x2082;" horiz-adv-x="488" 
d="M101 108l-71 82q41 30 67 46t69.5 29.5t91.5 13.5q81 0 138.5 -34t57.5 -102q0 -32 -13 -57t-40 -42.5t-54 -29t-67 -24.5q-104 -33 -104 -50v-4h270v-104h-409v77q0 74 56 117.5t161 70.5q62 17 62 47q0 34 -54 34q-43 0 -79 -17.5t-82 -52.5z" />
    <glyph glyph-name="three.inferior" unicode="&#x2083;" horiz-adv-x="534" 
d="M206 10v95h75q26 0 40 9.5t14 23.5q0 20 -19 30t-42 10q-67 0 -152 -65l-74 82q117 84 227 84q46 0 89 -11.5t76.5 -42.5t33.5 -75q0 -36 -53 -71q85 -38 85 -106q0 -71 -70.5 -113t-176.5 -42q-139 0 -246 91l71 81q90 -71 175 -71q47 0 77.5 16t30.5 42q0 33 -56 33
h-105z" />
    <glyph glyph-name="four.inferior" unicode="&#x2084;" horiz-adv-x="563" 
d="M541 10v-95h-79v-83h-138v83h-308v69l318 281h128v-255h79zM200 13v-3h124v108h-8z" />
    <glyph glyph-name="five.inferior" unicode="&#x2085;" horiz-adv-x="530" 
d="M460 265v-101h-269v-88q58 48 128 48q76 0 132.5 -36.5t56.5 -106.5q0 -54 -37 -92t-90.5 -54.5t-115.5 -16.5q-117 0 -250 58l53 91q107 -48 196 -48q42 0 69 17t27 45q0 46 -76 46q-61 0 -139 -41l-77 52v227h392z" />
    <glyph glyph-name="six.inferior" unicode="&#x2086;" horiz-adv-x="529" 
d="M481 249l-52 -89q-68 19 -119 19q-61 0 -103.5 -33t-46.5 -90q72 61 157 61q87 0 138 -42.5t51 -99.5q0 -65 -63.5 -111t-158.5 -46q-106 0 -182 59t-76 163q0 108 82.5 173.5t194.5 65.5q96 0 178 -30zM292 22q-55 0 -121 -32q14 -33 44 -52t66 -19q38 0 63 17t25 38
q0 19 -18.5 33.5t-58.5 14.5z" />
    <glyph glyph-name="seven.inferior" unicode="&#x2087;" horiz-adv-x="482" 
d="M26 155v110h441v-91l-242 -342h-170l239 323h-268z" />
    <glyph glyph-name="eight.inferior" unicode="&#x2088;" horiz-adv-x="537" 
d="M269 -184q-97 0 -169 40.5t-72 107.5q0 71 87 112q-62 37 -62 80q0 38 35 67.5t83.5 43.5t99.5 14q80 0 146.5 -34.5t66.5 -96.5q0 -48 -59 -74q84 -40 84 -112q0 -67 -72 -107.5t-168 -40.5zM269 -82q38 0 67 14t29 38q0 23 -30 36t-66 13t-66.5 -13t-30.5 -36
t29.5 -37.5t67.5 -14.5zM269 112q71 0 71 34q0 19 -22.5 29.5t-48.5 10.5q-27 0 -49 -10.5t-22 -29.5q0 -34 71 -34z" />
    <glyph glyph-name="nine.inferior" unicode="&#x2089;" horiz-adv-x="529" 
d="M48 -152l52 89q68 -19 119 -19q60 0 102 32.5t46 89.5q-73 -60 -156 -60q-86 0 -137 42.5t-51 99.5q0 65 63 111t158 46q107 0 183 -59t76 -163q0 -108 -82.5 -173.5t-194.5 -65.5q-96 0 -178 30zM236 75q55 0 121 32q-15 33 -44 52t-65 19q-38 0 -63 -17t-25 -38
q0 -19 18.5 -33.5t57.5 -14.5z" />
    <glyph glyph-name="colonmonetary" unicode="&#x20a1;" horiz-adv-x="746" 
d="M522 659h73l-24 -108q70 -24 125 -61l-100 -104q-21 15 -55 31l-65 -292q67 21 127 73l101 -102q-112 -91 -259 -110l-23 -105h-73l22 102q-32 0 -72 7l-24 -109h-73l29 130q-88 36 -139 109.5t-51 164.5q0 119 89 205.5t228 93.5l17 75h73l-17 -77q33 -3 71 -11z
M329 126q38 -12 72 -12l73 328q-41 11 -72 11zM214 284q0 -71 51 -119l61 275q-52 -19 -82 -61.5t-30 -94.5z" />
    <glyph glyph-name="franc" unicode="&#x20a3;" horiz-adv-x="713" 
d="M46 84v86h101v398h522v-121h-355v-78h225v-120h-225v-79h158v-86h-158v-84h-167v84h-101z" />
    <glyph glyph-name="lira" unicode="&#x20a4;" horiz-adv-x="702" 
d="M53 315v76h130v25q0 83 68.5 127t162.5 44q107 0 237 -54l-64 -116q-95 43 -163 43q-26 0 -47.5 -18t-24.5 -51h186v-76h-186v-57h186v-75h-193q-15 -45 -79 -55h385v-128h-598v128h39q41 0 61 11.5t26 43.5h-126v75h130v57h-130z" />
    <glyph glyph-name="peseta" unicode="&#x20a7;" horiz-adv-x="1594" 
d="M887 626v-133h113v-116h-113v-224q0 -21 11.5 -29t36.5 -8q8 0 16.5 1t19.5 2t19 2l10 -119q-24 -20 -112 -20q-69 0 -117 36.5t-48 114.5v244h-65q-3 -70 -52 -117q-65 -64 -191 -64h-169v-196h-169v568h338q131 0 195 -69q4 -4 5 -6h108v133h164zM1527 463l-54 -111
q-94 39 -174 39q-63 0 -63 -37q0 -16 11.5 -24t23.5 -9.5t39 -2.5q35 -2 60 -4.5t62 -12t60 -25.5t40 -45.5t17 -70.5q0 -85 -66 -131t-171 -46q-133 0 -256 75l54 111q41 -26 100.5 -46t106.5 -20q69 0 69 43q0 38 -79 43q-35 2 -48.5 3t-44.5 5.5t-45.5 10t-36 16.5
t-31.5 25.5t-18 37t-8 50.5q0 90 63.5 132t152.5 42q58 0 127.5 -15.5t108.5 -32.5zM425 437h-179v-110h179q31 0 48 17t17 38q0 20 -15 37q-17 18 -50 18z" />
    <glyph glyph-name="Euro" unicode="&#x20ac;" horiz-adv-x="779" 
d="M48 315v76h103q35 87 119.5 141t198.5 54q65 0 132.5 -19t115.5 -49l-81 -102q-68 38 -146 38q-94 0 -147 -63h190v-76h-226q-3 -16 -3 -32q0 -17 2 -25h227v-75h-195q55 -70 157 -70q81 0 159 56l81 -100q-120 -87 -261 -87q-120 0 -206.5 55.5t-119.5 145.5h-100v75h83
q-1 8 -1 26q0 9 2 31h-84z" />
    <glyph glyph-name="peso" unicode="&#x20b1;" horiz-adv-x="800" 
d="M38 314v76h70v178h311q142 0 216 -76q41 -43 55 -102h87v-76h-84q-10 -72 -63 -121q-73 -70 -211 -70h-144v-123h-167v314h-70zM496 267q19 19 28 47h-249v-70h154q41 0 67 23zM429 447h-154v-57h244q-7 15 -20 30q-26 27 -70 27z" />
    <glyph glyph-name="Rupee" unicode="&#x20b9;" horiz-adv-x="780" 
d="M108 314v76h361q-7 15 -20 30q-26 27 -70 27h-271v121h619v-76h-162q55 -40 73 -102h89v-76h-84q-10 -72 -63 -121q-60 -48 -176 -54h-43l236 -139h-241l-248 167v77h271q41 0 67 23q19 19 28 47h-366z" />
    <glyph glyph-name="litre" unicode="&#x2113;" horiz-adv-x="591" 
d="M326 -15q-171 0 -190 125v1l-63 -33l-32 109l93 50v193q0 207 208 207q90 0 142.5 -47t52.5 -121q0 -73 -63.5 -143.5t-177.5 -127.5v-48q0 -41 63 -41q36 0 126 43l25 -117q-105 -50 -184 -50zM296 340q43 26 66 59t23 62t-11.5 45.5t-30.5 16.5q-22 0 -34.5 -18.5
t-12.5 -74.5v-90z" />
    <glyph glyph-name="soundrecordingcopyright" unicode="&#x2117;" horiz-adv-x="1068" 
d="M606 169h-115v-112h-162v445h252q38 0 72.5 -7t70 -23.5t56.5 -50.5t21 -83q0 -82 -58.5 -125.5t-136.5 -43.5zM491 384v-97h93q55 0 55 49q0 24 -16 36t-39 12h-93zM532 732q202 0 346 -135t144 -327q0 -127 -66 -233.5t-178.5 -168t-245.5 -61.5q-134 0 -247.5 61.5
t-180 168t-66.5 233.5q0 126 66.5 232.5t180 168t247.5 61.5zM532 624q-152 0 -264 -105.5t-112 -248.5q0 -147 111 -250.5t265 -103.5q157 0 265 102.5t108 251.5q0 145 -109 249.5t-264 104.5z" />
    <glyph glyph-name="servicemark" unicode="&#x2120;" horiz-adv-x="841" 
d="M342 641l-40 -73q-41 22 -106 22q-38 0 -38 -21q0 -15 12.5 -20t54.5 -10q65 -8 97.5 -30.5t32.5 -81.5t-43 -86.5t-112 -27.5q-87 0 -150 43l31 68q51 -34 117 -34q62 0 62 29q0 27 -45 31q-26 2 -43.5 4.5t-40 10t-36 18t-23 29.5t-9.5 45q0 59 39.5 85t95.5 26
q88 0 144 -27zM777 326h-99v150h-3l-76 -131h-9l-77 131h-3v-150h-93v327h96l85 -150h1l86 150h92v-327z" />
    <glyph glyph-name="trademark" unicode="&#x2122;" horiz-adv-x="841" 
d="M771 326h-99v150h-3l-76 -131h-9l-77 131h-3v-150h-93v327h96l85 -150h1l86 150h92v-327zM45 573v80h308v-80h-104v-247h-99v247h-105z" />
    <glyph glyph-name="estimated" unicode="&#x212e;" horiz-adv-x="825" 
d="M231 438v-77q0 -6 6 -6h353q8 0 8 6v77q0 9 -6 21q-58 83 -176 83q-49 0 -102 -24t-76 -59q-7 -11 -7 -21zM761 161q-66 -90 -155.5 -134.5t-189.5 -44.5q-143 0 -255.5 90.5t-111.5 224.5q0 92 54 165t137.5 110.5t175.5 37.5q151 0 258 -91.5t107 -240.5h-544
q-6 0 -6 -8v-100q0 -19 7 -28q77 -92 178 -92q121 0 208 111h137z" />
    <glyph glyph-name="onethird" unicode="&#x2153;" horiz-adv-x="1082" 
d="M29 487l-29 106l152 60h113v-433h-139v304zM559 653h140l-372 -653h-140zM754 178v95h75q26 0 40 9.5t14 23.5q0 20 -19 30t-42 10q-67 0 -152 -65l-74 82q117 84 227 84q46 0 89 -11.5t76.5 -42.5t33.5 -75q0 -36 -53 -71q85 -38 85 -106q0 -71 -70.5 -113t-176.5 -42
q-139 0 -246 91l71 81q90 -71 175 -71q47 0 77.5 16t30.5 42q0 33 -56 33h-105z" />
    <glyph glyph-name="twothirds" unicode="&#x2154;" horiz-adv-x="1260" 
d="M101 496l-71 82q41 30 67 46t69.5 29.5t91.5 13.5q81 0 138.5 -34t57.5 -102q0 -32 -13 -57t-40 -42.5t-54 -29t-67 -24.5q-104 -33 -104 -50v-4h270v-104h-409v77q0 74 56 117.5t161 70.5q62 17 62 47q0 34 -54 34q-43 0 -79 -17.5t-82 -52.5zM737 653h140l-372 -653
h-140zM932 178v95h75q26 0 40 9.5t14 23.5q0 20 -19 30t-42 10q-67 0 -152 -65l-74 82q117 84 227 84q46 0 89 -11.5t76.5 -42.5t33.5 -75q0 -36 -53 -71q85 -38 85 -106q0 -71 -70.5 -113t-176.5 -42q-139 0 -246 91l71 81q90 -71 175 -71q47 0 77.5 16t30.5 42
q0 33 -56 33h-105z" />
    <glyph glyph-name="oneeighth" unicode="&#x215b;" horiz-adv-x="1085" 
d="M29 487l-29 106l152 60h113v-433h-139v304zM559 653h140l-372 -653h-140zM817 -16q-97 0 -169 40.5t-72 107.5q0 71 87 112q-62 37 -62 80q0 38 35 67.5t83.5 43.5t99.5 14q80 0 146.5 -34.5t66.5 -96.5q0 -48 -59 -74q84 -40 84 -112q0 -67 -72 -107.5t-168 -40.5z
M817 86q38 0 67 14t29 38q0 23 -30 36t-66 13t-66.5 -13t-30.5 -36t29.5 -37.5t67.5 -14.5zM817 280q71 0 71 34q0 19 -22.5 29.5t-48.5 10.5q-27 0 -49 -10.5t-22 -29.5q0 -34 71 -34z" />
    <glyph glyph-name="threeeighths" unicode="&#x215c;" horiz-adv-x="1282" 
d="M205 398v95h75q26 0 40 9.5t14 23.5q0 20 -19 30t-42 10q-67 0 -152 -65l-74 82q117 84 227 84q46 0 89 -11.5t76.5 -42.5t33.5 -75q0 -36 -53 -71q85 -38 85 -106q0 -71 -70.5 -113t-176.5 -42q-139 0 -246 91l71 81q90 -71 175 -71q47 0 77.5 16t30.5 42q0 33 -56 33
h-105zM756 653h140l-372 -653h-140zM1014 -16q-97 0 -169 40.5t-72 107.5q0 71 87 112q-62 37 -62 80q0 38 35 67.5t83.5 43.5t99.5 14q80 0 146.5 -34.5t66.5 -96.5q0 -48 -59 -74q84 -40 84 -112q0 -67 -72 -107.5t-168 -40.5zM1014 86q38 0 67 14t29 38q0 23 -30 36
t-66 13t-66.5 -13t-30.5 -36t29.5 -37.5t67.5 -14.5zM1014 280q71 0 71 34q0 19 -22.5 29.5t-48.5 10.5q-27 0 -49 -10.5t-22 -29.5q0 -34 71 -34z" />
    <glyph glyph-name="fiveeighths" unicode="&#x215d;" horiz-adv-x="1279" 
d="M460 653v-101h-269v-88q58 48 128 48q76 0 132.5 -36.5t56.5 -106.5q0 -54 -37 -92t-90.5 -54.5t-115.5 -16.5q-117 0 -250 58l53 91q107 -48 196 -48q42 0 69 17t27 45q0 46 -76 46q-61 0 -139 -41l-77 52v227h392zM753 653h140l-372 -653h-140zM1011 -16
q-97 0 -169 40.5t-72 107.5q0 71 87 112q-62 37 -62 80q0 38 35 67.5t83.5 43.5t99.5 14q80 0 146.5 -34.5t66.5 -96.5q0 -48 -59 -74q84 -40 84 -112q0 -67 -72 -107.5t-168 -40.5zM1011 86q38 0 67 14t29 38q0 23 -30 36t-66 13t-66.5 -13t-30.5 -36t29.5 -37.5
t67.5 -14.5zM1011 280q71 0 71 34q0 19 -22.5 29.5t-48.5 10.5q-27 0 -49 -10.5t-22 -29.5q0 -34 71 -34z" />
    <glyph glyph-name="seveneighths" unicode="&#x215e;" horiz-adv-x="1193" 
d="M25 543v110h441v-91l-242 -342h-170l239 323h-268zM667 653h140l-372 -653h-140zM925 -16q-97 0 -169 40.5t-72 107.5q0 71 87 112q-62 37 -62 80q0 38 35 67.5t83.5 43.5t99.5 14q80 0 146.5 -34.5t66.5 -96.5q0 -48 -59 -74q84 -40 84 -112q0 -67 -72 -107.5
t-168 -40.5zM925 86q38 0 67 14t29 38q0 23 -30 36t-66 13t-66.5 -13t-30.5 -36t29.5 -37.5t67.5 -14.5zM925 280q71 0 71 34q0 19 -22.5 29.5t-48.5 10.5q-27 0 -49 -10.5t-22 -29.5q0 -34 71 -34z" />
    <glyph glyph-name="arrowleft" unicode="&#x2190;" horiz-adv-x="818" 
d="M561 330l168 3v-153l-168 4l-261 3l-48 2l-2 -7l57 -36l148 -148l-99 -104l-341 341v43l341 341l99 -103l-149 -149l-56 -36l3 -5l47 1z" />
    <glyph glyph-name="arrowup" unicode="&#x2191;" horiz-adv-x="819" 
d="M481 58l4 -167h-153l4 167l3 262l2 47l-7 2l-36 -57l-148 -148l-104 99l341 342h43l342 -342l-104 -99l-150 149l-35 56l-5 -2l1 -47z" />
    <glyph glyph-name="arrowright" unicode="&#x2192;" horiz-adv-x="818" 
d="M89 333l168 -3l261 -3l47 -3l2 7l-56 37l-149 148l99 103l342 -341v-43l-342 -341l-99 104l149 149l56 35l-2 6l-47 -1l-261 -3l-168 -4v153z" />
    <glyph glyph-name="arrowdown" unicode="&#x2193;" horiz-adv-x="819" 
d="M485 621l-3 -167v-214l-5 -95l6 -2l37 56l148 149l104 -99l-342 -342h-43l-341 342l104 99l149 -149l35 -56l6 2l-4 96v213l-4 167h153z" />
    <glyph glyph-name="arrowupleft" unicode="&#x2196;" horiz-adv-x="818" 
d="M620 133l120 -115l-109 -108l-115 121l-223 227l-33 37l-7 -4l18 -67v-224h-143v492l30 31h491v-144h-222l-68 18l-4 -7l37 -33z" />
    <glyph glyph-name="arrowupright" unicode="&#x2197;" horiz-adv-x="818" 
d="M79 18l120 116l227 223l37 33l-3 7l-68 -18h-223v144h491l31 -31v-492h-144v224l18 67l-6 4l-34 -37l-223 -227l-115 -121z" />
    <glyph glyph-name="arrowdownright" unicode="&#x2198;" horiz-adv-x="818" 
d="M198 390l-119 115l108 108l115 -121l223 -227l34 -37l6 4l-18 68v223h144v-492l-31 -31h-491v144h223l68 -18l3 7l-37 32z" />
    <glyph glyph-name="arrowdownleft" unicode="&#x2199;" horiz-adv-x="818" 
d="M740 505l-121 -115l-191 -192l-73 -65l4 -7l68 18h222v-144h-491l-30 31v492h143v-223l-18 -68l7 -4l66 75l190 189l115 121z" />
    <glyph glyph-name="partialdiff" unicode="&#x2202;" horiz-adv-x="646" 
d="M280 449q49 0 91.5 -19.5t69.5 -48.5v14q0 17 -12 37t-37.5 41.5t-77 35.5t-120.5 14v131q96 0 169 -21t115.5 -53t69 -78.5t35.5 -91t9 -95.5q0 -166 -80 -250t-197 -84q-108 0 -190 62.5t-82 175.5q0 107 73.5 168.5t163.5 61.5zM310 103q50 0 87.5 40.5t41.5 118.5
q-21 28 -56.5 46.5t-74.5 18.5q-40 0 -71.5 -29.5t-31.5 -78.5q0 -55 31.5 -85.5t73.5 -30.5z" />
    <glyph glyph-name="product" unicode="&#x220f;" horiz-adv-x="805" 
d="M46 510v143h714v-143h-90v-617h-172v617h-193v-617h-171v617h-88z" />
    <glyph glyph-name="summation" unicode="&#x2211;" horiz-adv-x="718" 
d="M667 653v-143h-338l224 -196v-79l-223 -199h337v-143h-623v100l320 278v6l-320 276v100h623z" />
    <glyph glyph-name="minus" unicode="&#x2212;" horiz-adv-x="749" 
d="M61 204v135h586v-135h-586z" />
    <glyph glyph-name="radical" unicode="&#x221a;" horiz-adv-x="674" 
d="M20 493h224l89 -230l178 491h166l-287 -754h-115l-148 367h-107v126z" />
    <glyph glyph-name="infinity" unicode="&#x221e;" horiz-adv-x="996" 
d="M272 473h10q94 0 180 -72l36 -30l36 30q88 72 178 72h11q94 0 158.5 -58t64.5 -135v-17q0 -77 -64.5 -134t-158.5 -57h-11q-89 0 -177 71l-37 30l-38 -31q-87 -70 -178 -70h-10q-94 0 -158 57t-64 134v17q0 77 64 135t158 58zM642 306l-41 -34l41 -34q41 -34 70 -34h11
q27 0 46 17.5t19 41.5v17q0 24 -19 42t-46 18h-11q-29 0 -70 -34zM207 280v-17q0 -24 18.5 -41.5t46.5 -17.5h10q30 0 70 34l39 34l-39 34q-42 34 -70 34h-10q-28 0 -46.5 -17.5t-18.5 -42.5z" />
    <glyph glyph-name="integral" unicode="&#x222b;" horiz-adv-x="455" 
d="M413 723v-135h-77q-25 0 -25 -30v-604q0 -60 -47.5 -100.5t-136.5 -40.5h-80v135h78q11 0 17.5 9t6.5 21v604q0 59 37.5 100t107.5 41h119z" />
    <glyph glyph-name="approxequal" unicode="&#x2248;" horiz-adv-x="749" 
d="M61 291v143q79 55 156 55q63 0 129 -37q68 -39 125 -39q84 0 166 60v-145q-79 -58 -166 -58q-60 0 -128 37q-70 39 -127 39q-77 0 -155 -55zM61 50v143q79 55 156 55q63 0 129 -37q68 -39 125 -39q84 0 166 60v-145q-79 -58 -166 -58q-60 0 -128 37q-70 39 -127 39
q-77 0 -155 -55z" />
    <glyph glyph-name="notequal" unicode="&#x2260;" horiz-adv-x="749" 
d="M61 322v137h312l57 90h169l-57 -90h105v-137h-191l-51 -81h242v-137h-328l-57 -91h-169l57 91h-89v137h175l51 81h-226z" />
    <glyph glyph-name="lessequal" unicode="&#x2264;" horiz-adv-x="749" 
d="M647 638v-151l-324 -85v-12l324 -84v-152l-586 177v129zM61 0v136h586v-136h-586z" />
    <glyph glyph-name="greaterequal" unicode="&#x2265;" horiz-adv-x="749" 
d="M61 487v151l586 -178v-129l-586 -177v152l324 84v12zM647 136v-136h-586v136h586z" />
    <glyph glyph-name="squarecrossed" unicode="&#x22a0;" horiz-adv-x="840" 
d="M746 653v-653h-652v653h652zM419 277l-11 -13l-114 -115l-29 -28l2 -2l61 5h183l61 -5l2 2l-29 28l-116 115zM212 485l-2 -2l5 -58v-193l-5 -61l2 -2l25 29l118 118l13 10l-13 11l-118 119zM408 389l11 -13l10 13l116 115l29 28l-2 2l-61 -5h-183l-61 5l-2 -2l29 -28z
M630 483l-2 2l-25 -29l-118 -119l-13 -11l13 -10l118 -118l25 -29l2 2l-5 61v193z" />
    <glyph glyph-name="blacksquare" unicode="&#x25a0;" horiz-adv-x="698" 
d="M66 567h567v-567h-567v567z" />
    <glyph glyph-name="whitesquare" unicode="&#x25a1;" horiz-adv-x="840" 
d="M94 653h652v-653h-652v653zM224 529v-405h392v405h-392z" />
    <glyph glyph-name="blacksmallsquare" unicode="&#x25aa;" horiz-adv-x="473" 
d="M74 454h327v-327h-327v327z" />
    <glyph glyph-name="blackuppointingtriangle" unicode="&#x25b2;" horiz-adv-x="653" 
d="M320 589h9l281 -580v-9h-572v9z" />
    <glyph glyph-name="blackrightpointingtriangle" unicode="&#x25b6;" horiz-adv-x="746" 
d="M89 546h9l580 -283v-9l-580 -282h-9v574z" />
    <glyph glyph-name="blackdownpointingtriangle" unicode="&#x25bc;" horiz-adv-x="653" 
d="M38 494h572v-10l-281 -579h-9l-282 579v10z" />
    <glyph glyph-name="blackleftpointingtriangle" unicode="&#x25c0;" horiz-adv-x="746" 
d="M68 263l579 283h9v-574h-9l-579 282v9z" />
    <glyph glyph-name="lozenge" unicode="&#x25ca;" horiz-adv-x="663" 
d="M285 653h93l245 -288v-75l-245 -290h-93l-245 290v75zM332 471l-120 -143v-2l120 -144h1l120 143v3l-120 143h-1z" />
    <glyph glyph-name="whitecircle" unicode="&#x25cb;" horiz-adv-x="827" 
d="M40 323q0 154 110 263.5t263 109.5q155 0 264.5 -109.5t109.5 -263.5t-110 -263.5t-264 -109.5q-153 0 -263 109.5t-110 263.5zM176 323q0 -103 69 -175.5t168 -72.5q100 0 169 72.5t69 175.5q0 104 -69 176t-169 72q-99 0 -168 -72t-69 -176z" />
    <glyph glyph-name="blackcircle" unicode="&#x25cf;" horiz-adv-x="684" 
d="M44 285q0 123 87.5 210.5t210.5 87.5t210.5 -87.5t87.5 -210.5t-87.5 -210.5t-210.5 -87.5t-210.5 87.5t-87.5 210.5z" />
    <glyph glyph-name="blackmediumsquare" unicode="&#x25fc;" horiz-adv-x="541" 
d="M66 494h410v-411h-410v411z" />
    <glyph glyph-name="blackmediumcircle" unicode="&#x26ab;" horiz-adv-x="541" 
d="M44 294q0 91 66.5 155t160.5 64q93 0 159.5 -64t66.5 -155t-66.5 -154.5t-159.5 -63.5q-94 0 -160.5 63.5t-66.5 154.5z" />
    <glyph glyph-name="circlecrossed" unicode="&#x2a02;" horiz-adv-x="827" 
d="M413 71q86 0 150 52l-140 140l-10 12l-10 -12l-139 -140q65 -52 149 -52zM413 576q-78 0 -143 -49l133 -134l10 -13l10 13l134 134q-65 49 -144 49zM40 323q0 154 110 263.5t263 109.5q155 0 264.5 -109.5t109.5 -263.5t-110 -263.5t-264 -109.5q-153 0 -263 109.5
t-110 263.5zM477 318l137 -137q42 64 42 142q0 81 -45 147l-134 -132l-12 -10zM349 338l-134 132q-43 -67 -43 -147q0 -79 40 -141l137 136l13 10z" />
    <glyph glyph-name="blacklargesquare" unicode="&#x2b1b;" horiz-adv-x="840" 
d="M94 653h652v-653h-652v653z" />
    <glyph glyph-name="blacklargecircle" unicode="&#x2b24;" horiz-adv-x="827" 
d="M40 323q0 154 110 263.5t263 109.5q155 0 264.5 -109.5t109.5 -263.5t-110 -263.5t-264 -109.5q-153 0 -263 109.5t-110 263.5z" />
    <glyph glyph-name="commaaccent" unicode="&#xf6c3;" 
d="M183 -63l126 23q1 -1 8.5 -9.5t11.5 -14.5t10 -17t9 -23.5t3 -27.5q0 -57 -44.5 -92.5t-124.5 -35.5q-27 0 -52 8v89q12 -3 36 -3q43 0 43 44q0 24 -26 59z" />
    <glyph glyph-name="rupiah" unicode="&#xf6dd;" horiz-adv-x="1328" 
d="M764 -207v557q0 74 -13 143h156l3 -54q70 70 145 70q101 0 169.5 -71.5t68.5 -189.5q0 -114 -69.5 -187.5t-168.5 -73.5q-73 0 -128 52v-246h-163zM79 0v568h338q127 0 192 -65q51 -51 51 -121q0 -102 -109 -157l139 -225h-191l-114 196h-137v-196h-169zM928 160
q50 -39 98 -39q39 0 66 36.5t27 90.5q0 58 -27 92t-66 34q-51 0 -98 -42v-172zM248 327h179q32 0 48 16q17 17 17 39q0 20 -15 37q-17 18 -50 18h-179v-110z" />
    <glyph glyph-name="sweetfonts.com" unicode="&#xf8ff;" horiz-adv-x="1000" 
d="M343 424q0 65 46 111t111 46t111 -46t46 -111t-46 -111t-111 -46t-111 46t-46 111zM706 428l237 137q8 6 8 -4v-274q0 -10 -8 -4l-237 137q-6 4 0 8zM49 287v274q0 10 8 4l237 -137q8 -4 0 -8l-237 -137q-8 -6 -8 4zM878 0v116h-57v20h138v-20h-57v-116h-24zM659 0v136
h117v-20h-93v-32h62v-20h-62v-44h99v-20h-123zM472 0v136h117v-20h-93v-32h62v-20h-62v-44h99v-20h-123zM268 0l-47 136h25l30 -99h2l34 99h15l33 -99h2l32 99h23l-49 -136h-16l-33 97h-2l-33 -97h-16zM37 22l12 15q31 -21 61 -21q49 0 49 24q0 6 -3.5 10.5t-10 6t-14 2.5
t-16.5 1h-3q-69 2 -69 37q0 17 15.5 29t44.5 12q37 0 69 -18l-12 -16q-24 15 -57 15q-38 0 -38 -21q0 -14 47 -16q33 -1 51 -9.5t18 -31.5q0 -21 -20 -32.5t-51 -11.5q-41 0 -73 25z" />
    <glyph glyph-name="one.alt" horiz-adv-x="335" 
d="M86 0v568h163v-568h-163z" />
    <glyph glyph-name="dollar.superior" horiz-adv-x="535" 
d="M308 718h95l-19 -66q60 -13 108 -34l-53 -91q-55 19 -92 28l-18 -65q83 -10 128.5 -38t45.5 -94q0 -76 -61 -114t-160 -38h-23l-20 -72h-94l23 84q-75 18 -142 56l53 88q74 -37 126 -49l21 75q-37 4 -64.5 11t-55.5 21t-43 40t-15 62q0 75 60.5 110t148.5 35q12 0 36 -2z
M376 346q0 18 -18 25.5t-60 10.5l-22 -78h12q88 0 88 42zM177 530q0 -17 18.5 -23.5t60.5 -9.5l20 70q-4 0 -11.5 0.5t-10.5 0.5q-77 0 -77 -38z" />
    <glyph glyph-name="cent.superior" horiz-adv-x="462" 
d="M266 619h94l-12 -56q45 -18 81 -44l-77 -83q-19 13 -37 23l-31 -142q33 8 77 42l76 -76q-23 -22 -67 -44.5t-100 -27.5l-17 -77h-94l19 85q-67 18 -109 65.5t-42 112.5q0 84 61.5 134.5t153.5 50.5q10 0 16 -1zM166 397q0 -47 45 -70l34 149q-36 -4 -57.5 -24.5
t-21.5 -54.5z" />
    <glyph glyph-name="Euro.superior" horiz-adv-x="585" 
d="M32 460v58h79q27 66 91.5 107t153.5 41q106 0 187 -48l-63 -82q-51 25 -104 25q-67 0 -107 -43h133v-58h-162q-2 -16 -2 -24q0 -12 1 -18h163v-59h-136q39 -47 114 -47q57 0 115 39l64 -80q-94 -64 -198 -64q-94 0 -160 41.5t-92 110.5h-77v59h64q-1 6 -1 19q0 15 1 23
h-64z" />
    <glyph glyph-name="sterling.superior" horiz-adv-x="520" 
d="M33 418v67h99v52q0 63 52.5 96.5t123.5 33.5q83 0 182 -38l-51 -95q-69 32 -121 32q-19 0 -33 -15t-14 -44v-22h132v-67h-132v-14q0 -37 -15 -55.5t-51 -25.5h284v-103h-456v103h30q40 0 54.5 16t14.5 65v14h-99z" />
    <glyph glyph-name="yen.superior" horiz-adv-x="566" 
d="M32 460v58h105l-101 135h166l84 -124l82 124h160l-101 -135h107v-58h-150l-32 -42h182v-59h-183v-139h-138v139h-181v59h179l-31 42h-148z" />
    <glyph glyph-name="numbersign.superior" horiz-adv-x="657" 
d="M433 691h77l-20 -109h140v-100h-158l-20 -106h134v-100h-152l-24 -130h-77l24 130h-116l-24 -130h-76l24 130h-138v100h156l20 106h-132v100h150l20 109h76l-20 -109h116zM279 482l-20 -106h116l20 106h-116z" />
    <glyph glyph-name="percent.superior" horiz-adv-x="783" 
d="M472 681h113l-275 -461h-114zM26 556q0 57 47 97t114 40q66 0 114 -40.5t48 -96.5q0 -57 -48 -97.5t-114 -40.5q-67 0 -114 40.5t-47 97.5zM142 556q0 -20 13.5 -34.5t31.5 -14.5q19 0 32.5 14.5t13.5 34.5t-13.5 34t-32.5 14q-18 0 -31.5 -14t-13.5 -34zM432 347
q0 56 47 96t113 40q67 0 115.5 -40.5t48.5 -95.5q0 -57 -48.5 -97.5t-115.5 -40.5t-113.5 40.5t-46.5 97.5zM548 347q0 -20 13 -34.5t31 -14.5q20 0 34 14.5t14 34.5q0 19 -14 33.5t-34 14.5q-18 0 -31 -14t-13 -34z" />
    <glyph glyph-name="period.superior" horiz-adv-x="238" 
d="M35 281q0 30 24 51t60 21q35 0 59.5 -21.5t24.5 -50.5q0 -31 -24.5 -51.5t-59.5 -20.5q-36 0 -60 20.5t-24 51.5z" />
    <glyph glyph-name="comma.superior" horiz-adv-x="246" 
d="M66 83l-32 65q29 10 54.5 30.5t25.5 47.5v5q-15 -3 -22 -3q-23 0 -40 16.5t-17 40.5q0 29 24.5 48.5t59.5 19.5q39 0 66 -30.5t27 -79.5q0 -111 -146 -160z" />
    <glyph glyph-name="hyphen.superior" horiz-adv-x="315" 
d="M42 354v112h231v-112h-231z" />
    <glyph glyph-name="zero.tos" horiz-adv-x="671" 
d="M36 284q0 127 88 215t211 88t211.5 -88t88.5 -215q0 -124 -89 -213.5t-211 -89.5t-210.5 89.5t-88.5 213.5zM197 284q0 -66 41 -116t97 -50t97.5 50t41.5 116q0 69 -41 117.5t-98 48.5t-97.5 -48.5t-40.5 -117.5z" />
    <glyph glyph-name="one.tos" horiz-adv-x="671" 
d="M149 344l-40 133l218 91h135v-434h130v-134h-485v134h192v277z" />
    <glyph glyph-name="two.tos" horiz-adv-x="671" 
d="M61 0v98q0 50 21.5 90.5t62.5 69t89 48.5t112 37q22 6 34 10t31.5 13t29 20t9.5 25q0 49 -92 49q-61 0 -108.5 -22.5t-106.5 -68.5l-87 102q52 38 86 59t91 39t120 18q107 0 183.5 -44t76.5 -132q0 -35 -15.5 -64t-36 -48t-57.5 -37t-63 -27.5t-70 -23.5
q-144 -45 -144 -77v-5h375v-129h-541z" />
    <glyph glyph-name="three.tos" horiz-adv-x="671" 
d="M264 237v118h94q31 0 49 13.5t18 34.5q0 29 -25 43t-56 14q-87 0 -190 -86l-88 100q144 113 280 113q40 0 81 -9.5t78 -28t60.5 -52.5t23.5 -78q0 -51 -65 -97q105 -46 105 -138q0 -94 -86 -148.5t-218 -54.5q-171 0 -304 120l85 101q110 -94 219 -94q61 0 101 22.5
t40 59.5q0 26 -23 36.5t-51 10.5h-128z" />
    <glyph glyph-name="four.tos" horiz-adv-x="671" 
d="M634 230v-118h-92v-112h-162v112h-363v87l375 369h150v-338h92zM232 234v-4h148v154h-9z" />
    <glyph glyph-name="five.tos" horiz-adv-x="671" 
d="M573 568v-127h-341v-120q77 63 164 63q61 0 113.5 -19t89 -63t36.5 -106q0 -72 -46 -122t-112.5 -71.5t-144.5 -21.5q-68 0 -136.5 16.5t-98 29.5t-75.5 35l65 113q124 -67 245 -67q56 0 93.5 24t37.5 63q0 67 -104 67q-79 0 -180 -55l-92 65v296h486z" />
    <glyph glyph-name="six.tos" horiz-adv-x="671" 
d="M603 543l-65 -111q-75 29 -149 29q-77 0 -130.5 -44.5t-58.5 -122.5q94 79 199 79q109 0 171 -55t62 -129q0 -87 -77 -147.5t-195 -60.5q-129 0 -223 78t-94 214q0 142 100.5 228t238.5 86q107 0 221 -44zM372 255q-72 0 -160 -46q18 -48 57.5 -74.5t88.5 -26.5
q48 0 80.5 24t32.5 55q0 27 -24 47.5t-75 20.5z" />
    <glyph glyph-name="seven.tos" horiz-adv-x="671" 
d="M49 431v137h584v-115l-331 -453h-204l334 431h-383z" />
    <glyph glyph-name="eight.tos" horiz-adv-x="671" 
d="M336 -20q-118 0 -205.5 52t-87.5 139q0 98 109 147q-78 45 -78 108q0 50 42 88.5t101 56t121 17.5q60 0 117.5 -17t99.5 -57t42 -94q0 -69 -76 -102q50 -23 78.5 -60.5t28.5 -86.5q0 -87 -87.5 -139t-204.5 -52zM336 106q49 0 85.5 20t36.5 54q0 33 -37.5 51t-84.5 18
t-85 -18t-38 -51t37.5 -53.5t85.5 -20.5zM336 364q44 0 67.5 13t23.5 36q0 27 -28.5 42t-62.5 15q-35 0 -63.5 -15t-28.5 -42q0 -23 24 -36t68 -13z" />
    <glyph glyph-name="nine.tos" horiz-adv-x="671" 
d="M66 25l64 111q77 -29 150 -29q77 0 131 44.5t58 122.5q-92 -79 -200 -79q-107 0 -170 55t-63 129q0 87 77 147.5t195 60.5q131 0 225 -78t94 -214q0 -142 -101 -228t-239 -86q-107 0 -221 44zM298 313q75 0 160 46q-19 47 -58.5 74t-88.5 27q-48 0 -81 -24t-33 -55
q0 -27 24.5 -47.5t76.5 -20.5z" />
    <glyph glyph-name="dollar.tos" horiz-adv-x="671" 
d="M182 -119l28 118q-96 26 -181 88l88 107q74 -51 133 -72l27 105q-47 5 -80.5 13.5t-68 26.5t-53 51t-18.5 81q0 67 39 111t94 60.5t122 16.5q14 0 44 -2l18 74h113l-23 -92q81 -19 138 -49l-90 -111q-42 21 -88 35l-22 -88q46 -5 80 -14t67.5 -27.5t51.5 -52t18 -80.5
q0 -99 -75.5 -149t-194.5 -50q-5 0 -15 0.5t-15 0.5l-24 -101h-113zM452 167q0 24 -21 35t-64 16l-29 -114h12q49 0 75.5 18t26.5 45zM224 408q0 -22 21 -32t66 -14l25 99q-18 2 -25 2q-43 0 -65 -16t-22 -39z" />
    <glyph glyph-name="cent.tos" horiz-adv-x="671" 
d="M235 -119l26 116q-94 23 -153 86t-59 148q0 109 85.5 175.5t213.5 66.5q16 0 24 -1l13 57h113l-17 -76q70 -20 128 -61l-96 -103q-32 23 -71 38l-51 -211q64 9 131 59l95 -94q-29 -29 -94.5 -60t-151.5 -34l-23 -106h-113zM220 231q0 -33 21.5 -60t56.5 -42l51 213
q-57 -4 -93 -33.5t-36 -77.5z" />
    <glyph glyph-name="Euro.tos" horiz-adv-x="671" 
d="M38 315v76h89q30 87 104.5 141t178.5 54q53 0 111.5 -19t98.5 -49l-75 -102q-58 38 -109 38q-80 0 -123 -63h145v-76h-173q-2 -11 -2 -32q0 -17 1 -25h174v-75h-148q45 -70 132 -70q59 0 122 56l75 -100q-99 -87 -223 -87q-110 0 -186 55t-106 146h-86v75h72q-1 8 -1 26
q0 21 1 31h-72z" />
    <glyph glyph-name="sterling.tos" horiz-adv-x="671" 
d="M46 261v85h125v70q0 83 66 127t157 44q103 0 228 -54l-62 -116q-91 43 -155 43q-26 0 -45.5 -20t-19.5 -58v-36h173v-85h-173v-28q0 -49 -19 -73t-64 -32h365v-128h-576v128h37q51 0 69.5 20.5t18.5 84.5v28h-125z" />
    <glyph glyph-name="yen.tos" horiz-adv-x="671" 
d="M43 315v76h118l-116 177h201l92 -171l90 171h194l-117 -177h123v-76h-173l-38 -57h211v-75h-211v-183h-167v183h-207v75h206l-38 57h-168z" />
    <glyph glyph-name="florin.tos" horiz-adv-x="671" 
d="M135 261v85h114l27 120q9 43 41.5 71t70.5 38.5t80 10.5q79 0 91 -8l-23 -108q-48 -2 -66 -2q-33 0 -38 -23l-22 -99h123v-85h-142l-58 -258q-13 -59 -55.5 -99t-90 -55t-96.5 -15l-20 113q92 20 103 67l55 247h-94z" />
    <glyph glyph-name="colonmonetary.tos" horiz-adv-x="671" 
d="M473 659h67l-22 -109q59 -23 112 -60l-98 -104q-18 14 -41 27l-56 -284q51 21 102 69l100 -102q-106 -89 -230 -109l-21 -106h-68l20 101q-32 0 -61 6l-21 -107h-68l25 126q-83 35 -131 110t-48 168q0 121 82.5 208t211.5 91l15 75h68l-16 -78q27 -3 60 -11zM304 126
q27 -12 60 -12l65 327q-33 10 -59 12zM206 284q0 -67 39 -115l54 270q-44 -19 -68.5 -61t-24.5 -94z" />
    <glyph glyph-name="franc.tos" horiz-adv-x="671" 
d="M43 84v86h95v398h495v-121h-329v-78h210v-120h-210v-79h146v-86h-146v-84h-166v84h-95z" />
    <glyph glyph-name="lira.tos" horiz-adv-x="671" 
d="M43 315v76h119v25q0 83 68.5 127t162.5 44q107 0 237 -54l-64 -116q-95 43 -163 43q-26 0 -47.5 -18t-24.5 -51h178v-76h-178v-57h178v-75h-185q-15 -45 -79 -55h385v-128h-587v128h28q41 0 61 11.5t26 43.5h-115v75h119v57h-119z" />
    <glyph glyph-name="peso.tos" horiz-adv-x="671" 
d="M23 314v76h65v178h242q142 0 216 -76q41 -43 55 -102h62v-76h-59q-10 -72 -63 -121q-73 -70 -211 -70h-75v-123h-167v314h-65zM407 267q19 19 28 47h-180v-70h85q41 0 67 23zM340 447h-85v-57h175q-7 15 -20 30q-26 27 -70 27z" />
    <glyph glyph-name="Rupee.tos" horiz-adv-x="671" 
d="M29 314v76h361q-7 15 -20 30q-26 27 -70 27h-271v121h619v-76h-162q55 -40 73 -102h89v-76h-84q-10 -72 -63 -121q-60 -48 -176 -54h-43l236 -139h-241l-248 167v77h271q41 0 67 23q19 19 28 47h-366z" />
    <glyph glyph-name="section.tos" horiz-adv-x="671" 
d="M573 101q-15 -15 -32 -26q8 -16 10 -22q8 -22 8 -46q0 -57 -36.5 -97t-85.5 -56t-105 -16q-110 0 -213 53l62 102q99 -40 154 -40q58 0 58 34q0 10 -7 17q-13 16 -108 29q-133 18 -197 78q-43 41 -43 94q0 62 52 114q15 16 38 31l-9 18q-9 23 -9 51q0 57 36.5 97t86 56
t106.5 16q113 0 221 -53l-61 -102q-105 40 -164 40q-58 0 -58 -33q0 -12 7 -17q14 -11 106 -25q144 -22 204 -87q36 -39 36 -89q0 -71 -57 -121zM353 266q-98 13 -123 20q-14 -11 -22 -24q-13 -20 -13 -37q0 -16 12 -30q4 -4 10 -7.5t11.5 -6t15 -5t14 -4t16 -3t15 -2
t15.5 -2t13 -1.5q75 -8 122 -22q12 9 19 17q15 21 15 43q0 17 -10 28q-25 26 -110 36z" />
    <glyph glyph-name="numbersign.tos" horiz-adv-x="671" 
d="M439 618h84l-22 -149h143v-122h-160l-21 -145h136v-123h-153l-25 -176h-85l25 176h-113l-25 -176h-84l25 176h-139v123h156l21 145h-133v122h150l22 149h85l-22 -149h113zM287 347l-21 -145h113l21 145h-113z" />
    <glyph glyph-name="percent.tos" horiz-adv-x="671" 
d="M11 442q0 73 41 125.5t100 52.5q57 0 98.5 -52.5t41.5 -125.5q0 -75 -41.5 -128t-98.5 -53q-60 0 -100.5 53t-40.5 128zM502 605l-242 -605h-98l242 605h98zM115 442q0 -31 11.5 -53.5t25.5 -22.5q16 0 26 22t10 54t-10 53t-26 21q-15 0 -26 -22t-11 -52zM372 165
q0 74 40 126.5t99 52.5q61 0 106.5 -53.5t45.5 -125.5q0 -74 -45.5 -127t-106.5 -53q-59 0 -99 52.5t-40 127.5zM474 165q0 -30 11.5 -52.5t25.5 -22.5q15 0 26.5 22.5t11.5 52.5t-11.5 52.5t-26.5 22.5q-14 0 -25.5 -22.5t-11.5 -52.5z" />
    <glyph glyph-name="zero.pl" horiz-adv-x="784" 
d="M41 307q0 136 103 231t247 95q145 0 248.5 -95t103.5 -231q0 -134 -104 -230.5t-248 -96.5q-143 0 -246.5 96.5t-103.5 230.5zM212 307q0 -74 53 -129t126 -55q74 0 127.5 55.5t53.5 128.5q0 76 -53.5 129.5t-127.5 53.5t-126.5 -53.5t-52.5 -129.5z" />
    <glyph glyph-name="one.pl" horiz-adv-x="458" 
d="M48 393l-36 136l202 84h145v-613h-172v450z" />
    <glyph glyph-name="one.pl.alt" horiz-adv-x="370" 
d="M99 0v613h172v-613h-172z" />
    <glyph glyph-name="two.pl" horiz-adv-x="667" 
d="M139 403l-90 107q54 41 88.5 62.5t92.5 41t122 19.5q109 0 186.5 -47t77.5 -141q0 -38 -14.5 -69.5t-35.5 -52t-56.5 -39.5t-63.5 -29.5t-72 -24.5q-77 -24 -111.5 -45t-34.5 -45v-6h377v-134h-550v104q0 105 76.5 166.5t214.5 97.5q28 9 46 16t35.5 23.5t17.5 37.5
q0 55 -88 55q-60 0 -109 -24.5t-109 -72.5z" />
    <glyph glyph-name="three.pl" horiz-adv-x="726" 
d="M289 258v124h106q34 0 54 15t20 39q0 32 -29.5 48t-66.5 16q-95 0 -211 -93l-93 104q155 122 306 122q44 0 88.5 -10t85.5 -30t66.5 -56.5t25.5 -83.5q0 -60 -71 -106q116 -49 116 -149q0 -101 -94.5 -159.5t-238.5 -58.5q-191 0 -334 129l90 106q119 -102 244 -102
q69 0 115 24.5t46 66.5q0 30 -27 42t-59 12h-139z" />
    <glyph glyph-name="four.pl" horiz-adv-x="767" 
d="M732 246v-124h-110v-122h-171v122h-430v93l443 398h158v-367h110zM253 250v-4h198v174h-11z" />
    <glyph glyph-name="five.pl" horiz-adv-x="717" 
d="M616 613v-133h-372v-132q83 66 180 66q67 0 123.5 -20t96 -67.5t39.5 -114.5q0 -78 -50 -132t-122 -77t-156 -23q-163 0 -335 90l71 117q135 -74 264 -74q63 0 105 26t42 72q0 39 -33 57t-83 18q-89 0 -198 -60l-97 68v319h525z" />
    <glyph glyph-name="six.pl" horiz-adv-x="728" 
d="M659 583l-70 -115q-85 33 -167 33q-87 0 -148.5 -49.5t-65.5 -136.5q104 88 226 88q119 0 188 -59.5t69 -139.5q0 -94 -84.5 -159t-213.5 -65q-92 0 -170 34.5t-129 108t-51 172.5q0 153 110.5 245.5t261.5 92.5q121 0 244 -50zM405 279q-84 0 -184 -54
q21 -53 66.5 -82.5t102.5 -29.5q56 0 93.5 27.5t37.5 62.5q0 30 -28.5 53t-87.5 23z" />
    <glyph glyph-name="seven.pl" horiz-adv-x="655" 
d="M36 470v143h593v-122l-333 -491h-212l334 470h-382z" />
    <glyph glyph-name="eight.pl" horiz-adv-x="734" 
d="M367 -22q-131 0 -228 56.5t-97 149.5q0 54 34.5 94.5t92.5 64.5q-92 44 -92 117q0 54 46.5 95.5t112 60.5t133.5 19q67 0 130.5 -18.5t110.5 -61.5t47 -101q0 -77 -90 -111q57 -24 91 -64.5t34 -94.5q0 -93 -97 -149.5t-228 -56.5zM367 111q58 0 101.5 22.5t43.5 59.5
t-45 57.5t-100 20.5t-100 -20.5t-45 -57.5t44 -59.5t101 -22.5zM367 391q53 0 81.5 15t28.5 41q0 31 -34 47.5t-76 16.5t-76 -16.5t-34 -47.5q0 -26 29 -41t81 -15z" />
    <glyph glyph-name="nine.pl" horiz-adv-x="725" 
d="M67 30l70 115q85 -33 167 -33q87 0 148 49.5t66 135.5q-103 -87 -226 -87q-119 0 -188 59.5t-69 139.5q0 94 84.5 159t213.5 65q92 0 170 -34.5t129 -108t51 -172.5q0 -153 -110.5 -245.5t-261.5 -92.5q-121 0 -244 50zM321 334q86 0 183 53q-20 53 -65.5 83t-102.5 30
q-56 0 -93.5 -27.5t-37.5 -62.5q0 -30 28.5 -53t87.5 -23z" />
    <glyph glyph-name="dollar.pl" horiz-adv-x="699" 
d="M206 -130l27 126q-112 26 -211 99l91 112q84 -60 158 -83l26 123q-54 6 -92 15.5t-75.5 29t-57 54.5t-19.5 86q0 55 24 95.5t64.5 62.5t87.5 32.5t100 10.5q26 0 40 -1l17 81h115l-21 -98q102 -24 165 -58l-92 -115q-49 26 -111 44l-22 -104q52 -6 90 -15.5t75.5 -29.5
t57.5 -56t20 -88q0 -107 -82 -160t-211 -53q-17 0 -26 1l-23 -111h-115zM494 180q0 29 -25.5 41.5t-79.5 17.5l-28 -131h13q57 0 88.5 19.5t31.5 52.5zM223 442q0 -18 15 -29.5t35 -15.5t54 -7l24 113q-4 0 -11.5 0.5t-11.5 0.5q-52 0 -78.5 -18t-26.5 -44z" />
    <glyph glyph-name="cent.pl" horiz-adv-x="592" 
d="M196 -130l27 128q-88 26 -143.5 93t-55.5 158q0 117 82 188.5t204 71.5q14 0 22 -1l14 65h115l-19 -87q62 -21 117 -63l-96 -107q-33 25 -59 37l-49 -232q53 10 118 63l95 -98q-29 -30 -90.5 -62.5t-141.5 -37.5l-25 -116h-115zM196 249q0 -75 67 -112l50 236
q-53 -5 -85 -38t-32 -86z" />
    <glyph glyph-name="Euro.pl" horiz-adv-x="775" 
d="M39 341v80h106q36 94 123 152.5t204 58.5q68 0 137.5 -20.5t118.5 -54.5l-82 -107q-71 44 -153 44q-100 0 -156 -73h202v-80h-236q-3 -18 -3 -35q0 -19 2 -28h237v-80h-206q57 -80 165 -80q87 0 166 63l83 -105q-121 -95 -270 -95q-123 0 -211.5 60t-123.5 157h-103v80
h86q-1 9 -1 29q0 12 2 34h-87z" />
    <glyph glyph-name="sterling.pl" horiz-adv-x="715" 
d="M50 282v91h134v76q0 89 70.5 136.5t167.5 47.5q49 0 117 -16.5t128 -43.5l-66 -121q-98 48 -169 48q-30 0 -53 -21.5t-23 -62.5v-43h194v-91h-194v-35q0 -53 -20.5 -79t-68.5 -35h399v-133h-616v133h40q54 0 74 22.5t20 91.5v35h-134z" />
    <glyph glyph-name="yen.pl" horiz-adv-x="787" 
d="M54 341v80h149l-140 192h207l127 -189l125 189h199l-140 -192h152v-80h-210l-45 -63h255v-80h-255v-198h-171v198h-253v80h253l-46 63h-207z" />
    <glyph glyph-name="florin.pl" horiz-adv-x="465" 
d="M33 282v91h118l28 129q10 47 43.5 77.5t72 42t81.5 11.5q78 0 94 -10l-24 -114h-68q-16 0 -27.5 -7.5t-13.5 -19.5l-23 -109h127v-91h-147l-59 -279q-20 -92 -93 -137t-155 -45l-20 118q95 20 107 75l57 268h-98z" />
    <glyph glyph-name="colonmonetary.pl" horiz-adv-x="719" 
d="M599 211l103 -105q-117 -101 -268 -121l-24 -115h-75l23 112q-45 2 -75 8l-25 -120h-75l30 142q-91 40 -142.5 118.5t-51.5 176.5q0 129 91 223t234 101l18 82h75l-18 -84q42 -5 74 -13l21 97h75l-25 -118q74 -28 129 -68l-102 -107q-29 21 -57 35l-69 -325q71 25 134 81
zM313 132q39 -14 74 -14l78 364q-33 10 -75 12zM195 306q0 -77 52 -131l65 305q-54 -21 -85.5 -68t-31.5 -106z" />
    <glyph glyph-name="franc.pl" horiz-adv-x="697" 
d="M33 94v90h104v429h537v-128h-367v-87h232v-127h-232v-87h163v-90h-163v-94h-170v94h-104z" />
    <glyph glyph-name="lira.pl" horiz-adv-x="721" 
d="M56 341v80h134v28q0 89 70.5 136.5t167.5 47.5q49 0 117 -16.5t128 -43.5l-66 -121q-98 48 -169 48q-29 0 -52 -20.5t-24 -58.5h194v-80h-194v-63h194v-80h-200q-15 -52 -83 -65h399v-133h-616v133h40q43 0 64 13.5t27 51.5h-131v80h134v63h-134z" />
    <glyph glyph-name="peso.pl" horiz-adv-x="826" 
d="M40 341v80h73v192h322q142 0 218 -79q46 -49 59 -113h90v-80h-87q-10 -77 -67 -132q-76 -73 -213 -73h-152v-136h-170v341h-73zM513 289q24 23 30 52h-260v-77h152q51 0 78 25zM435 485h-152v-64h256q-7 20 -24 37q-26 27 -80 27z" />
    <glyph glyph-name="peseta.pl" horiz-adv-x="1597" 
d="M896 626v-133h113v-116h-113v-224q0 -21 11.5 -29t36.5 -8q8 0 16.5 1t19.5 2t19 2l10 -119q-24 -20 -112 -20q-69 0 -117 36.5t-48 114.5v244h-42q-10 -53 -50 -92q-68 -69 -198 -69h-182v-216h-170v613h352q132 0 199 -70q22 -23 35 -50h56v133h164zM1536 463l-54 -111
q-94 39 -174 39q-63 0 -63 -37q0 -16 11.5 -24t23.5 -9.5t39 -2.5q35 -2 60 -4.5t62 -12t60 -25.5t40 -45.5t17 -70.5q0 -85 -66 -131t-171 -46q-133 0 -256 75l54 111q41 -26 100.5 -46t106.5 -20q69 0 69 43q0 38 -79 43q-35 2 -48.5 3t-44.5 5.5t-45.5 10t-36 16.5
t-31.5 25.5t-18 37t-8 50.5q0 90 63.5 132t152.5 42q58 0 127.5 -15.5t108.5 -32.5zM442 480h-182v-131h182q42 0 61 18q21 19 21 46q0 28 -19 47q-20 20 -63 20z" />
    <glyph glyph-name="rupiah.pl" horiz-adv-x="1358" 
d="M262 0h-170v613h372q109 0 178 -69q54 -54 54 -130q0 -55 -31 -98.5t-86 -71.5l146 -244h-192l-121 216h-150v-216zM783 493h156l3 -54q70 70 145 70q101 0 169.5 -71.5t68.5 -189.5q0 -114 -69.5 -187.5t-168.5 -73.5q-73 0 -128 52v-246h-163v557q0 74 -13 143z
M1058 121q39 0 66 36.5t27 90.5q0 58 -27 92t-66 34q-51 0 -98 -42v-172q50 -39 98 -39zM464 480h-202v-131h202q25 0 43.5 19.5t18.5 45.5t-18 46t-44 20z" />
    <glyph glyph-name="Rupee.pl" horiz-adv-x="776" 
d="M83 341v80h376q-7 20 -24 37q-26 27 -80 27h-272v128h639v-80h-168q60 -53 76 -112h92v-80h-87q-10 -77 -67 -132q-65 -54 -174 -54h-25l236 -155h-237l-285 185v79h272q51 0 78 25q24 23 30 52h-380z" />
    <glyph glyph-name="section.pl" horiz-adv-x="674" 
d="M651 238q0 -72 -60 -130q-21 -19 -38 -29q9 -14 12 -24q8 -24 8 -50q0 -61 -38.5 -103.5t-90.5 -59.5t-111 -17q-116 0 -225 57l64 107q101 -43 164 -43q68 0 68 39q0 12 -7 19q-16 18 -117 31q-148 21 -214 85q-45 43 -45 102q0 67 54 123q20 20 44 35q-5 8 -10 19
q-10 23 -10 56q0 89 73 134.5t168 45.5q120 0 234 -57l-64 -107q-107 43 -174 43q-68 0 -68 -38q0 -13 9 -20q16 -13 115 -27q152 -22 219 -93q40 -43 40 -98zM356 291q-101 12 -134 22q-16 -13 -24 -25q-16 -22 -16 -45q0 -21 14 -35q25 -25 120 -35q91 -11 135 -25
q14 12 19 19q20 25 20 50q0 19 -13 34q-25 27 -121 40z" />
    <glyph glyph-name="numbersign.pl" horiz-adv-x="868" 
d="M577 667h99l-29 -164h193v-127h-215l-28 -160h184v-127h-206l-34 -194h-99l34 194h-161l-34 -194h-99l34 194h-190v127h212l28 160h-181v127h203l29 164h99l-29 -164h161zM365 376l-28 -160h161l28 160h-161z" />
    <glyph glyph-name="percent.pl" horiz-adv-x="1026" 
d="M629 653h140l-372 -653h-140zM21 477q0 79 62.5 135.5t151.5 56.5q88 0 152 -56.5t64 -135.5q0 -80 -64 -137t-152 -57q-90 0 -152 56.5t-62 137.5zM165 477q0 -31 20.5 -54t49.5 -23q30 0 51 22.5t21 54.5t-21 54t-51 22q-29 0 -49.5 -22.5t-20.5 -53.5zM575 178
q0 79 62 135.5t151 56.5q88 0 152.5 -57t64.5 -135q0 -80 -64 -137t-153 -57t-151 57t-62 137zM719 178q0 -32 20.5 -54.5t48.5 -22.5q30 0 51.5 22.5t21.5 54.5q0 31 -21.5 53.5t-51.5 22.5q-28 0 -48.5 -22.5t-20.5 -53.5z" />
    <glyph glyph-name="perthousand.pl" horiz-adv-x="1485" 
d="M629 653h140l-372 -653h-140zM21 477q0 79 62.5 135.5t151.5 56.5q88 0 152 -56.5t64 -135.5q0 -80 -64 -137t-152 -57q-90 0 -152 56.5t-62 137.5zM165 477q0 -31 20.5 -54t49.5 -23q30 0 51 22.5t21 54.5t-21 54t-51 22q-29 0 -49.5 -22.5t-20.5 -53.5zM575 178
q0 79 62 135.5t151 56.5q88 0 152.5 -57t64.5 -135q0 -80 -64 -137t-153 -57t-151 57t-62 137zM719 178q0 -32 20.5 -54.5t48.5 -22.5q30 0 51.5 22.5t21.5 54.5q0 31 -21.5 53.5t-51.5 22.5q-28 0 -48.5 -22.5t-20.5 -53.5zM1037 178q0 79 62 135.5t151 56.5
q88 0 152.5 -57t64.5 -135q0 -80 -64 -137t-153 -57t-151 57t-62 137zM1181 178q0 -32 20.5 -54.5t48.5 -22.5q30 0 51.5 22.5t21.5 54.5q0 31 -21.5 53.5t-51.5 22.5q-28 0 -48.5 -22.5t-20.5 -53.5z" />
    <glyph glyph-name="zero.tl" horiz-adv-x="732" 
d="M36 307q0 136 97 231t233 95t233.5 -95t97.5 -231q0 -134 -98 -230.5t-233 -96.5t-232.5 96.5t-97.5 230.5zM207 307q0 -74 47 -129t112 -55t112.5 55.5t47.5 128.5q0 75 -47.5 129t-112.5 54q-66 0 -112.5 -53.5t-46.5 -129.5z" />
    <glyph glyph-name="one.tl" horiz-adv-x="732" 
d="M140 382l-36 136l248 95h145v-479h155v-134h-536v134h209v316z" />
    <glyph glyph-name="two.tl" horiz-adv-x="732" 
d="M152 403l-92 107q42 30 70 47.5t69.5 37.5t87 29t98.5 9q75 0 137 -18t105.5 -62t43.5 -108q0 -38 -17.5 -69.5t-40 -51.5t-65 -40t-70 -29.5t-76.5 -24.5q-85 -25 -125 -46t-40 -44v-6h422v-134h-596v104q0 104 83.5 166t230.5 98q84 24 107 44q15 16 16 33
q0 55 -110 55q-68 0 -121.5 -24.5t-116.5 -72.5z" />
    <glyph glyph-name="three.tl" horiz-adv-x="732" 
d="M292 258v124h107q34 0 54 15t20 39q0 32 -29.5 48t-67.5 16q-96 0 -212 -93l-93 104q155 122 307 122q45 0 89.5 -10t85.5 -30t66.5 -56.5t25.5 -83.5q0 -60 -71 -106q117 -50 117 -149q0 -101 -95 -159.5t-240 -58.5q-191 0 -336 129l90 106q121 -102 246 -102
q70 0 116.5 24.5t46.5 66.5q0 30 -27 42t-60 12h-140z" />
    <glyph glyph-name="four.tl" horiz-adv-x="732" 
d="M698 246v-124h-104v-122h-171v122h-404v93l417 398h158v-367h104zM249 250v-4h174v174h-10z" />
    <glyph glyph-name="five.tl" horiz-adv-x="732" 
d="M629 613v-133h-383v-132q86 66 186 66q69 0 127.5 -20t99 -67.5t40.5 -114.5q0 -59 -29 -105t-78 -73t-107 -40.5t-122 -13.5q-168 0 -342 90l72 117q137 -74 270 -74q66 0 110.5 26t44.5 72q0 39 -34.5 57t-87.5 18q-94 0 -205 -60l-98 68v319h536z" />
    <glyph glyph-name="six.tl" horiz-adv-x="732" 
d="M662 583l-70 -115q-87 33 -168 33q-87 0 -149 -49.5t-66 -136.5q105 88 227 88q120 0 189 -59.5t69 -139.5q0 -94 -85 -159t-214 -65q-144 0 -247.5 84t-103.5 231q0 102 54 181t138 118t181 39q122 0 245 -50zM407 279q-85 0 -185 -54q21 -53 67 -82.5t103 -29.5
t94.5 27.5t37.5 62.5q0 30 -28.5 53t-88.5 23z" />
    <glyph glyph-name="seven.tl" horiz-adv-x="732" 
d="M44 470v143h653v-122l-375 -491h-215l380 470h-443z" />
    <glyph glyph-name="eight.tl" horiz-adv-x="732" 
d="M366 -22q-131 0 -228 56.5t-97 149.5q0 54 34.5 94.5t92.5 64.5q-92 44 -92 117q0 54 46.5 95.5t112 60.5t133.5 19q67 0 130.5 -18.5t110.5 -61.5t47 -101q0 -77 -90 -111q57 -24 91 -64.5t34 -94.5q0 -93 -97 -149.5t-228 -56.5zM366 111q58 0 101.5 22.5t43.5 59.5
t-45 57.5t-100 20.5t-100 -20.5t-45 -57.5t44 -59.5t101 -22.5zM366 391q53 0 81.5 15t28.5 41q0 31 -34 47.5t-76 16.5t-76 -16.5t-34 -47.5q0 -26 29 -41t81 -15z" />
    <glyph glyph-name="nine.tl" horiz-adv-x="732" 
d="M68 30l71 115q85 -33 168 -33q88 0 149.5 49.5t66.5 136.5q-106 -88 -228 -88q-120 0 -189.5 59.5t-69.5 139.5q0 94 85.5 159t214.5 65q93 0 171.5 -34.5t129.5 -108t51 -172.5q0 -103 -54 -181.5t-138 -117.5t-182 -39q-123 0 -246 50zM324 334q87 0 185 53
q-21 53 -67 83t-103 30t-95 -27.5t-38 -62.5q0 -30 29 -53t89 -23z" />
    <glyph glyph-name="dollar.tl" horiz-adv-x="732" 
d="M393 713h117l-19 -96q110 -21 184 -60l-93 -115q-58 29 -126 46l-21 -106q60 -6 103 -17t80 -32t56 -56t19 -84q0 -107 -85 -160t-220 -53q-4 0 -11 0.5t-10 0.5l-21 -111h-117l24 124q-120 26 -229 101l92 112q90 -62 172 -85l24 126q-43 4 -75 10t-68 19.5t-58.5 32
t-38 50t-15.5 72.5q0 55 25 95.5t67.5 62.5t91.5 32.5t104 10.5q21 0 32 -1zM524 181q0 28 -26.5 40t-90.5 18l-26 -131h10q61 0 97 19t36 54zM227 442q0 -23 26 -35t87 -17l22 113q-6 1 -19 1q-57 0 -86.5 -18t-29.5 -44z" />
    <glyph glyph-name="cent.tl" horiz-adv-x="732" 
d="M235 -130l33 130q-101 25 -164.5 92t-63.5 157q0 117 96.5 188.5t238.5 71.5q16 0 24 -1l17 65h123l-22 -83q84 -22 151 -67l-100 -107q-47 30 -94 44l-62 -240q79 5 163 64l100 -98q-20 -18 -52 -38t-98 -41t-137 -22l-30 -115h-123zM214 249q0 -39 26.5 -69.5
t71.5 -46.5l62 240q-70 -3 -115 -36t-45 -88z" />
    <glyph glyph-name="Euro.tl" horiz-adv-x="732" 
d="M35 341v80h100q34 94 116.5 152.5t195.5 58.5q63 0 129.5 -21t111.5 -54l-80 -107q-67 44 -138 44q-94 0 -145 -73h183v-80h-215q-2 -12 -2 -35q0 -19 1 -28h216v-80h-186q52 -80 154 -80q37 0 78 18t72 45l81 -105q-112 -95 -254 -95q-119 0 -203.5 59.5t-117.5 157.5
h-97v80h81q-1 9 -1 29q0 23 1 34h-81z" />
    <glyph glyph-name="sterling.tl" horiz-adv-x="732" 
d="M52 282v91h136v76q0 89 72 136.5t171 47.5q51 0 120.5 -16.5t129.5 -43.5l-66 -121q-101 48 -174 48q-32 0 -56.5 -22t-24.5 -62v-43h202v-91h-202v-35q0 -53 -20.5 -79t-69.5 -35h410v-133h-628v133h40q56 0 76 22.5t20 91.5v35h-136z" />
    <glyph glyph-name="yen.tl" horiz-adv-x="732" 
d="M48 341v80h135l-129 192h205l110 -189l108 189h198l-129 -192h138v-80h-192l-42 -63h234v-80h-234v-198h-170v198h-232v80h232l-43 63h-189z" />
    <glyph glyph-name="florin.tl" horiz-adv-x="732" 
d="M166 282v91h118l28 129q10 47 43.5 77.5t72 42t81.5 11.5q78 0 94 -10l-24 -114h-68q-16 0 -27.5 -7.5t-13.5 -19.5l-23 -109h127v-91h-147l-59 -279q-20 -92 -93 -137t-155 -45l-20 118q95 20 107 75l57 268h-98z" />
    <glyph glyph-name="colonmonetary.tl" horiz-adv-x="732" 
d="M522 713h76l-26 -118q73 -27 131 -68l-102 -107q-33 23 -59 35l-70 -325q72 22 137 81l103 -105q-120 -102 -271 -121l-25 -115h-75l24 112q-48 2 -77 9l-26 -121h-75l30 143q-91 39 -143 118t-52 176q0 129 91.5 222.5t236.5 101.5l18 82h76l-18 -84q31 -3 75 -13z
M318 132q40 -14 76 -14l78 364q-33 10 -76 12zM198 306q0 -80 54 -132l66 306q-56 -21 -88 -68t-32 -106z" />
    <glyph glyph-name="franc.tl" horiz-adv-x="732" 
d="M35 94v90h109v429h560v-128h-389v-87h244v-127h-244v-87h173v-90h-173v-94h-171v94h-109z" />
    <glyph glyph-name="lira.tl" horiz-adv-x="732" 
d="M59 341v80h138v28q0 89 70.5 136.5t167.5 47.5q49 0 117 -16.5t128 -43.5l-66 -121q-98 48 -169 48q-29 0 -52 -20.5t-24 -58.5h197v-80h-197v-63h197v-80h-203q-15 -52 -83 -65h399v-133h-620v133h44q43 0 64 13.5t27 51.5h-135v80h138v63h-138z" />
    <glyph glyph-name="peso.tl" horiz-adv-x="732" 
d="M25 341v80h73v192h272q142 0 218 -79q46 -49 59 -113h77v-80h-74q-10 -77 -67 -132q-76 -73 -213 -73h-102v-136h-170v341h-73zM448 289q24 23 30 52h-210v-77h102q51 0 78 25zM370 485h-102v-64h206q-7 20 -24 37q-26 27 -80 27z" />
    <glyph glyph-name="Rupee.tl" horiz-adv-x="732" 
d="M49 341v80h376q-7 20 -24 37q-26 27 -80 27h-272v128h639v-80h-168q60 -53 76 -112h92v-80h-87q-10 -77 -67 -132q-65 -54 -174 -54h-25l236 -155h-237l-285 185v79h272q51 0 78 25q24 23 30 52h-380z" />
    <glyph glyph-name="section.tl" horiz-adv-x="732" 
d="M701 238q0 -72 -63 -130q-25 -20 -45 -29q8 -13 13 -24q9 -23 9 -50q0 -61 -40.5 -103.5t-96 -59.5t-117.5 -17q-125 0 -239 57l66 107q103 -43 176 -43q82 0 82 39q0 11 -9 19q-18 18 -127 31q-162 21 -234 85q-48 43 -48 102q0 68 57 123q19 18 50 35q-8 12 -11 19
q-11 25 -11 56q0 61 40.5 103.5t96 59.5t118.5 17q128 0 247 -57l-66 -107q-108 43 -185 43q-81 0 -81 -38q0 -13 9 -20q18 -12 127 -27q165 -21 238 -93q44 -44 44 -98zM387 291q-115 13 -149 22q-15 -11 -26 -25q-22 -22 -22 -45q0 -20 18 -35q28 -25 133 -35
q104 -12 150 -25q16 12 22 19q25 25 25 50q0 20 -17 34q-29 28 -134 40z" />
    <glyph glyph-name="numbersign.tl" horiz-adv-x="732" 
d="M485 667h91l-24 -164h162v-127h-181l-24 -160h154v-127h-173l-29 -194h-91l29 194h-132l-29 -194h-91l29 194h-159v127h178l24 160h-152v127h171l25 164h91l-25 -164h132zM310 376l-24 -160h132l24 160h-132z" />
    <glyph glyph-name="percent.tl" horiz-adv-x="732" 
d="M454 653h101l-278 -653h-100zM-3 477q0 79 46.5 135.5t112.5 56.5q65 0 112 -56.5t47 -135.5q0 -80 -47 -137t-112 -57q-67 0 -113 56.5t-46 137.5zM109 477q0 -31 14.5 -54t32.5 -23q21 0 34.5 22.5t13.5 54.5t-13.5 54t-34.5 22q-18 0 -32.5 -22.5t-14.5 -53.5z
M417 178q0 79 46 135.5t111 56.5q66 0 113.5 -57t47.5 -135q0 -80 -47.5 -137t-113.5 -57t-111.5 56.5t-45.5 137.5zM528 178q0 -31 14 -54t32 -23q21 0 35 22.5t14 54.5q0 31 -14 53.5t-35 22.5q-18 0 -32 -22.5t-14 -53.5z" />
    <glyph glyph-name="zero.numerator" horiz-adv-x="568" 
d="M25 437q0 97 76 163.5t183 66.5t183.5 -66.5t76.5 -163.5q0 -94 -77 -162.5t-183 -68.5t-182.5 68t-76.5 163zM163 437q0 -48 35.5 -84.5t85.5 -36.5q49 0 85.5 36.5t36.5 84.5q0 49 -36 84.5t-86 35.5t-85.5 -35t-35.5 -85z" />
    <glyph glyph-name="one.numerator" horiz-adv-x="336" 
d="M29 487l-29 106l152 60h113v-433h-139v304z" />
    <glyph glyph-name="two.numerator" horiz-adv-x="488" 
d="M101 496l-71 82q41 30 67 46t69.5 29.5t91.5 13.5q81 0 138.5 -34t57.5 -102q0 -32 -13 -57t-40 -42.5t-54 -29t-67 -24.5q-104 -33 -104 -50v-4h270v-104h-409v77q0 74 56 117.5t161 70.5q62 17 62 47q0 34 -54 34q-43 0 -79 -17.5t-82 -52.5z" />
    <glyph glyph-name="three.numerator" horiz-adv-x="533" 
d="M205 398v95h75q26 0 40 9.5t14 23.5q0 20 -19 30t-42 10q-67 0 -152 -65l-74 82q117 84 227 84q46 0 89 -11.5t76.5 -42.5t33.5 -75q0 -36 -53 -71q85 -38 85 -106q0 -71 -70.5 -113t-176.5 -42q-139 0 -246 91l71 81q90 -71 175 -71q47 0 77.5 16t30.5 42q0 33 -56 33
h-105z" />
    <glyph glyph-name="four.numerator" horiz-adv-x="563" 
d="M541 398v-95h-79v-83h-138v83h-308v69l318 281h128v-255h79zM200 401v-3h124v108h-8z" />
    <glyph glyph-name="five.numerator" horiz-adv-x="530" 
d="M460 653v-101h-269v-88q58 48 128 48q76 0 132.5 -36.5t56.5 -106.5q0 -54 -37 -92t-90.5 -54.5t-115.5 -16.5q-117 0 -250 58l53 91q107 -48 196 -48q42 0 69 17t27 45q0 46 -76 46q-61 0 -139 -41l-77 52v227h392z" />
    <glyph glyph-name="six.numerator" horiz-adv-x="528" 
d="M481 637l-52 -89q-68 19 -119 19q-61 0 -103.5 -33t-46.5 -90q72 61 157 61q87 0 138 -42.5t51 -99.5q0 -65 -63.5 -111t-158.5 -46q-106 0 -182 59t-76 163q0 108 82.5 173.5t194.5 65.5q96 0 178 -30zM292 410q-57 0 -121 -33q14 -33 43.5 -51.5t66.5 -18.5q38 0 63 17
t25 38q0 19 -18.5 33.5t-58.5 14.5z" />
    <glyph glyph-name="seven.numerator" horiz-adv-x="481" 
d="M25 543v110h441v-91l-242 -342h-170l239 323h-268z" />
    <glyph glyph-name="eight.numerator" horiz-adv-x="537" 
d="M269 204q-97 0 -169 40.5t-72 107.5q0 71 87 112q-62 37 -62 80q0 38 35 67.5t83.5 43.5t99.5 14q80 0 146.5 -34.5t66.5 -96.5q0 -48 -59 -74q84 -40 84 -112q0 -67 -72 -107.5t-168 -40.5zM269 306q38 0 67 14t29 38q0 23 -30 36t-66 13t-66.5 -13t-30.5 -36
t29.5 -37.5t67.5 -14.5zM269 500q71 0 71 34q0 19 -22.5 29.5t-48.5 10.5q-27 0 -49 -10.5t-22 -29.5q0 -34 71 -34z" />
    <glyph glyph-name="nine.numerator" horiz-adv-x="528" 
d="M47 236l52 89q68 -19 119 -19q60 0 102 32.5t46 89.5q-73 -60 -156 -60q-86 0 -137 42.5t-51 99.5q0 65 63 111t158 46q107 0 183 -59t76 -163q0 -108 -82.5 -173.5t-194.5 -65.5q-96 0 -178 30zM235 463q55 0 121 32q-15 33 -44 52t-65 19q-38 0 -63 -17t-25 -38
q0 -19 18.5 -33.5t57.5 -14.5z" />
    <glyph glyph-name="zero.denominator" horiz-adv-x="569" 
d="M25 217q0 97 76 163.5t183 66.5t183.5 -66.5t76.5 -163.5q0 -94 -77 -162.5t-183 -68.5t-182.5 68t-76.5 163zM163 217q0 -48 35.5 -84.5t85.5 -36.5q49 0 85.5 36.5t36.5 84.5q0 49 -36 84.5t-86 35.5t-85.5 -35t-35.5 -85z" />
    <glyph glyph-name="one.denominator" horiz-adv-x="336" 
d="M29 267l-29 106l152 60h113v-433h-139v304z" />
    <glyph glyph-name="two.denominator" horiz-adv-x="488" 
d="M101 276l-71 82q41 30 67 46t69.5 29.5t91.5 13.5q81 0 138.5 -34t57.5 -102q0 -32 -13 -57t-40 -42.5t-54 -29t-67 -24.5q-104 -33 -104 -50v-4h270v-104h-409v77q0 74 56 117.5t161 70.5q62 17 62 47q0 34 -54 34q-43 0 -79 -17.5t-82 -52.5z" />
    <glyph glyph-name="three.denominator" horiz-adv-x="534" 
d="M206 178v95h75q26 0 40 9.5t14 23.5q0 20 -19 30t-42 10q-67 0 -152 -65l-74 82q117 84 227 84q46 0 89 -11.5t76.5 -42.5t33.5 -75q0 -36 -53 -71q85 -38 85 -106q0 -71 -70.5 -113t-176.5 -42q-139 0 -246 91l71 81q90 -71 175 -71q47 0 77.5 16t30.5 42q0 33 -56 33
h-105z" />
    <glyph glyph-name="four.denominator" horiz-adv-x="563" 
d="M541 178v-95h-79v-83h-138v83h-308v69l318 281h128v-255h79zM200 181v-3h124v108h-8z" />
    <glyph glyph-name="five.denominator" horiz-adv-x="530" 
d="M460 433v-101h-269v-88q58 48 128 48q76 0 132.5 -36.5t56.5 -106.5q0 -54 -37 -92t-90.5 -54.5t-115.5 -16.5q-117 0 -250 58l53 91q107 -48 196 -48q42 0 69 17t27 45q0 46 -76 46q-61 0 -139 -41l-77 52v227h392z" />
    <glyph glyph-name="six.denominator" horiz-adv-x="529" 
d="M481 417l-52 -89q-68 19 -119 19q-61 0 -103.5 -33t-46.5 -90q72 61 157 61q87 0 138 -42.5t51 -99.5q0 -65 -63.5 -111t-158.5 -46q-106 0 -182 59t-76 163q0 108 82.5 173.5t194.5 65.5q96 0 178 -30zM292 190q-57 0 -121 -33q14 -33 43.5 -51.5t66.5 -18.5q38 0 63 17
t25 38q0 19 -18.5 33.5t-58.5 14.5z" />
    <glyph glyph-name="seven.denominator" horiz-adv-x="482" 
d="M26 323v110h441v-91l-242 -342h-170l239 323h-268z" />
    <glyph glyph-name="eight.denominator" horiz-adv-x="537" 
d="M269 -16q-97 0 -169 40.5t-72 107.5q0 71 87 112q-62 37 -62 80q0 38 35 67.5t83.5 43.5t99.5 14q80 0 146.5 -34.5t66.5 -96.5q0 -48 -59 -74q84 -40 84 -112q0 -67 -72 -107.5t-168 -40.5zM269 86q38 0 67 14t29 38q0 23 -30 36t-66 13t-66.5 -13t-30.5 -36t29.5 -37.5
t67.5 -14.5zM269 280q71 0 71 34q0 19 -22.5 29.5t-48.5 10.5q-27 0 -49 -10.5t-22 -29.5q0 -34 71 -34z" />
    <glyph glyph-name="nine.denominator" horiz-adv-x="529" 
d="M48 16l52 89q68 -19 119 -19q60 0 102 32.5t46 89.5q-73 -60 -156 -60q-86 0 -137 42.5t-51 99.5q0 65 63 111t158 46q107 0 183 -59t76 -163q0 -108 -82.5 -173.5t-194.5 -65.5q-96 0 -178 30zM236 243q55 0 121 32q-15 33 -44 52t-65 19q-38 0 -63 -17t-25 -38
q0 -19 18.5 -33.5t57.5 -14.5z" />
    <glyph glyph-name="acute.cap" 
d="M255 868h150l-110 -146h-140z" />
    <glyph glyph-name="grave.cap" 
d="M87 868h150l100 -146h-140z" />
    <glyph glyph-name="circumflex.cap" 
d="M172 868h148l109 -146h-128l-55 75l-55 -75h-128z" />
    <glyph glyph-name="dieresis.cap" 
d="M279 801q0 32 24 54.5t60 22.5t61 -22.5t25 -54.5q0 -31 -25 -53t-61 -22t-60 21.5t-24 53.5zM42 801q0 32 24 54.5t60 22.5t61 -22.5t25 -54.5q0 -31 -25 -53t-61 -22t-60 21.5t-24 53.5z" />
    <glyph glyph-name="tilde.cap" 
d="M134 713l-93 50q33 59 66 84t74 25q38 0 74 -24q38 -24 49 -24q12 0 23.5 8.5t17.5 16t17 22.5l85 -46q-59 -111 -139 -111q-32 0 -68 22q-4 2 -11.5 7.5t-11 7.5t-9.5 5t-11 4.5t-10 1.5q-7 0 -13 -2.5t-12 -9t-9.5 -11t-10 -14t-8.5 -12.5z" />
    <glyph glyph-name="ring.cap" 
d="M98 806q0 49 38 84t107 35q68 0 106.5 -35t38.5 -84q0 -48 -38.5 -81t-106.5 -33q-69 0 -107 33t-38 81zM191 806q0 -20 15 -32t37 -12t37 12t15 32q0 22 -15 37t-37 15t-37 -15t-15 -37z" />
    <glyph glyph-name="cedilla.cap" 
d="M222 30h115l-22 -40q41 -19 58 -37q26 -26 26 -66q0 -51 -50 -82.5t-130 -31.5q-49 0 -134 20l23 85q77 -11 96 -11q53 0 53 29q0 14 -15.5 24t-30 12.5t-24.5 2.5h-3v25z" />
    <glyph glyph-name="breve.cap" 
d="M74 868h112q0 -67 60 -67t60 67h112q0 -28 -7.5 -53.5t-25.5 -50t-53.5 -39t-85.5 -14.5t-85.5 14.5t-53.5 39t-25.5 50t-7.5 53.5z" />
    <glyph glyph-name="caron.cap" 
d="M63 868h128l55 -76l55 76h128l-109 -146h-148z" />
    <glyph glyph-name="dotaccent.cap" 
d="M161 801q0 32 24 54.5t60 22.5t61 -22.5t25 -54.5q0 -31 -25 -53t-61 -22t-60 21.5t-24 53.5z" />
    <glyph glyph-name="hungarumlaut.cap" 
d="M129 868h130l-70 -146h-100zM318 868h130l-70 -146h-100z" />
    <glyph glyph-name="macron.cap" 
d="M108 842h276v-106h-276v106z" />
    <glyph glyph-name="ogonek.cap" 
d="M233 40l74 -40q-25 -11 -41 -18.5t-36 -27t-20 -40.5q0 -37 53 -37q14 0 56 8l13 -96q-49 -16 -98 -16q-67 0 -106.5 30t-39.5 79q0 95 145 158z" />
    <glyph glyph-name="commaaccent.cap" 
d="M215 -70l124 30q32 -48 32 -91q0 -58 -48 -93.5t-128 -35.5q-47 0 -98 16l13 86q42 -8 56 -8q63 0 63 47q0 16 -14 49z" />
    <glyph glyph-name="caron.cap.alt" 
d="M188 700h133q0 -144 -55 -246h-78v246z" />
    <glyph glyph-name="ampersand.cap" horiz-adv-x="774" 
d="M577 628l-63 -129q-26 13 -65 24.5t-64 11.5q-26 0 -39 -12t-13 -30q0 -32 61 -102l124 -141q58 65 109 150l121 -59q-68 -114 -141 -192l132 -149h-206l-43 49q-96 -65 -207 -65q-34 0 -68 7t-68 23.5t-59.5 41t-41.5 62t-16 83.5q0 141 158 202q-27 44 -27 90
q0 81 65.5 131.5t158.5 50.5q83 0 192 -47zM402 151l-143 164q-58 -39 -58 -102q0 -49 32.5 -71.5t70.5 -22.5q44 0 98 32z" />
    <glyph glyph-name="zero.cap" horiz-adv-x="782" 
d="M40 327q0 145 103 246t247 101q145 0 248.5 -101t103.5 -246q0 -143 -104 -245.5t-248 -102.5q-143 0 -246.5 102.5t-103.5 245.5zM211 327q0 -82 52.5 -143t126.5 -61t127.5 61t53.5 143q0 84 -53.5 143.5t-127.5 59.5t-126.5 -59.5t-52.5 -143.5z" />
    <glyph glyph-name="one.cap" horiz-adv-x="453" 
d="M44 428l-36 136l202 89h145v-653h-172v491z" />
    <glyph glyph-name="one.cap.alt" horiz-adv-x="459" 
d="M317 0h-175v653h175v-653z" />
    <glyph glyph-name="two.cap" horiz-adv-x="662" 
d="M52 0v108q0 58 21.5 104.5t63 79.5t91 56t115.5 41q99 28 99 87q0 33 -26 48t-62 15q-60 0 -108.5 -25.5t-109.5 -76.5l-90 108q41 32 66.5 50t64.5 39t81 30.5t91 9.5q109 0 186.5 -49.5t77.5 -147.5q0 -41 -14.5 -74.5t-35.5 -55.5t-56.5 -42t-63.5 -31t-72 -25
q-77 -25 -111.5 -50t-34.5 -58v-6h377v-135h-550z" />
    <glyph glyph-name="three.cap" horiz-adv-x="723" 
d="M287 278v126h106q34 0 54 17.5t20 44.5q0 36 -29.5 54.5t-66.5 18.5q-94 0 -211 -100l-93 104q153 131 306 131q45 0 89 -10.5t85 -31.5t66.5 -59.5t25.5 -88.5q0 -70 -71 -116q116 -47 116 -158q0 -108 -94.5 -169.5t-238.5 -61.5q-191 0 -334 137l90 108
q119 -110 244 -110q70 0 115.5 27.5t45.5 74.5q0 24 -15.5 39t-33 19t-37.5 4h-139z" />
    <glyph glyph-name="four.cap" horiz-adv-x="765" 
d="M731 259v-126h-110v-133h-171v133h-430v96l443 424h158v-394h110zM252 263v-4h198v197h-11z" />
    <glyph glyph-name="five.cap" horiz-adv-x="717" 
d="M356 -21q-166 0 -335 100l71 118q137 -83 264 -83q64 0 105.5 29t41.5 82q0 44 -33 65t-83 21q-89 0 -198 -66l-97 69v339h525v-136h-372v-144q81 68 180 68q105 0 182 -55.5t77 -159.5q0 -63 -28.5 -112t-76.5 -77.5t-104.5 -43t-118.5 -14.5z" />
    <glyph glyph-name="six.cap" horiz-adv-x="723" 
d="M657 617l-70 -116q-81 38 -167 38t-146.5 -53t-67.5 -146q106 89 226 89q119 0 188 -63.5t69 -147.5q0 -100 -84.5 -169.5t-213.5 -69.5q-144 0 -247 89.5t-103 246.5q0 162 110.5 260.5t261.5 98.5q104 0 244 -57zM403 303q-86 0 -187 -58q19 -62 66 -96.5t106 -34.5
q56 0 93.5 31t37.5 72q0 34 -28.5 60t-87.5 26z" />
    <glyph glyph-name="seven.cap" horiz-adv-x="643" 
d="M29 508v145h593v-126l-333 -527h-212l334 508h-382z" />
    <glyph glyph-name="eight.cap" horiz-adv-x="730" 
d="M365 -23q-131 0 -228 59.5t-97 158.5q0 60 34.5 103t92.5 66q-92 44 -92 127q0 58 47 101.5t111.5 63.5t133.5 20q67 0 130.5 -19.5t110.5 -64.5t47 -106q0 -88 -90 -122q57 -23 91 -66.5t34 -102.5q0 -66 -47.5 -117t-120.5 -76t-157 -25zM365 112q58 0 101.5 25
t43.5 67t-45 65t-100 23t-100 -23t-45 -65t44 -67t101 -25zM365 413q53 0 81.5 17t28.5 48q0 35 -34 54t-76 19t-76 -19t-34 -54q0 -31 29 -48t81 -17z" />
    <glyph glyph-name="nine.cap" horiz-adv-x="723" 
d="M66 36l70 116q81 -38 167 -38q85 0 145.5 53t67.5 145q-104 -88 -225 -88q-119 0 -188 63.5t-69 147.5q0 100 84.5 169.5t213.5 69.5q144 0 247 -89.5t103 -246.5q0 -162 -110.5 -260.5t-261.5 -98.5q-104 0 -244 57zM320 350q87 0 186 57q-18 62 -65 97t-106 35
q-56 0 -93.5 -31t-37.5 -72q0 -34 28.5 -60t87.5 -26z" />
    <glyph glyph-name="exclamdown.cap" horiz-adv-x="351" 
d="M270 572q0 -40 -31 -68.5t-76 -28.5q-44 0 -75.5 29t-31.5 68q0 40 31.5 68t75.5 28q46 0 76.5 -27.5t30.5 -68.5zM107 426h113l34 -239v-187h-181v187z" />
    <glyph glyph-name="questiondown.cap" horiz-adv-x="569" 
d="M420 189l100 -90q-30 -28 -51 -44t-54.5 -36t-73.5 -29.5t-87 -9.5q-94 0 -156.5 40.5t-62.5 125.5q0 62 33.5 102t94.5 76q47 27 60 44q18 24 20 58h159q1 -33 -6.5 -61t-18 -46.5t-32.5 -38t-37.5 -30t-45.5 -29.5q-3 -2 -13 -8t-14 -8.5t-12 -8.5t-11.5 -10t-8 -9.5
t-6 -12t-1.5 -13.5q0 -22 18.5 -34.5t49.5 -12.5q40 0 76.5 21.5t79.5 63.5zM412 572q0 -40 -31 -68.5t-76 -28.5t-76 29t-31 68q0 40 31.5 68t75.5 28q45 0 76 -28t31 -68z" />
    <glyph glyph-name="guilsinglleft.cap" horiz-adv-x="373" 
d="M144 496h175l-130 -156v-8l130 -154h-175l-104 128v61z" />
    <glyph glyph-name="guilsinglright.cap" horiz-adv-x="373" 
d="M54 496h175l104 -129v-61l-104 -128h-175l130 154v8z" />
    <glyph glyph-name="guillemotleft.cap" horiz-adv-x="648" 
d="M144 496h175l-130 -156v-8l130 -154h-175l-104 128v61zM293 332v8l126 156h175l-130 -156v-8l130 -154h-175z" />
    <glyph glyph-name="guillemotright.cap" horiz-adv-x="648" 
d="M329 496h175l104 -129v-61l-104 -128h-175l130 154v8zM355 340v-8l-126 -154h-175l130 154v8l-130 156h175z" />
    <glyph glyph-name="hyphen.cap" horiz-adv-x="413" 
d="M56 272v145h301v-145h-301z" />
    <glyph glyph-name="endash.cap" horiz-adv-x="624" 
d="M56 281v136h512v-136h-512z" />
    <glyph glyph-name="emdash.cap" horiz-adv-x="1053" 
d="M56 281v136h941v-136h-941z" />
    <glyph glyph-name="parenleft.cap" horiz-adv-x="409" 
d="M316 751l77 -96q-87 -52 -139 -142.5t-52 -194.5t51.5 -192.5t139.5 -141.5l-77 -96q-135 71 -210.5 183.5t-75.5 246.5t75.5 248t210.5 185z" />
    <glyph glyph-name="parenright.cap" horiz-adv-x="409" 
d="M16 655l77 96q135 -71 210.5 -185t75.5 -248t-75.5 -246.5t-210.5 -183.5l-77 96q88 53 139.5 141.5t51.5 192.5t-52 194.5t-139 142.5z" />
    <glyph glyph-name="bracketleft.cap" horiz-adv-x="397" 
d="M360 16v-114h-286v842h286v-114h-124v-614h124z" />
    <glyph glyph-name="bracketright.cap" horiz-adv-x="397" 
d="M37 -98v114h124v614h-124v114h286v-842h-286z" />
    <glyph glyph-name="braceleft.cap" horiz-adv-x="417" 
d="M381 -99q-157 0 -209 33t-52 139v141q0 60 -97 60v112q39 0 68 18t29 47v120q0 106 53.5 140t207.5 34v-114q-58 0 -78 -10t-20 -40v-130q0 -37 -27 -66.5t-72 -48.5v-2q98 -30 98 -120v-151q0 -29 20 -38.5t79 -9.5v-114z" />
    <glyph glyph-name="braceright.cap" horiz-adv-x="417" 
d="M36 -99v114q59 0 79 9.5t20 38.5v151q0 90 98 120v2q-45 19 -72 48.5t-27 66.5v130q0 30 -20 40t-78 10v114q154 0 207.5 -34t53.5 -140v-120q0 -29 29 -47t68 -18v-112q-97 0 -97 -60v-141q0 -106 -52 -139t-209 -33z" />
    <glyph glyph-name="bullet.cap" horiz-adv-x="461" 
d="M231 175q-75 0 -128.5 49.5t-53.5 120.5t53.5 120.5t128.5 49.5t128 -49.5t53 -120.5t-53 -120.5t-128 -49.5z" />
    <glyph glyph-name="at.cap" horiz-adv-x="1083" 
d="M671 542h155l-83 -251q-15 -42 -15 -59q0 -30 34 -30q57 0 102.5 57.5t45.5 142.5q0 114 -84.5 187t-223.5 73q-109 0 -203 -45.5t-152 -132.5t-58 -197q0 -65 21.5 -120.5t57 -94t81.5 -65.5t96 -39.5t100 -12.5q67 0 144 21.5t136 51.5l38 -98q-58 -33 -147 -59
t-176 -26q-68 0 -136.5 17t-132.5 53t-114 87t-80 125t-30 160q0 142 78.5 254.5t204.5 171.5t272 59q196 0 318 -103.5t122 -258.5q0 -72 -29 -135t-75 -104.5t-102.5 -65t-113.5 -23.5q-118 0 -135 89q-68 -88 -143 -88q-59 0 -103 47t-44 135q0 118 75.5 203t158.5 85
q64 0 118 -82zM501 223q37 0 80 46l28 85q-9 26 -25 42.5t-34 16.5q-30 0 -60.5 -37.5t-30.5 -91.5q0 -61 42 -61z" />
    <glyph glyph-name="copyright.cap" horiz-adv-x="1068" 
d="M756 492l-63 -109q-67 43 -125 43q-54 0 -87.5 -33.5t-33.5 -83.5q0 -46 36 -74.5t89 -28.5t129 33l59 -104q-98 -59 -211 -59q-116 0 -195 65t-79 168q0 105 75 175.5t196 70.5q107 0 210 -63zM532 771q202 0 346 -135t144 -327q0 -127 -66 -233.5t-178.5 -168
t-245.5 -61.5q-134 0 -247.5 61.5t-180 168t-66.5 233.5q0 126 66.5 232.5t180 168t247.5 61.5zM532 663q-152 0 -264 -105.5t-112 -248.5q0 -147 111 -250.5t265 -103.5q157 0 265 102.5t108 251.5q0 145 -109 249.5t-264 104.5z" />
    <glyph glyph-name="soundrecordingcopyright.cap" horiz-adv-x="1068" 
d="M606 209h-115v-112h-162v445h252q38 0 72.5 -7t70 -23.5t56.5 -50.5t21 -83q0 -82 -58.5 -125.5t-136.5 -43.5zM491 424v-97h93q55 0 55 49q0 24 -16 36t-39 12h-93zM532 772q202 0 346 -135t144 -327q0 -127 -66 -233.5t-178.5 -168t-245.5 -61.5q-134 0 -247.5 61.5
t-180 168t-66.5 233.5q0 126 66.5 232.5t180 168t247.5 61.5zM532 664q-152 0 -264 -105.5t-112 -248.5q0 -147 111 -250.5t265 -103.5q157 0 265 102.5t108 251.5q0 145 -109 249.5t-264 104.5z" />
    <glyph glyph-name="dollar.cap" horiz-adv-x="731" 
d="M225 -140l27 136q-110 28 -211 108l91 112q85 -66 156 -89l29 142q-42 5 -71.5 11t-65 19.5t-57 33.5t-36.5 53t-15 77q0 57 24 100t64.5 66t87 34t99.5 11q12 0 40 -2l18 89h115l-22 -107q102 -25 166 -64l-92 -115q-42 27 -110 48l-23 -117q55 -7 95 -18.5t75.5 -33.5
t54 -60t18.5 -90q0 -113 -81.5 -169t-210.5 -56q-18 0 -26 1l-24 -120h-115zM513 189q0 33 -25 47.5t-78 22.5l-30 -150h12q57 0 89 21.5t32 58.5zM242 474q0 -31 25.5 -43.5t78.5 -17.5l25 129q-4 0 -12 0.5t-12 0.5q-49 0 -77 -18t-28 -51z" />
    <glyph glyph-name="cent.cap" horiz-adv-x="626" 
d="M213 -140l27 138q-88 26 -143.5 97.5t-55.5 168.5q0 124 82 200t204 76q14 0 21 -1l15 73h115l-19 -96q66 -25 117 -66l-96 -107q-31 25 -58 39l-52 -262q53 9 120 68l95 -98q-17 -18 -43.5 -38t-79.5 -42t-109 -25l-25 -125h-115zM213 264q0 -82 66 -124l52 264
q-52 -5 -85 -42.5t-33 -97.5z" />
    <glyph glyph-name="Euro.cap" horiz-adv-x="798" 
d="M49 364v84h105q36 100 123.5 162.5t204.5 62.5q68 0 138 -23t118 -61l-82 -108q-72 52 -153 52q-104 0 -159 -85h205v-84h-236q-3 -20 -3 -38q0 -21 2 -31h237v-84h-208q26 -43 69 -67.5t98 -24.5q42 0 87 20t79 51l83 -107q-117 -103 -270 -103q-123 0 -211.5 63.5
t-123.5 167.5h-103v84h86q-1 10 -1 32q0 13 2 37h-87z" />
    <glyph glyph-name="sterling.cap" horiz-adv-x="714" 
d="M51 301v95h134v82q0 95 70.5 145.5t167.5 50.5q49 0 117 -18.5t128 -48.5l-66 -121q-97 53 -169 53q-30 0 -53 -23.5t-23 -66.5v-53h194v-95h-194v-46q0 -56 -20.5 -83.5t-68.5 -37.5h399v-134h-616v134h40q54 0 74 24t20 97v46h-134z" />
    <glyph glyph-name="yen.cap" horiz-adv-x="778" 
d="M50 364v84h149l-140 205h207l127 -209l125 209h199l-140 -205h152v-84h-210l-45 -67v-2h255v-84h-255v-211h-171v211h-253v84h253v2l-46 67h-207z" />
    <glyph glyph-name="florin.cap" horiz-adv-x="466" 
d="M34 301v95h118l28 137q10 50 43 83t72 45.5t82 12.5q76 0 94 -13l-24 -116q-36 3 -68 3q-34 0 -41 -33l-24 -119h128v-95h-147l-59 -298q-10 -51 -37.5 -90.5t-63.5 -61t-73 -32t-74 -10.5l-20 119q96 22 107 84l58 289h-99z" />
    <glyph glyph-name="colonmonetary.cap" horiz-adv-x="764" 
d="M538 761h75l-25 -127q71 -30 129 -75l-102 -106q-32 25 -56 38l-71 -360q71 26 135 90l103 -104q-119 -112 -268 -132l-24 -125h-75l24 121q-47 2 -76 9l-25 -130h-75l30 153q-90 42 -142 126t-52 188q0 138 91 238t234 108l18 88h75l-18 -90q44 -5 74 -14zM336 134
q32 -14 74 -16l80 403q-35 12 -74 14zM219 326q0 -86 52 -144l67 339q-55 -23 -87 -76t-32 -119z" />
    <glyph glyph-name="franc.cap" horiz-adv-x="729" 
d="M48 105v92h104v456h537v-131h-367v-99h232v-131h-232v-95h163v-92h-163v-105h-170v105h-104z" />
    <glyph glyph-name="lira.cap" horiz-adv-x="718" 
d="M55 364v84h134v30q0 95 70.5 145.5t167.5 50.5q49 0 117 -18.5t128 -48.5l-66 -121q-97 53 -169 53q-30 0 -53 -23.5t-23 -66.5v-1h194v-84h-194v-69h194v-84h-198q-7 -33 -27 -51t-58 -26h399v-134h-616v134h40q46 0 66.5 16t25.5 61h-132v84h134v69h-134z" />
    <glyph glyph-name="peso.cap" horiz-adv-x="823" 
d="M40 366v83h73v204h322q138 0 213 -77q53 -54 65 -127h89v-83h-87q-11 -83 -74 -143q-75 -72 -206 -72h-152v-151h-170v366h-73zM512 308q25 26 31 58h-260v-84h152q31 0 47 5.5t30 20.5zM435 522h-152v-73h258q-7 23 -27 45q-15 16 -30 22t-49 6z" />
    <glyph glyph-name="peseta.cap" horiz-adv-x="1623" 
d="M915 626v-133h113v-116h-113v-224q0 -21 11.5 -29t36.5 -8q8 0 16.5 1t19.5 2t19 2l10 -119q-24 -20 -112 -20q-69 0 -117 36.5t-48 114.5v244h-55q-15 -45 -53 -82q-68 -65 -195 -65h-189v-230h-175v653h364q136 0 205 -75q36 -41 47 -85h51v133h164zM1555 463l-54 -111
q-94 39 -174 39q-63 0 -63 -37q0 -16 11.5 -24t23.5 -9.5t39 -2.5q35 -2 60 -4.5t62 -12t60 -25.5t40 -45.5t17 -70.5q0 -85 -66 -131t-171 -46q-133 0 -256 75l54 111q41 -26 100.5 -46t106.5 -20q69 0 69 43q0 38 -79 43q-35 2 -48.5 3t-44.5 5.5t-45.5 10t-36 16.5
t-31.5 25.5t-18 37t-8 50.5q0 90 63.5 132t152.5 42q58 0 127.5 -15.5t108.5 -32.5zM458 511h-199v-139h199q34 0 52 18q22 22 22 51q0 30 -21 51q-19 19 -53 19z" />
    <glyph glyph-name="rupiah.cap" horiz-adv-x="1374" 
d="M267 0h-175v653h364q133 0 203 -73q56 -59 56 -139q0 -119 -120 -181l150 -260h-198l-125 230h-155v-230zM802 493h156l3 -54q70 70 145 70q101 0 169.5 -71.5t68.5 -189.5q0 -114 -69.5 -187.5t-168.5 -73.5q-73 0 -128 52v-246h-163v557q0 74 -13 143zM1077 121
q39 0 66 36.5t27 90.5q0 58 -27 92t-66 34q-51 0 -98 -42v-172q50 -39 98 -39zM466 511h-199v-139h199q32 0 53 18.5t21 51.5q0 28 -19 49q-19 20 -55 20z" />
    <glyph glyph-name="Rupee.cap" horiz-adv-x="773" 
d="M83 366v83h378q-5 19 -27 45q-15 15 -32 21.5t-52 6.5h-267v131h639v-83h-168q62 -57 77 -121h91v-83h-87q-11 -89 -75 -142q-70 -58 -182 -58h-9l257 -166h-241l-302 199v83h267q59 0 84 25q23 23 30 59h-381z" />
    <glyph glyph-name="section.cap" horiz-adv-x="712" 
d="M670 251q0 -75 -60 -137q-19 -21 -38 -33q8 -13 12 -25q8 -26 8 -55q0 -64 -38.5 -108t-90.5 -61.5t-111 -17.5q-116 0 -225 60l64 108q101 -45 164 -45q68 0 68 46q0 14 -7 22q-7 9 -25.5 15.5t-34.5 9t-57 8.5q-149 21 -214 90q-45 47 -45 111q0 71 54 130q19 22 44 39
l-10 20q-10 24 -10 61q0 64 38 108t90.5 61.5t112.5 17.5q120 0 234 -60l-64 -108q-107 45 -174 45q-68 0 -68 -45q0 -14 9 -23q16 -15 115 -29q152 -22 219 -98q40 -47 40 -107zM375 316q-8 1 -31 4t-36 5t-32.5 6.5t-34.5 9.5q-16 -13 -24 -26q-16 -27 -16 -55
q0 -26 14 -43q12 -13 36.5 -22t39 -11.5t44.5 -6.5q91 -11 135 -27q14 12 19 20q20 29 20 60q0 26 -13 42q-26 32 -121 44z" />
    <glyph glyph-name="numbersign.cap" horiz-adv-x="899" 
d="M593 710h99l-30 -180h194v-126h-214l-29 -177h184v-127h-205l-35 -212h-99l35 212h-161l-35 -212h-99l35 212h-191v127h212l29 177h-182v126h202l30 180h99l-30 -180h161zM382 404l-29 -177h161l29 177h-161z" />
    <glyph glyph-name="percent.cap" horiz-adv-x="1066" 
d="M649 653h140l-372 -653h-140zM41 477q0 79 62.5 135.5t151.5 56.5q88 0 152 -56.5t64 -135.5q0 -80 -64 -137t-152 -57q-90 0 -152 56.5t-62 137.5zM185 477q0 -31 20.5 -54t49.5 -23q30 0 51 22.5t21 54.5t-21 54t-51 22q-29 0 -49.5 -22.5t-20.5 -53.5zM595 178
q0 79 62 135.5t151 56.5q88 0 152.5 -57t64.5 -135q0 -80 -64 -137t-153 -57t-151 57t-62 137zM739 178q0 -32 20.5 -54.5t48.5 -22.5q30 0 51.5 22.5t21.5 54.5q0 31 -21.5 53.5t-51.5 22.5q-28 0 -48.5 -22.5t-20.5 -53.5z" />
    <glyph glyph-name="perthousand.cap" horiz-adv-x="1528" 
d="M650 653h140l-372 -653h-140zM42 477q0 79 62.5 135.5t151.5 56.5q88 0 152 -56.5t64 -135.5q0 -80 -64 -137t-152 -57q-90 0 -152 56.5t-62 137.5zM186 477q0 -31 20.5 -54t49.5 -23q30 0 51 22.5t21 54.5t-21 54t-51 22q-29 0 -49.5 -22.5t-20.5 -53.5zM596 178
q0 79 62 135.5t151 56.5q88 0 152.5 -57t64.5 -135q0 -80 -64 -137t-153 -57t-151 57t-62 137zM740 178q0 -32 20.5 -54.5t48.5 -22.5q30 0 51.5 22.5t21.5 54.5q0 31 -21.5 53.5t-51.5 22.5q-28 0 -48.5 -22.5t-20.5 -53.5zM1058 178q0 79 62 135.5t151 56.5
q88 0 152.5 -57t64.5 -135q0 -80 -64 -137t-153 -57t-151 57t-62 137zM1202 178q0 -32 20.5 -54.5t48.5 -22.5q30 0 51.5 22.5t21.5 54.5q0 31 -21.5 53.5t-51.5 22.5q-28 0 -48.5 -22.5t-20.5 -53.5z" />
    <glyph glyph-name="ij.alt" horiz-adv-x="600" 
d="M232 0h-164v493h164v-493zM56 633q0 35 27 60t66 25t67 -25t28 -60t-27.5 -59t-67.5 -24q-39 0 -66 24t-27 59zM355 629q0 33 27 57t67 24t67.5 -24t27.5 -57t-27.5 -56t-67.5 -23t-67 23t-27 56zM368 -76v569h164v-569q0 -79 -51.5 -115t-124.5 -36q-71 0 -101 10
l10 119q40 -5 68 -5q16 0 25.5 7.5t9.5 19.5z" />
    <glyph glyph-name="j.alt" horiz-adv-x="300" 
d="M55 629q0 33 27 57t67 24t67.5 -24t27.5 -57t-27.5 -56t-67.5 -23t-67 23t-27 56zM68 -76v569h164v-569q0 -79 -51.5 -115t-124.5 -36q-71 0 -101 10l10 119q40 -5 68 -5q16 0 25.5 7.5t9.5 19.5z" />
    <glyph glyph-name="jcircumflex.alt" horiz-adv-x="300" 
d="M68 -76v569h164v-569q0 -79 -51.5 -115t-124.5 -36q-71 0 -101 10l10 119q40 -5 68 -5q16 0 25.5 7.5t9.5 19.5zM76 700h148l109 -146h-128l-55 75l-55 -75h-128z" />
    <glyph glyph-name="dotlessj.alt" horiz-adv-x="300" 
d="M68 -76v569h164v-569q0 -79 -51.5 -115t-124.5 -36q-71 0 -101 10l10 119q40 -5 68 -5q16 0 25.5 7.5t9.5 19.5z" />
    <glyph glyph-name="r.alt" horiz-adv-x="525" 
d="M305 365q-17 0 -31.5 -11t-39.5 -41v-313h-164v350q0 54 -16 143h149q1 -4 5 -29t5 -35q26 40 58 60t78 20q73 0 117.5 -60.5t33.5 -160.5h-148q4 37 -9 57t-38 20z" />
    <glyph glyph-name="racute.alt" horiz-adv-x="525" 
d="M305 365q-17 0 -31.5 -11t-39.5 -41v-313h-164v350q0 54 -16 143h149q1 -4 5 -29t5 -35q26 40 58 60t78 20q73 0 117.5 -60.5t33.5 -160.5h-148q4 37 -9 57t-38 20zM275 700h150l-110 -146h-140z" />
    <glyph glyph-name="rcaron.alt" horiz-adv-x="525" 
d="M305 365q-17 0 -31.5 -11t-39.5 -41v-313h-164v350q0 54 -16 143h149q1 -4 5 -29t5 -35q26 40 58 60t78 20q73 0 117.5 -60.5t33.5 -160.5h-148q4 37 -9 57t-38 20zM83 700h128l55 -76l55 76h128l-109 -146h-148z" />
    <glyph glyph-name="uni0157.alt" horiz-adv-x="525" 
d="M305 365q-17 0 -31.5 -11t-39.5 -41v-313h-164v350q0 54 -16 143h149q1 -4 5 -29t5 -35q26 40 58 60t78 20q73 0 117.5 -60.5t33.5 -160.5h-148q4 37 -9 57t-38 20zM122 -63l126 23q1 -1 8.5 -9.5t11.5 -14.5t10 -17t9 -23.5t3 -27.5q0 -57 -44.5 -92.5t-124.5 -35.5
q-27 0 -52 8v89q12 -3 36 -3q43 0 43 44q0 24 -26 59z" />
    <glyph glyph-name="y.alt" horiz-adv-x="550" 
d="M5 493h181l98 -246h6l107 246h169l-260 -551q-80 -169 -229 -169q-42 0 -74 10l-12 120q19 -2 61 -2q21 0 35.5 4t36.5 25.5t42 61.5l32 65z" />
    <glyph glyph-name="yacute.alt" horiz-adv-x="550" 
d="M293 700h150l-110 -146h-140zM5 493h181l98 -246h6l107 246h169l-260 -551q-80 -169 -229 -169q-42 0 -74 10l-12 120q19 -2 61 -2q21 0 35.5 4t36.5 25.5t42 61.5l32 65z" />
    <glyph glyph-name="ydieresis.alt" horiz-adv-x="550" 
d="M317 633q0 32 24 54.5t60 22.5t61 -22.5t25 -54.5q0 -31 -25 -53t-61 -22t-60 21.5t-24 53.5zM80 633q0 32 24 54.5t60 22.5t61 -22.5t25 -54.5q0 -31 -25 -53t-61 -22t-60 21.5t-24 53.5zM5 493h181l98 -246h6l107 246h169l-260 -551q-80 -169 -229 -169q-42 0 -74 10
l-12 120q19 -2 61 -2q21 0 35.5 4t36.5 25.5t42 61.5l32 65z" />
    <glyph glyph-name="ycircumflex.alt" horiz-adv-x="550" 
d="M210 700h148l109 -146h-128l-55 75l-55 -75h-128zM5 493h181l98 -246h6l107 246h169l-260 -551q-80 -169 -229 -169q-42 0 -74 10l-12 120q19 -2 61 -2q21 0 35.5 4t36.5 25.5t42 61.5l32 65z" />
    <glyph glyph-name="ygrave.alt" horiz-adv-x="550" 
d="M125 700h150l100 -146h-140zM5 493h181l98 -246h6l107 246h169l-260 -551q-80 -169 -229 -169q-42 0 -74 10l-12 120q19 -2 61 -2q21 0 35.5 4t36.5 25.5t42 61.5l32 65z" />
    <glyph glyph-name="caron.alt" 
d="M188 700h133q0 -144 -55 -246h-78v246z" />
    <glyph glyph-name="fi" horiz-adv-x="687" 
d="M29 493h79v67q0 79 51.5 115t124.5 36q71 0 101 -10l-10 -119q-40 5 -68 5q-16 0 -25.5 -7.5t-9.5 -19.5v-67h113v-116h-113v-377h-164v377h-79v116zM620 0h-164v493h164v-493zM444 633q0 35 27 60t66 25t67 -25t28 -60t-27.5 -59t-67.5 -24q-39 0 -66 24t-27 59z" />
    <glyph glyph-name="fl" horiz-adv-x="688" 
d="M29 493h79v67q0 79 51.5 115t124.5 36q71 0 101 -10l-10 -119q-40 5 -68 5q-16 0 -25.5 -7.5t-9.5 -19.5v-67h113v-116h-113v-377h-164v377h-79v116zM620 0h-164v700h164v-700z" />
    <glyph glyph-name="f_j.alt" horiz-adv-x="687" 
d="M29 493h79v67q0 79 51.5 115t124.5 36q71 0 101 -10l-10 -119q-40 5 -68 5q-16 0 -25.5 -7.5t-9.5 -19.5v-67h113v-116h-113v-377h-164v377h-79v116zM456 -76v569h164v-569q0 -79 -51.5 -115t-124.5 -36q-71 0 -101 10l10 119q40 -5 68 -5q16 0 25.5 7.5t9.5 19.5z
M443 633q0 35 27 60t67 25q39 0 67 -25t28 -60t-27.5 -59t-67.5 -24t-67 24t-27 59z" />
    <glyph glyph-name="f_f_j.alt" horiz-adv-x="1022" 
d="M607 560v-67h113v-116h-113v-377h-164v377h-171v-377h-164v377h-79v116h79v67q0 79 51.5 115t124.5 36q71 0 101 -10l-10 -119q-40 5 -68 5q-16 0 -25.5 -7.5t-9.5 -19.5v-67h171v67q0 79 51.5 115t124.5 36q71 0 101 -10l-10 -119q-38 5 -68 5q-16 0 -25.5 -7.5
t-9.5 -19.5zM791 -76v569h164v-569q0 -79 -51.5 -115t-124.5 -36q-71 0 -101 10l10 119q40 -5 68 -5q16 0 25.5 7.5t9.5 19.5zM779 633q0 35 27 60t67 25q39 0 67 -25t28 -60t-27.5 -59t-67.5 -24t-67 24t-27 59z" />
    <glyph glyph-name="a.superior" horiz-adv-x="469" 
d="M92 483l-35 83q84 31 176 31q76 0 128.5 -27.5t52.5 -86.5v-186q0 -37 11 -77h-124q-5 14 -9 38q-17 -16 -28.5 -24.5t-33.5 -16t-50 -7.5q-70 0 -112 35t-42 88q0 54 43.5 89.5t116.5 35.5q61 0 101 -32v33q0 47 -67 47q-49 0 -128 -23zM208 291q47 0 79 30v33
q-25 25 -72 25q-32 0 -47.5 -13.5t-15.5 -33.5q0 -19 15 -30t41 -11z" />
    <glyph glyph-name="b.superior" horiz-adv-x="503" 
d="M171 220h-122q10 51 10 108v372h128v-144q51 41 99 41q79 0 132.5 -53.5t53.5 -139.5q0 -85 -54 -139.5t-132 -54.5q-59 0 -111 47q0 -1 -2 -16t-2 -21zM264 497q-38 0 -77 -31v-126q38 -30 77 -30q30 0 51 26.5t21 67.5q0 43 -20 68t-52 25z" />
    <glyph glyph-name="d.superior" horiz-adv-x="503" 
d="M454 220h-122l-4 37q-52 -47 -111 -47q-78 0 -132 54.5t-54 139.5q0 86 53.5 139.5t132.5 53.5q48 0 99 -41v144h128v-372q0 -57 10 -108zM239 497q-32 0 -52 -25t-20 -68q0 -41 21 -67.5t51 -26.5q39 0 77 30v126q-39 31 -77 31z" />
    <glyph glyph-name="e.superior" horiz-adv-x="457" 
d="M368 326l44 -76q-77 -41 -173 -41q-98 0 -153.5 55t-55.5 136q0 84 59 140.5t149 56.5q79 0 135.5 -47t56.5 -140q0 -12 -2 -39h-275q10 -33 37 -51.5t67 -18.5q56 0 111 25zM241 510q-70 0 -87 -68h154q0 31 -21 49.5t-46 18.5z" />
    <glyph glyph-name="h.superior" horiz-adv-x="486" 
d="M185 220h-127v480h128v-147q55 44 109 44q62 0 100.5 -38t38.5 -96v-243h-128v236q0 17 -14 29t-35 12q-19 0 -40 -11t-32 -25v-241z" />
    <glyph glyph-name="i.superior" horiz-adv-x="244" 
d="M186 220h-128v365h128v-365zM49 680q0 25 21 42.5t52 17.5q30 0 52 -18t22 -42q0 -23 -21.5 -40.5t-52.5 -17.5t-52 17t-21 41z" />
    <glyph glyph-name="l.superior" horiz-adv-x="244" 
d="M186 220h-128v480h128v-480z" />
    <glyph glyph-name="m.superior" horiz-adv-x="711" 
d="M423 461v-241h-129v236q0 17 -14 29t-35 12q-30 0 -57 -36v-241h-128v259q0 45 -12 106h118l6 -42q60 54 122 54q66 0 99 -56q23 24 59.5 40t74.5 16q57 0 94 -38t37 -96v-243h-128v236q0 18 -14.5 29.5t-35.5 11.5q-32 0 -57 -36z" />
    <glyph glyph-name="o.superior" horiz-adv-x="490" 
d="M30 404q0 83 60 138t155 55q94 0 154.5 -55t60.5 -138q0 -82 -60.5 -138.5t-154.5 -56.5t-154.5 56.5t-60.5 138.5zM160 404q0 -40 23 -68t62 -28q38 0 61.5 28.5t23.5 67.5q0 41 -23 67t-62 26q-40 0 -62.5 -26t-22.5 -67z" />
    <glyph glyph-name="r.superior" horiz-adv-x="335" 
d="M238 483q-13 0 -23 -6.5t-27 -24.5v-232h-128v259q0 46 -12 106h116l8 -48q37 60 91 60q36 0 64 -14l-34 -111q-48 11 -55 11z" />
    <glyph glyph-name="s.superior" horiz-adv-x="439" 
d="M393 563l-42 -83q-73 29 -135 29q-50 0 -50 -27q0 -11 8.5 -17t19 -7.5t30.5 -2.5q35 -2 60 -5.5t58 -14.5t51 -35.5t18 -61.5q0 -63 -51.5 -97t-133.5 -34q-102 0 -200 56l42 82q32 -19 78.5 -34t83.5 -15q53 0 53 32q0 12 -11 19.5t-21.5 9.5t-28.5 3q-30 2 -44 3
t-40.5 5t-39.5 11t-28.5 18.5t-22 29.5t-6.5 42q0 67 49.5 98t118.5 31q46 0 100 -11.5t84 -23.5z" />
    <glyph glyph-name="t.superior" horiz-adv-x="338" 
d="M25 499v86h62v98h128v-98h88v-86h-88v-166q0 -27 38 -27q7 0 43 4l7 -89q-18 -14 -87 -14q-53 0 -91 27t-38 84v181h-62z" />
    <glyph glyph-name="a.sc" horiz-adv-x="713" 
d="M5 0l282 568h139l282 -568h-185l-38 84h-264l-37 -84h-179zM350 374l-77 -174h160l-77 174h-6z" />
    <glyph glyph-name="b.sc" horiz-adv-x="753" 
d="M467 0h-373v568h360q127 0 184 -60q34 -36 34 -80q0 -65 -75 -112q105 -49 105 -138q0 -68 -54 -121q-31 -31 -71.5 -44t-109.5 -13zM454 235h-190v-109h190q41 0 59 18q15 15 15 36t-15 36q-19 19 -59 19zM432 442h-168v-91h168q36 0 53 15q13 13 13 32q0 15 -10 26
q-17 18 -56 18z" />
    <glyph glyph-name="c.sc" horiz-adv-x="723" 
d="M601 202l101 -104q-140 -115 -319 -115q-150 0 -244.5 87t-94.5 214q0 125 94.5 213.5t240.5 88.5q81 0 162 -26.5t143 -70.5l-101 -106q-90 66 -182 66q-81 0 -131.5 -48t-50.5 -117q0 -70 51.5 -118t135.5 -48q95 0 195 84z" />
    <glyph glyph-name="d.sc" horiz-adv-x="758" 
d="M371 0h-277v568h277q93 0 153 -22t108 -66q79 -79 79 -196q0 -116 -78 -194q-49 -45 -107.5 -67.5t-154.5 -22.5zM263 136h105q48 0 75 9.5t51 31.5q42 42 42 107q0 63 -38 104q-26 23 -52 33.5t-78 10.5h-105v-296z" />
    <glyph glyph-name="e.sc" horiz-adv-x="678" 
d="M475 353v-130h-212v-87h373v-136h-542v568h522v-136h-353v-79h212z" />
    <glyph glyph-name="f.sc" horiz-adv-x="638" 
d="M263 0h-169v568h518v-136h-349v-79h212v-130h-212v-223z" />
    <glyph glyph-name="g.sc" horiz-adv-x="747" 
d="M677 486l-106 -101q-40 30 -92.5 47t-95.5 17q-72 0 -118.5 -48t-46.5 -117q0 -68 46.5 -116t127.5 -48q74 0 125 27v70h-174v125h335v-264q-62 -43 -141 -68t-150 -25q-147 0 -245 86.5t-98 212.5q0 125 98.5 213.5t239.5 88.5q152 0 295 -100z" />
    <glyph glyph-name="h.sc" horiz-adv-x="761" 
d="M264 0h-170v568h170v-203h235v203h168v-568h-168v234h-235v-234z" />
    <glyph glyph-name="i.sc" horiz-adv-x="357" 
d="M263 0h-169v568h169v-568z" />
    <glyph glyph-name="j.sc" horiz-adv-x="627" 
d="M374 568h169v-358q0 -106 -74 -165.5t-194 -59.5q-181 0 -266 170l144 72q48 -107 121 -107q45 0 72.5 23.5t27.5 66.5v358z" />
    <glyph glyph-name="k.sc" horiz-adv-x="746" 
d="M264 568v-199q36 32 74.5 65t83.5 71.5t73 62.5h214l-258 -227l294 -341h-209l-204 236l-68 -57v-179h-170v568h170z" />
    <glyph glyph-name="l.sc" horiz-adv-x="626" 
d="M94 568h169v-432h338v-136h-507v568z" />
    <glyph glyph-name="m.sc" horiz-adv-x="858" 
d="M764 0h-170v266h-4l-132 -200h-62l-132 200h-5v-266h-165v568h153l184 -285h1l183 285h149v-568z" />
    <glyph glyph-name="n.sc" horiz-adv-x="760" 
d="M497 568h169v-568h-142l-259 291h-1v-291h-170v568h141l261 -292h1v292z" />
    <glyph glyph-name="o.sc" horiz-adv-x="780" 
d="M44 285q0 124 100.5 212.5t244.5 88.5t246 -88.5t102 -212.5q0 -125 -101.5 -213.5t-246.5 -88.5q-144 0 -244.5 88t-100.5 214zM218 285q0 -69 49.5 -118t121.5 -49t122.5 49t50.5 118q0 68 -50.5 116t-122.5 48t-121.5 -48t-49.5 -116z" />
    <glyph glyph-name="p.sc" horiz-adv-x="703" 
d="M263 0h-169v568h338q130 0 195 -69q48 -51 48 -117q0 -72 -52 -122q-65 -64 -191 -64h-169v-196zM442 437h-179v-110h179q31 0 48 17t17 38q0 20 -15 37q-17 18 -50 18z" />
    <glyph glyph-name="q.sc" horiz-adv-x="780" 
d="M44 285q0 124 100.5 212.5t244.5 88.5t246 -88.5t102 -212.5q0 -68 -33 -128.5t-90 -102.5l73 -108l-150 -45l-61 92q-47 -10 -87 -10q-144 0 -244.5 88t-100.5 214zM333 206l148 46l45 -68q36 44 36 101q0 68 -50.5 116t-122.5 48t-121.5 -48t-49.5 -116
q0 -69 49.5 -118t121.5 -49h3z" />
    <glyph glyph-name="r.sc" horiz-adv-x="741" 
d="M263 0h-169v568h338q127 0 192 -65q51 -51 51 -121q0 -102 -109 -157l139 -225h-191l-114 196h-137v-196zM442 437h-179v-110h179q32 0 48 16q17 17 17 39q0 20 -15 37q-17 18 -50 18z" />
    <glyph glyph-name="s.sc" horiz-adv-x="692" 
d="M616 519l-91 -114q-103 50 -204 50q-37 0 -62.5 -13t-25.5 -36q0 -35 124 -44q2 -1 3.5 -1h3.5q38 -3 61 -5.5t62 -9.5t64 -18.5t50.5 -30t38 -47t12.5 -65.5q0 -103 -78 -152.5t-202 -49.5q-183 0 -337 102l90 111q131 -84 249 -84q47 0 78.5 16.5t31.5 44.5
q0 38 -126 45q-48 3 -82 7t-77.5 16t-70 30t-45.5 50.5t-19 76.5q0 51 23.5 89t62.5 58.5t83 30.5t91 10q85 0 163 -20.5t129 -46.5z" />
    <glyph glyph-name="t.sc" horiz-adv-x="626" 
d="M32 432v136h562v-136h-196v-432h-169v432h-197z" />
    <glyph glyph-name="u.sc" horiz-adv-x="740" 
d="M487 568h169v-360q0 -106 -79 -165.5t-208 -59.5q-124 0 -205 60t-81 165v360h170v-360q0 -42 33.5 -66t82.5 -24q53 0 85.5 23.5t32.5 66.5v360z" />
    <glyph glyph-name="v.sc" horiz-adv-x="713" 
d="M525 568h183l-282 -568h-139l-282 568h188l163 -367h5z" />
    <glyph glyph-name="w.sc" horiz-adv-x="941" 
d="M30 568h181l94 -310h5l101 310h125l100 -310h6l93 310h177l-194 -568h-153l-92 279h-5l-91 -279h-154z" />
    <glyph glyph-name="x.sc" horiz-adv-x="741" 
d="M511 568h203l-240 -272l250 -296h-209l-147 177l-155 -177h-203l258 291l-233 277h208l131 -158z" />
    <glyph glyph-name="y.sc" horiz-adv-x="635" 
d="M437 568h197l-231 -311v-257h-170v257l-233 311h206l116 -166z" />
    <glyph glyph-name="z.sc" horiz-adv-x="658" 
d="M600 136v-136h-552v91l309 341h-291v136h534v-91l-308 -341h308z" />
    <glyph glyph-name="ampersand.sc" horiz-adv-x="771" 
d="M569 553l-61 -121q-68 24 -124 24q-24 0 -36 -8.5t-12 -20.5q0 -19 54 -76l121 -126q54 54 107 133l119 -55q-66 -101 -137 -170l128 -133h-202l-41 42q-93 -56 -201 -56q-58 0 -111.5 18t-93.5 63t-40 110q0 122 149 177q-22 35 -22 72q0 73 64 117.5t156 44.5
q78 0 183 -35zM394 136l-138 141q-49 -35 -49 -85q0 -42 31 -61t68 -19q41 0 88 24z" />
    <glyph glyph-name="aacute.sc" horiz-adv-x="713" 
d="M5 0l282 568h139l282 -568h-185l-38 84h-264l-37 -84h-179zM350 374l-77 -174h160l-77 174h-6zM365 783h150l-110 -146h-140z" />
    <glyph glyph-name="agrave.sc" horiz-adv-x="713" 
d="M5 0l282 568h139l282 -568h-185l-38 84h-264l-37 -84h-179zM350 374l-77 -174h160l-77 174h-6zM197 783h150l100 -146h-140z" />
    <glyph glyph-name="acircumflex.sc" horiz-adv-x="713" 
d="M5 0l282 568h139l282 -568h-185l-38 84h-264l-37 -84h-179zM350 374l-77 -174h160l-77 174h-6zM282 783h148l109 -146h-128l-55 75l-55 -75h-128z" />
    <glyph glyph-name="adieresis.sc" horiz-adv-x="713" 
d="M5 0l282 568h139l282 -568h-185l-38 84h-264l-37 -84h-179zM350 374l-77 -174h160l-77 174h-6zM389 716q0 32 24 54.5t60 22.5t61 -22.5t25 -54.5q0 -31 -25 -53t-61 -22t-60 21.5t-24 53.5zM152 716q0 32 24 54.5t60 22.5t61 -22.5t25 -54.5q0 -31 -25 -53t-61 -22
t-60 21.5t-24 53.5z" />
    <glyph glyph-name="atilde.sc" horiz-adv-x="713" 
d="M5 0l282 568h139l282 -568h-185l-38 84h-264l-37 -84h-179zM350 374l-77 -174h160l-77 174h-6zM244 628l-93 50q33 59 66 84t74 25q38 0 74 -24q38 -24 49 -24q12 0 23.5 8.5t17.5 16t17 22.5l85 -46q-59 -111 -139 -111q-32 0 -68 22q-4 2 -11.5 7.5t-11 7.5t-9.5 5
t-11 4.5t-10 1.5q-15 0 -29.5 -16.5t-23.5 -32.5z" />
    <glyph glyph-name="aring.sc" horiz-adv-x="713" 
d="M5 0l282 568h139l282 -568h-185l-38 84h-264l-37 -84h-179zM350 374l-77 -174h160l-77 174h-6zM208 720q0 49 38 84t107 35q68 0 106.5 -35t38.5 -84q0 -48 -38.5 -81t-106.5 -33q-69 0 -107 33t-38 81zM301 720q0 -20 15 -32t37 -12t37 12t15 32q0 22 -15 37t-37 15
t-37 -15t-15 -37z" />
    <glyph glyph-name="abreve.sc" horiz-adv-x="713" 
d="M5 0l282 568h139l282 -568h-185l-38 84h-264l-37 -84h-179zM350 374l-77 -174h160l-77 174h-6zM184 783h112q0 -67 60 -67t60 67h112q0 -28 -7.5 -53.5t-25.5 -50t-53.5 -39t-85.5 -14.5t-85.5 14.5t-53.5 39t-25.5 50t-7.5 53.5z" />
    <glyph glyph-name="amacron.sc" horiz-adv-x="713" 
d="M5 0l282 568h139l282 -568h-185l-38 84h-264l-37 -84h-179zM350 374l-77 -174h160l-77 174h-6zM218 757h276v-106h-276v106z" />
    <glyph glyph-name="aogonek.sc" horiz-adv-x="713" 
d="M5 0l282 568h139l282 -568h-40q-25 -11 -41 -18.5t-36 -27t-20 -40.5q0 -37 53 -37q14 0 56 8l13 -96q-49 -16 -98 -16q-67 0 -106.5 30t-39.5 79q0 67 74 118l-38 84h-264l-37 -84h-179zM350 374l-77 -174h160l-77 174h-6z" />
    <glyph glyph-name="aringacute.sc" horiz-adv-x="713" 
d="M5 0l282 568h139l282 -568h-185l-38 84h-264l-37 -84h-179zM350 374l-77 -174h160l-77 174h-6zM208 720q0 49 38 84t107 35q68 0 106.5 -35t38.5 -84q0 -48 -38.5 -81t-106.5 -33q-69 0 -107 33t-38 81zM301 720q0 -20 15 -32t37 -12t37 12t15 32q0 22 -15 37t-37 15
t-37 -15t-15 -37zM365 1016h150l-110 -146h-140z" />
    <glyph glyph-name="ccedilla.sc" horiz-adv-x="723" 
d="M601 202l101 -104q-117 -95 -263 -111q31 -15 50 -34q26 -26 26 -66q0 -51 -50 -82.5t-130 -31.5q-49 0 -134 20l23 85q77 -11 96 -11q53 0 53 29q0 14 -15.5 24t-30 12.5t-24.5 2.5h-3v25l15 28q-122 19 -196.5 101.5t-74.5 194.5q0 125 94.5 213.5t240.5 88.5
q81 0 162 -26.5t143 -70.5l-101 -106q-90 66 -182 66q-81 0 -131.5 -48t-50.5 -117q0 -70 51.5 -118t135.5 -48q95 0 195 84z" />
    <glyph glyph-name="cacute.sc" horiz-adv-x="723" 
d="M601 202l101 -104q-140 -115 -319 -115q-150 0 -244.5 87t-94.5 214q0 125 94.5 213.5t240.5 88.5q81 0 162 -26.5t143 -70.5l-101 -106q-90 66 -182 66q-81 0 -131.5 -48t-50.5 -117q0 -70 51.5 -118t135.5 -48q95 0 195 84zM390 783h150l-110 -146h-140z" />
    <glyph glyph-name="ccaron.sc" horiz-adv-x="723" 
d="M601 202l101 -104q-140 -115 -319 -115q-150 0 -244.5 87t-94.5 214q0 125 94.5 213.5t240.5 88.5q81 0 162 -26.5t143 -70.5l-101 -106q-90 66 -182 66q-81 0 -131.5 -48t-50.5 -117q0 -70 51.5 -118t135.5 -48q95 0 195 84zM198 783h128l55 -76l55 76h128l-109 -146
h-148z" />
    <glyph glyph-name="ccircumflex.sc" horiz-adv-x="723" 
d="M601 202l101 -104q-140 -115 -319 -115q-150 0 -244.5 87t-94.5 214q0 125 94.5 213.5t240.5 88.5q81 0 162 -26.5t143 -70.5l-101 -106q-90 66 -182 66q-81 0 -131.5 -48t-50.5 -117q0 -70 51.5 -118t135.5 -48q95 0 195 84zM307 783h148l109 -146h-128l-55 75l-55 -75
h-128z" />
    <glyph glyph-name="cdotaccent.sc" horiz-adv-x="723" 
d="M601 202l101 -104q-140 -115 -319 -115q-150 0 -244.5 87t-94.5 214q0 125 94.5 213.5t240.5 88.5q81 0 162 -26.5t143 -70.5l-101 -106q-90 66 -182 66q-81 0 -131.5 -48t-50.5 -117q0 -70 51.5 -118t135.5 -48q95 0 195 84zM296 716q0 32 24 54.5t60 22.5t61 -22.5
t25 -54.5q0 -31 -25 -53t-61 -22t-60 21.5t-24 53.5z" />
    <glyph glyph-name="dcaron.sc" horiz-adv-x="758" 
d="M371 0h-277v568h277q93 0 153 -22t108 -66q79 -79 79 -196q0 -116 -78 -194q-49 -45 -107.5 -67.5t-154.5 -22.5zM263 136h105q48 0 75 9.5t51 31.5q42 42 42 107q0 63 -38 104q-26 23 -52 33.5t-78 10.5h-105v-296zM196 783h128l55 -76l55 76h128l-109 -146h-148z" />
    <glyph glyph-name="dcroat.sc" horiz-adv-x="787" 
d="M39 233v107h85v228h277q93 0 153 -22t108 -66q79 -79 79 -196q0 -116 -78 -194q-49 -45 -107.5 -67.5t-154.5 -22.5h-277v233h-85zM293 136h105q48 0 75 9.5t51 31.5q42 42 42 107q0 63 -38 104q-26 23 -52 33.5t-78 10.5h-105v-92h142v-107h-142v-97z" />
    <glyph glyph-name="eacute.sc" horiz-adv-x="678" 
d="M475 353v-130h-212v-87h373v-136h-542v568h522v-136h-353v-79h212zM348 783h150l-110 -146h-140z" />
    <glyph glyph-name="egrave.sc" horiz-adv-x="678" 
d="M475 353v-130h-212v-87h373v-136h-542v568h522v-136h-353v-79h212zM180 783h150l100 -146h-140z" />
    <glyph glyph-name="ecircumflex.sc" horiz-adv-x="678" 
d="M475 353v-130h-212v-87h373v-136h-542v568h522v-136h-353v-79h212zM265 783h148l109 -146h-128l-55 75l-55 -75h-128z" />
    <glyph glyph-name="edieresis.sc" horiz-adv-x="678" 
d="M475 353v-130h-212v-87h373v-136h-542v568h522v-136h-353v-79h212zM372 716q0 32 24 54.5t60 22.5t61 -22.5t25 -54.5q0 -31 -25 -53t-61 -22t-60 21.5t-24 53.5zM135 716q0 32 24 54.5t60 22.5t61 -22.5t25 -54.5q0 -31 -25 -53t-61 -22t-60 21.5t-24 53.5z" />
    <glyph glyph-name="ebreve.sc" horiz-adv-x="678" 
d="M475 353v-130h-212v-87h373v-136h-542v568h522v-136h-353v-79h212zM167 783h112q0 -67 60 -67t60 67h112q0 -28 -7.5 -53.5t-25.5 -50t-53.5 -39t-85.5 -14.5t-85.5 14.5t-53.5 39t-25.5 50t-7.5 53.5z" />
    <glyph glyph-name="ecaron.sc" horiz-adv-x="678" 
d="M475 353v-130h-212v-87h373v-136h-542v568h522v-136h-353v-79h212zM156 783h128l55 -76l55 76h128l-109 -146h-148z" />
    <glyph glyph-name="edotaccent.sc" horiz-adv-x="678" 
d="M475 353v-130h-212v-87h373v-136h-542v568h522v-136h-353v-79h212zM254 716q0 32 24 54.5t60 22.5t61 -22.5t25 -54.5q0 -31 -25 -53t-61 -22t-60 21.5t-24 53.5z" />
    <glyph glyph-name="emacron.sc" horiz-adv-x="678" 
d="M475 353v-130h-212v-87h373v-136h-542v568h522v-136h-353v-79h212zM201 757h276v-106h-276v106z" />
    <glyph glyph-name="eogonek.sc" horiz-adv-x="678" 
d="M475 353v-130h-212v-87h373v-136h-45q-25 -11 -41 -18.5t-36 -27t-20 -40.5q0 -37 53 -37q14 0 56 8l13 -96q-49 -16 -98 -16q-67 0 -106.5 30t-39.5 79q0 66 73 118h-351v568h522v-136h-353v-79h212z" />
    <glyph glyph-name="gbreve.sc" horiz-adv-x="747" 
d="M677 486l-106 -101q-40 30 -92.5 47t-95.5 17q-72 0 -118.5 -48t-46.5 -117q0 -68 46.5 -116t127.5 -48q74 0 125 27v70h-174v125h335v-264q-62 -43 -141 -68t-150 -25q-147 0 -245 86.5t-98 212.5q0 125 98.5 213.5t239.5 88.5q152 0 295 -100zM209 783h112
q0 -67 60 -67t60 67h112q0 -28 -7.5 -53.5t-25.5 -50t-53.5 -39t-85.5 -14.5t-85.5 14.5t-53.5 39t-25.5 50t-7.5 53.5z" />
    <glyph glyph-name="gcircumflex.sc" horiz-adv-x="747" 
d="M677 486l-106 -101q-40 30 -92.5 47t-95.5 17q-72 0 -118.5 -48t-46.5 -117q0 -68 46.5 -116t127.5 -48q74 0 125 27v70h-174v125h335v-264q-62 -43 -141 -68t-150 -25q-147 0 -245 86.5t-98 212.5q0 125 98.5 213.5t239.5 88.5q152 0 295 -100zM307 783h148l109 -146
h-128l-55 75l-55 -75h-128z" />
    <glyph glyph-name="uni0123.sc" horiz-adv-x="747" 
d="M677 486l-106 -101q-40 30 -92.5 47t-95.5 17q-72 0 -118.5 -48t-46.5 -117q0 -68 46.5 -116t127.5 -48q74 0 125 27v70h-174v125h335v-264q-62 -43 -141 -68t-150 -25q-147 0 -245 86.5t-98 212.5q0 125 98.5 213.5t239.5 88.5q152 0 295 -100zM337 -70l124 30
q32 -48 32 -91q0 -58 -48 -93.5t-128 -35.5q-47 0 -98 16l13 86q42 -8 56 -8q63 0 63 47q0 16 -14 49z" />
    </font>
</defs>
</svg>
