<svg id="Calque_1" data-name="Calque 1" xmlns="http://www.w3.org/2000/svg" viewBox="0 0 500 500"><defs><style>.cls-1{fill:#fff;stroke:#662483;stroke-miterlimit:10;stroke-width:20px;}.cls-2{fill:#662483;}</style></defs><title>cv_icon</title><circle class="cls-1" cx="250.5" cy="249.5" r="230"/><path class="cls-2" d="M154.7,207.53a4.88,4.88,0,1,0,1.43,3.45A4.92,4.92,0,0,0,154.7,207.53Z"/><path class="cls-2" d="M338.75,124.55H240a4.89,4.89,0,0,0,0,9.77h98.8a4.89,4.89,0,0,1,4.88,4.88V359.9a4.89,4.89,0,0,1-4.88,4.89H161a4.89,4.89,0,0,1-4.88-4.89V229.21a4.88,4.88,0,1,0-9.76,0V359.9A14.66,14.66,0,0,0,161,374.55H338.75A14.66,14.66,0,0,0,353.4,359.9V139.2A14.66,14.66,0,0,0,338.75,124.55Z"/><path class="cls-2" d="M249.88,144.08a65.67,65.67,0,0,0-9.92.76,4.88,4.88,0,1,0,1.48,9.65,55.15,55.15,0,0,1,50.64,90,48.9,48.9,0,0,0-25.49-21.33,23.86,23.86,0,0,0,7.22-17.1v-4.76a23.93,23.93,0,1,0-47.85,0v4.76a23.85,23.85,0,0,0,7.21,17.1,48.89,48.89,0,0,0-25.54,21.42,54.91,54.91,0,0,1-12.16-26.4,4.88,4.88,0,0,0-9.63,1.62,64.94,64.94,0,1,0,64-75.76Zm-14.16,57.26a14.16,14.16,0,1,1,28.32,0v4.76a14.16,14.16,0,0,1-28.32,0Zm14.16,62.86a55.1,55.1,0,0,1-35-12.44,39.06,39.06,0,0,1,70-.08A55,55,0,0,1,249.88,264.2Z"/><path class="cls-2" d="M295,318.89H225.64a4.89,4.89,0,0,0,0,9.77H295a4.89,4.89,0,0,0,0-9.77Z"/><path class="cls-2" d="M208.24,293a4.86,4.86,0,0,0-6.91,0,4.89,4.89,0,1,0,6.91,0Z"/><path class="cls-2" d="M208.24,320.32a4.88,4.88,0,1,0,1.43,3.45A4.92,4.92,0,0,0,208.24,320.32Z"/><path class="cls-2" d="M295,291.55H225.64a4.88,4.88,0,1,0,0,9.76H295a4.88,4.88,0,0,0,0-9.76Z"/><path class="cls-2" d="M203.8,152.69a4.9,4.9,0,0,0-6.91,0L181,168.59l-5.43-5.43a4.88,4.88,0,0,0-6.91,6.9l8.89,8.89a4.89,4.89,0,0,0,6.91,0L203.8,159.6A4.88,4.88,0,0,0,203.8,152.69Z"/><path class="cls-2" d="M186.4,124.55a40,40,0,1,0,40,40A40.08,40.08,0,0,0,186.4,124.55Zm0,70.32a30.28,30.28,0,1,1,30.28-30.28A30.31,30.31,0,0,1,186.4,194.87Z"/></svg>