<svg id="Calque_1" data-name="Calque 1" xmlns="http://www.w3.org/2000/svg" viewBox="0 0 500 500"><defs><style>.cls-1,.cls-4{fill:#fff;}.cls-1{stroke:#ed1c24;stroke-width:20px;}.cls-1,.cls-2{stroke-miterlimit:10;}.cls-2{fill:none;stroke:#95c11f;stroke-width:9px;}.cls-3{fill:#ed1c24;}.cls-5{fill:#95c11f;}</style></defs><title>guided_tours_icon</title><circle class="cls-1" cx="251" cy="251" r="230"/><path class="cls-2" d="M378.5,270.5l-31,22-21,41-156-71-49,37"/><path class="cls-3" d="M281,237c-28,40-29,64-29,64V148c36,1,45,32,46,36C306,203,284,233,281,237Z"/><path class="cls-3" d="M223,237.18c28,40,29,64,29,64v-153c-36,1-45,32-46,36C198,203.18,220,233.18,223,237.18Z"/><circle class="cls-4" cx="252" cy="204" r="15"/><rect class="cls-5" x="108" y="291" width="20" height="20" transform="translate(-153.33 125.21) rotate(-35.65)"/><rect class="cls-5" x="374.93" y="255.67" width="20" height="20" transform="translate(-82.7 274.18) rotate(-35.65)"/></svg>